<?xml version="1.0" encoding="utf-8"?>
<svg xmlns="http://www.w3.org/2000/svg" xmlns:xlink="http://www.w3.org/1999/xlink" width="700" height="400" viewBox="0 0 2800 1600">
<defs>
  <clipPath id="clip120">
    <rect x="0" y="0" width="2800" height="1600"/>
  </clipPath>
</defs>
<path clip-path="url(#clip120)" d="M0 1600 L2800 1600 L2800 0 L0 0  Z" fill="#ffffff" fill-rule="evenodd" fill-opacity="1"/>
<defs>
  <clipPath id="clip121">
    <rect x="246" y="114" width="2507" height="1321"/>
  </clipPath>
</defs>
<path clip-path="url(#clip120)" d="M246.753 1434.91 L2752.76 1434.91 L2752.76 114.832 L246.753 114.832  Z" fill="#ffffff" fill-rule="evenodd" fill-opacity="1"/>
<polyline clip-path="url(#clip121)" style="stroke:#000000; stroke-linecap:round; stroke-linejoin:round; stroke-width:2; stroke-opacity:0.1; fill:none" points="600.324,1434.91 600.324,114.832 "/>
<polyline clip-path="url(#clip121)" style="stroke:#000000; stroke-linecap:round; stroke-linejoin:round; stroke-width:2; stroke-opacity:0.1; fill:none" points="1069.74,1434.91 1069.74,114.832 "/>
<polyline clip-path="url(#clip121)" style="stroke:#000000; stroke-linecap:round; stroke-linejoin:round; stroke-width:2; stroke-opacity:0.1; fill:none" points="1539.16,1434.91 1539.16,114.832 "/>
<polyline clip-path="url(#clip121)" style="stroke:#000000; stroke-linecap:round; stroke-linejoin:round; stroke-width:2; stroke-opacity:0.1; fill:none" points="2008.57,1434.91 2008.57,114.832 "/>
<polyline clip-path="url(#clip121)" style="stroke:#000000; stroke-linecap:round; stroke-linejoin:round; stroke-width:2; stroke-opacity:0.1; fill:none" points="2477.99,1434.91 2477.99,114.832 "/>
<polyline clip-path="url(#clip121)" style="stroke:#000000; stroke-linecap:round; stroke-linejoin:round; stroke-width:2; stroke-opacity:0.1; fill:none" points="246.753,1207.1 2752.76,1207.1 "/>
<polyline clip-path="url(#clip121)" style="stroke:#000000; stroke-linecap:round; stroke-linejoin:round; stroke-width:2; stroke-opacity:0.1; fill:none" points="246.753,976.06 2752.76,976.06 "/>
<polyline clip-path="url(#clip121)" style="stroke:#000000; stroke-linecap:round; stroke-linejoin:round; stroke-width:2; stroke-opacity:0.1; fill:none" points="246.753,745.021 2752.76,745.021 "/>
<polyline clip-path="url(#clip121)" style="stroke:#000000; stroke-linecap:round; stroke-linejoin:round; stroke-width:2; stroke-opacity:0.1; fill:none" points="246.753,513.982 2752.76,513.982 "/>
<polyline clip-path="url(#clip121)" style="stroke:#000000; stroke-linecap:round; stroke-linejoin:round; stroke-width:2; stroke-opacity:0.1; fill:none" points="246.753,282.943 2752.76,282.943 "/>
<polyline clip-path="url(#clip120)" style="stroke:#000000; stroke-linecap:round; stroke-linejoin:round; stroke-width:4; stroke-opacity:1; fill:none" points="246.753,1434.91 2752.76,1434.91 "/>
<polyline clip-path="url(#clip120)" style="stroke:#000000; stroke-linecap:round; stroke-linejoin:round; stroke-width:4; stroke-opacity:1; fill:none" points="600.324,1434.91 600.324,1416.01 "/>
<polyline clip-path="url(#clip120)" style="stroke:#000000; stroke-linecap:round; stroke-linejoin:round; stroke-width:4; stroke-opacity:1; fill:none" points="1069.74,1434.91 1069.74,1416.01 "/>
<polyline clip-path="url(#clip120)" style="stroke:#000000; stroke-linecap:round; stroke-linejoin:round; stroke-width:4; stroke-opacity:1; fill:none" points="1539.16,1434.91 1539.16,1416.01 "/>
<polyline clip-path="url(#clip120)" style="stroke:#000000; stroke-linecap:round; stroke-linejoin:round; stroke-width:4; stroke-opacity:1; fill:none" points="2008.57,1434.91 2008.57,1416.01 "/>
<polyline clip-path="url(#clip120)" style="stroke:#000000; stroke-linecap:round; stroke-linejoin:round; stroke-width:4; stroke-opacity:1; fill:none" points="2477.99,1434.91 2477.99,1416.01 "/>
<path clip-path="url(#clip120)" d="M531.771 1483.68 L561.447 1483.68 L561.447 1487.61 L531.771 1487.61 L531.771 1483.68 Z" fill="#000000" fill-rule="nonzero" fill-opacity="1" /><path clip-path="url(#clip120)" d="M581.539 1469.02 Q577.928 1469.02 576.1 1472.59 Q574.294 1476.13 574.294 1483.26 Q574.294 1490.37 576.1 1493.93 Q577.928 1497.47 581.539 1497.47 Q585.174 1497.47 586.979 1493.93 Q588.808 1490.37 588.808 1483.26 Q588.808 1476.13 586.979 1472.59 Q585.174 1469.02 581.539 1469.02 M581.539 1465.32 Q587.35 1465.32 590.405 1469.93 Q593.484 1474.51 593.484 1483.26 Q593.484 1491.99 590.405 1496.59 Q587.35 1501.18 581.539 1501.18 Q575.729 1501.18 572.651 1496.59 Q569.595 1491.99 569.595 1483.26 Q569.595 1474.51 572.651 1469.93 Q575.729 1465.32 581.539 1465.32 Z" fill="#000000" fill-rule="nonzero" fill-opacity="1" /><path clip-path="url(#clip120)" d="M601.701 1494.63 L606.586 1494.63 L606.586 1500.51 L601.701 1500.51 L601.701 1494.63 Z" fill="#000000" fill-rule="nonzero" fill-opacity="1" /><path clip-path="url(#clip120)" d="M617.581 1496.57 L625.22 1496.57 L625.22 1470.2 L616.91 1471.87 L616.91 1467.61 L625.174 1465.95 L629.849 1465.95 L629.849 1496.57 L637.488 1496.57 L637.488 1500.51 L617.581 1500.51 L617.581 1496.57 Z" fill="#000000" fill-rule="nonzero" fill-opacity="1" /><path clip-path="url(#clip120)" d="M656.933 1469.02 Q653.322 1469.02 651.493 1472.59 Q649.687 1476.13 649.687 1483.26 Q649.687 1490.37 651.493 1493.93 Q653.322 1497.47 656.933 1497.47 Q660.567 1497.47 662.372 1493.93 Q664.201 1490.37 664.201 1483.26 Q664.201 1476.13 662.372 1472.59 Q660.567 1469.02 656.933 1469.02 M656.933 1465.32 Q662.743 1465.32 665.798 1469.93 Q668.877 1474.51 668.877 1483.26 Q668.877 1491.99 665.798 1496.59 Q662.743 1501.18 656.933 1501.18 Q651.122 1501.18 648.044 1496.59 Q644.988 1491.99 644.988 1483.26 Q644.988 1474.51 648.044 1469.93 Q651.122 1465.32 656.933 1465.32 Z" fill="#000000" fill-rule="nonzero" fill-opacity="1" /><path clip-path="url(#clip120)" d="M1001.69 1483.68 L1031.36 1483.68 L1031.36 1487.61 L1001.69 1487.61 L1001.69 1483.68 Z" fill="#000000" fill-rule="nonzero" fill-opacity="1" /><path clip-path="url(#clip120)" d="M1051.45 1469.02 Q1047.84 1469.02 1046.01 1472.59 Q1044.21 1476.13 1044.21 1483.26 Q1044.21 1490.37 1046.01 1493.93 Q1047.84 1497.47 1051.45 1497.47 Q1055.09 1497.47 1056.89 1493.93 Q1058.72 1490.37 1058.72 1483.26 Q1058.72 1476.13 1056.89 1472.59 Q1055.09 1469.02 1051.45 1469.02 M1051.45 1465.32 Q1057.26 1465.32 1060.32 1469.93 Q1063.4 1474.51 1063.4 1483.26 Q1063.4 1491.99 1060.32 1496.59 Q1057.26 1501.18 1051.45 1501.18 Q1045.64 1501.18 1042.56 1496.59 Q1039.51 1491.99 1039.51 1483.26 Q1039.51 1474.51 1042.56 1469.93 Q1045.64 1465.32 1051.45 1465.32 Z" fill="#000000" fill-rule="nonzero" fill-opacity="1" /><path clip-path="url(#clip120)" d="M1071.62 1494.63 L1076.5 1494.63 L1076.5 1500.51 L1071.62 1500.51 L1071.62 1494.63 Z" fill="#000000" fill-rule="nonzero" fill-opacity="1" /><path clip-path="url(#clip120)" d="M1096.68 1469.02 Q1093.07 1469.02 1091.25 1472.59 Q1089.44 1476.13 1089.44 1483.26 Q1089.44 1490.37 1091.25 1493.93 Q1093.07 1497.47 1096.68 1497.47 Q1100.32 1497.47 1102.12 1493.93 Q1103.95 1490.37 1103.95 1483.26 Q1103.95 1476.13 1102.12 1472.59 Q1100.32 1469.02 1096.68 1469.02 M1096.68 1465.32 Q1102.5 1465.32 1105.55 1469.93 Q1108.63 1474.51 1108.63 1483.26 Q1108.63 1491.99 1105.55 1496.59 Q1102.5 1501.18 1096.68 1501.18 Q1090.87 1501.18 1087.8 1496.59 Q1084.74 1491.99 1084.74 1483.26 Q1084.74 1474.51 1087.8 1469.93 Q1090.87 1465.32 1096.68 1465.32 Z" fill="#000000" fill-rule="nonzero" fill-opacity="1" /><path clip-path="url(#clip120)" d="M1116.89 1465.95 L1135.25 1465.95 L1135.25 1469.88 L1121.18 1469.88 L1121.18 1478.35 Q1122.19 1478.01 1123.21 1477.84 Q1124.23 1477.66 1125.25 1477.66 Q1131.04 1477.66 1134.42 1480.83 Q1137.8 1484 1137.8 1489.42 Q1137.8 1495 1134.32 1498.1 Q1130.85 1501.18 1124.53 1501.18 Q1122.36 1501.18 1120.09 1500.81 Q1117.84 1500.44 1115.43 1499.7 L1115.43 1495 Q1117.52 1496.13 1119.74 1496.69 Q1121.96 1497.24 1124.44 1497.24 Q1128.44 1497.24 1130.78 1495.14 Q1133.12 1493.03 1133.12 1489.42 Q1133.12 1485.81 1130.78 1483.7 Q1128.44 1481.59 1124.44 1481.59 Q1122.56 1481.59 1120.69 1482.01 Q1118.84 1482.43 1116.89 1483.31 L1116.89 1465.95 Z" fill="#000000" fill-rule="nonzero" fill-opacity="1" /><path clip-path="url(#clip120)" d="M1501.46 1469.02 Q1497.85 1469.02 1496.02 1472.59 Q1494.22 1476.13 1494.22 1483.26 Q1494.22 1490.37 1496.02 1493.93 Q1497.85 1497.47 1501.46 1497.47 Q1505.09 1497.47 1506.9 1493.93 Q1508.73 1490.37 1508.73 1483.26 Q1508.73 1476.13 1506.9 1472.59 Q1505.09 1469.02 1501.46 1469.02 M1501.46 1465.32 Q1507.27 1465.32 1510.33 1469.93 Q1513.41 1474.51 1513.41 1483.26 Q1513.41 1491.99 1510.33 1496.59 Q1507.27 1501.18 1501.46 1501.18 Q1495.65 1501.18 1492.57 1496.59 Q1489.52 1491.99 1489.52 1483.26 Q1489.52 1474.51 1492.57 1469.93 Q1495.65 1465.32 1501.46 1465.32 Z" fill="#000000" fill-rule="nonzero" fill-opacity="1" /><path clip-path="url(#clip120)" d="M1521.62 1494.63 L1526.51 1494.63 L1526.51 1500.51 L1521.62 1500.51 L1521.62 1494.63 Z" fill="#000000" fill-rule="nonzero" fill-opacity="1" /><path clip-path="url(#clip120)" d="M1546.69 1469.02 Q1543.08 1469.02 1541.25 1472.59 Q1539.45 1476.13 1539.45 1483.26 Q1539.45 1490.37 1541.25 1493.93 Q1543.08 1497.47 1546.69 1497.47 Q1550.33 1497.47 1552.13 1493.93 Q1553.96 1490.37 1553.96 1483.26 Q1553.96 1476.13 1552.13 1472.59 Q1550.33 1469.02 1546.69 1469.02 M1546.69 1465.32 Q1552.5 1465.32 1555.56 1469.93 Q1558.64 1474.51 1558.64 1483.26 Q1558.64 1491.99 1555.56 1496.59 Q1552.5 1501.18 1546.69 1501.18 Q1540.88 1501.18 1537.8 1496.59 Q1534.75 1491.99 1534.75 1483.26 Q1534.75 1474.51 1537.8 1469.93 Q1540.88 1465.32 1546.69 1465.32 Z" fill="#000000" fill-rule="nonzero" fill-opacity="1" /><path clip-path="url(#clip120)" d="M1576.85 1469.02 Q1573.24 1469.02 1571.41 1472.59 Q1569.61 1476.13 1569.61 1483.26 Q1569.61 1490.37 1571.41 1493.93 Q1573.24 1497.47 1576.85 1497.47 Q1580.49 1497.47 1582.29 1493.93 Q1584.12 1490.37 1584.12 1483.26 Q1584.12 1476.13 1582.29 1472.59 Q1580.49 1469.02 1576.85 1469.02 M1576.85 1465.32 Q1582.66 1465.32 1585.72 1469.93 Q1588.8 1474.51 1588.8 1483.26 Q1588.8 1491.99 1585.72 1496.59 Q1582.66 1501.18 1576.85 1501.18 Q1571.04 1501.18 1567.96 1496.59 Q1564.91 1491.99 1564.91 1483.26 Q1564.91 1474.51 1567.96 1469.93 Q1571.04 1465.32 1576.85 1465.32 Z" fill="#000000" fill-rule="nonzero" fill-opacity="1" /><path clip-path="url(#clip120)" d="M1971.37 1469.02 Q1967.76 1469.02 1965.94 1472.59 Q1964.13 1476.13 1964.13 1483.26 Q1964.13 1490.37 1965.94 1493.93 Q1967.76 1497.47 1971.37 1497.47 Q1975.01 1497.47 1976.81 1493.93 Q1978.64 1490.37 1978.64 1483.26 Q1978.64 1476.13 1976.81 1472.59 Q1975.01 1469.02 1971.37 1469.02 M1971.37 1465.32 Q1977.19 1465.32 1980.24 1469.93 Q1983.32 1474.51 1983.32 1483.26 Q1983.32 1491.99 1980.24 1496.59 Q1977.19 1501.18 1971.37 1501.18 Q1965.56 1501.18 1962.49 1496.59 Q1959.43 1491.99 1959.43 1483.26 Q1959.43 1474.51 1962.49 1469.93 Q1965.56 1465.32 1971.37 1465.32 Z" fill="#000000" fill-rule="nonzero" fill-opacity="1" /><path clip-path="url(#clip120)" d="M1991.54 1494.63 L1996.42 1494.63 L1996.42 1500.51 L1991.54 1500.51 L1991.54 1494.63 Z" fill="#000000" fill-rule="nonzero" fill-opacity="1" /><path clip-path="url(#clip120)" d="M2016.61 1469.02 Q2013 1469.02 2011.17 1472.59 Q2009.36 1476.13 2009.36 1483.26 Q2009.36 1490.37 2011.17 1493.93 Q2013 1497.47 2016.61 1497.47 Q2020.24 1497.47 2022.05 1493.93 Q2023.87 1490.37 2023.87 1483.26 Q2023.87 1476.13 2022.05 1472.59 Q2020.24 1469.02 2016.61 1469.02 M2016.61 1465.32 Q2022.42 1465.32 2025.47 1469.93 Q2028.55 1474.51 2028.55 1483.26 Q2028.55 1491.99 2025.47 1496.59 Q2022.42 1501.18 2016.61 1501.18 Q2010.8 1501.18 2007.72 1496.59 Q2004.66 1491.99 2004.66 1483.26 Q2004.66 1474.51 2007.72 1469.93 Q2010.8 1465.32 2016.61 1465.32 Z" fill="#000000" fill-rule="nonzero" fill-opacity="1" /><path clip-path="url(#clip120)" d="M2036.81 1465.95 L2055.17 1465.95 L2055.17 1469.88 L2041.1 1469.88 L2041.1 1478.35 Q2042.12 1478.01 2043.13 1477.84 Q2044.15 1477.66 2045.17 1477.66 Q2050.96 1477.66 2054.34 1480.83 Q2057.72 1484 2057.72 1489.42 Q2057.72 1495 2054.24 1498.1 Q2050.77 1501.18 2044.45 1501.18 Q2042.28 1501.18 2040.01 1500.81 Q2037.76 1500.44 2035.36 1499.7 L2035.36 1495 Q2037.44 1496.13 2039.66 1496.69 Q2041.88 1497.24 2044.36 1497.24 Q2048.37 1497.24 2050.7 1495.14 Q2053.04 1493.03 2053.04 1489.42 Q2053.04 1485.81 2050.7 1483.7 Q2048.37 1481.59 2044.36 1481.59 Q2042.49 1481.59 2040.61 1482.01 Q2038.76 1482.43 2036.81 1483.31 L2036.81 1465.95 Z" fill="#000000" fill-rule="nonzero" fill-opacity="1" /><path clip-path="url(#clip120)" d="M2440.29 1469.02 Q2436.68 1469.02 2434.85 1472.59 Q2433.05 1476.13 2433.05 1483.26 Q2433.05 1490.37 2434.85 1493.93 Q2436.68 1497.47 2440.29 1497.47 Q2443.93 1497.47 2445.73 1493.93 Q2447.56 1490.37 2447.56 1483.26 Q2447.56 1476.13 2445.73 1472.59 Q2443.93 1469.02 2440.29 1469.02 M2440.29 1465.32 Q2446.1 1465.32 2449.16 1469.93 Q2452.24 1474.51 2452.24 1483.26 Q2452.24 1491.99 2449.16 1496.59 Q2446.1 1501.18 2440.29 1501.18 Q2434.48 1501.18 2431.4 1496.59 Q2428.35 1491.99 2428.35 1483.26 Q2428.35 1474.51 2431.4 1469.93 Q2434.48 1465.32 2440.29 1465.32 Z" fill="#000000" fill-rule="nonzero" fill-opacity="1" /><path clip-path="url(#clip120)" d="M2460.46 1494.63 L2465.34 1494.63 L2465.34 1500.51 L2460.46 1500.51 L2460.46 1494.63 Z" fill="#000000" fill-rule="nonzero" fill-opacity="1" /><path clip-path="url(#clip120)" d="M2476.34 1496.57 L2483.97 1496.57 L2483.97 1470.2 L2475.66 1471.87 L2475.66 1467.61 L2483.93 1465.95 L2488.6 1465.95 L2488.6 1496.57 L2496.24 1496.57 L2496.24 1500.51 L2476.34 1500.51 L2476.34 1496.57 Z" fill="#000000" fill-rule="nonzero" fill-opacity="1" /><path clip-path="url(#clip120)" d="M2515.69 1469.02 Q2512.08 1469.02 2510.25 1472.59 Q2508.44 1476.13 2508.44 1483.26 Q2508.44 1490.37 2510.25 1493.93 Q2512.08 1497.47 2515.69 1497.47 Q2519.32 1497.47 2521.13 1493.93 Q2522.96 1490.37 2522.96 1483.26 Q2522.96 1476.13 2521.13 1472.59 Q2519.32 1469.02 2515.69 1469.02 M2515.69 1465.32 Q2521.5 1465.32 2524.55 1469.93 Q2527.63 1474.51 2527.63 1483.26 Q2527.63 1491.99 2524.55 1496.59 Q2521.5 1501.18 2515.69 1501.18 Q2509.88 1501.18 2506.8 1496.59 Q2503.74 1491.99 2503.74 1483.26 Q2503.74 1474.51 2506.8 1469.93 Q2509.88 1465.32 2515.69 1465.32 Z" fill="#000000" fill-rule="nonzero" fill-opacity="1" /><path clip-path="url(#clip120)" d="M1051.45 1563.08 L1051.45 1580.49 L1061.76 1580.49 Q1066.95 1580.49 1069.43 1578.35 Q1071.95 1576.19 1071.95 1571.77 Q1071.95 1567.31 1069.43 1565.21 Q1066.95 1563.08 1061.76 1563.08 L1051.45 1563.08 M1051.45 1543.53 L1051.45 1557.86 L1060.97 1557.86 Q1065.68 1557.86 1067.97 1556.11 Q1070.29 1554.32 1070.29 1550.69 Q1070.29 1547.1 1067.97 1545.32 Q1065.68 1543.53 1060.97 1543.53 L1051.45 1543.53 M1045.02 1538.25 L1061.44 1538.25 Q1068.8 1538.25 1072.77 1541.31 Q1076.75 1544.36 1076.75 1549.99 Q1076.75 1554.35 1074.72 1556.93 Q1072.68 1559.51 1068.73 1560.15 Q1073.48 1561.17 1076.09 1564.41 Q1078.73 1567.63 1078.73 1572.47 Q1078.73 1578.83 1074.4 1582.3 Q1070.07 1585.77 1062.08 1585.77 L1045.02 1585.77 L1045.02 1538.25 Z" fill="#000000" fill-rule="nonzero" fill-opacity="1" /><path clip-path="url(#clip120)" d="M1088.88 1571.7 L1088.88 1550.12 L1094.74 1550.12 L1094.74 1571.48 Q1094.74 1576.54 1096.71 1579.09 Q1098.68 1581.6 1102.63 1581.6 Q1107.37 1581.6 1110.11 1578.58 Q1112.88 1575.55 1112.88 1570.33 L1112.88 1550.12 L1118.74 1550.12 L1118.74 1585.77 L1112.88 1585.77 L1112.88 1580.3 Q1110.75 1583.54 1107.91 1585.13 Q1105.11 1586.69 1101.39 1586.69 Q1095.25 1586.69 1092.06 1582.87 Q1088.88 1579.05 1088.88 1571.7 M1103.62 1549.26 L1103.62 1549.26 Z" fill="#000000" fill-rule="nonzero" fill-opacity="1" /><path clip-path="url(#clip120)" d="M1130.8 1536.24 L1136.65 1536.24 L1136.65 1585.77 L1130.8 1585.77 L1130.8 1536.24 Z" fill="#000000" fill-rule="nonzero" fill-opacity="1" /><path clip-path="url(#clip120)" d="M1148.69 1536.24 L1154.57 1536.24 L1154.57 1565.49 L1172.05 1550.12 L1179.53 1550.12 L1160.62 1566.8 L1180.32 1585.77 L1172.68 1585.77 L1154.57 1568.36 L1154.57 1585.77 L1148.69 1585.77 L1148.69 1536.24 Z" fill="#000000" fill-rule="nonzero" fill-opacity="1" /><path clip-path="url(#clip120)" d="M1230.17 1563.49 Q1232.24 1564.19 1234.18 1566.48 Q1236.15 1568.77 1238.12 1572.78 L1244.65 1585.77 L1237.74 1585.77 L1231.66 1573.58 Q1229.31 1568.8 1227.08 1567.25 Q1224.88 1565.69 1221.06 1565.69 L1214.06 1565.69 L1214.06 1585.77 L1207.63 1585.77 L1207.63 1538.25 L1222.15 1538.25 Q1230.29 1538.25 1234.3 1541.66 Q1238.32 1545.06 1238.32 1551.94 Q1238.32 1556.42 1236.21 1559.38 Q1234.15 1562.34 1230.17 1563.49 M1214.06 1543.53 L1214.06 1560.4 L1222.15 1560.4 Q1226.79 1560.4 1229.15 1558.27 Q1231.54 1556.11 1231.54 1551.94 Q1231.54 1547.77 1229.15 1545.67 Q1226.79 1543.53 1222.15 1543.53 L1214.06 1543.53 Z" fill="#000000" fill-rule="nonzero" fill-opacity="1" /><path clip-path="url(#clip120)" d="M1252.67 1550.12 L1258.53 1550.12 L1258.53 1585.77 L1252.67 1585.77 L1252.67 1550.12 M1252.67 1536.24 L1258.53 1536.24 L1258.53 1543.66 L1252.67 1543.66 L1252.67 1536.24 Z" fill="#000000" fill-rule="nonzero" fill-opacity="1" /><path clip-path="url(#clip120)" d="M1296.43 1551.49 L1296.43 1556.96 Q1293.95 1555.6 1291.44 1554.93 Q1288.95 1554.23 1286.41 1554.23 Q1280.71 1554.23 1277.56 1557.86 Q1274.41 1561.45 1274.41 1567.98 Q1274.41 1574.5 1277.56 1578.13 Q1280.71 1581.73 1286.41 1581.73 Q1288.95 1581.73 1291.44 1581.06 Q1293.95 1580.36 1296.43 1578.99 L1296.43 1584.4 Q1293.98 1585.55 1291.34 1586.12 Q1288.73 1586.69 1285.77 1586.69 Q1277.72 1586.69 1272.98 1581.63 Q1268.23 1576.57 1268.23 1567.98 Q1268.23 1559.26 1273.01 1554.26 Q1277.81 1549.26 1286.15 1549.26 Q1288.86 1549.26 1291.44 1549.84 Q1294.02 1550.38 1296.43 1551.49 Z" fill="#000000" fill-rule="nonzero" fill-opacity="1" /><path clip-path="url(#clip120)" d="M1336.25 1564.25 L1336.25 1585.77 L1330.4 1585.77 L1330.4 1564.44 Q1330.4 1559.38 1328.42 1556.87 Q1326.45 1554.35 1322.5 1554.35 Q1317.76 1554.35 1315.02 1557.38 Q1312.28 1560.4 1312.28 1565.62 L1312.28 1585.77 L1306.4 1585.77 L1306.4 1536.24 L1312.28 1536.24 L1312.28 1555.66 Q1314.39 1552.45 1317.22 1550.85 Q1320.08 1549.26 1323.81 1549.26 Q1329.95 1549.26 1333.1 1553.08 Q1336.25 1556.87 1336.25 1564.25 Z" fill="#000000" fill-rule="nonzero" fill-opacity="1" /><path clip-path="url(#clip120)" d="M1364.13 1567.85 Q1357.04 1567.85 1354.3 1569.47 Q1351.56 1571.1 1351.56 1575.01 Q1351.56 1578.13 1353.6 1579.98 Q1355.67 1581.79 1359.2 1581.79 Q1364.07 1581.79 1367 1578.35 Q1369.96 1574.88 1369.96 1569.16 L1369.96 1567.85 L1364.13 1567.85 M1375.81 1565.43 L1375.81 1585.77 L1369.96 1585.77 L1369.96 1580.36 Q1367.95 1583.61 1364.96 1585.16 Q1361.97 1586.69 1357.64 1586.69 Q1352.17 1586.69 1348.92 1583.64 Q1345.7 1580.55 1345.7 1575.39 Q1345.7 1569.38 1349.71 1566.32 Q1353.76 1563.27 1361.75 1563.27 L1369.96 1563.27 L1369.96 1562.69 Q1369.96 1558.65 1367.28 1556.46 Q1364.64 1554.23 1359.84 1554.23 Q1356.78 1554.23 1353.88 1554.96 Q1350.99 1555.69 1348.31 1557.16 L1348.31 1551.74 Q1351.53 1550.5 1354.55 1549.9 Q1357.58 1549.26 1360.44 1549.26 Q1368.18 1549.26 1371.99 1553.27 Q1375.81 1557.28 1375.81 1565.43 Z" fill="#000000" fill-rule="nonzero" fill-opacity="1" /><path clip-path="url(#clip120)" d="M1408.53 1555.6 Q1407.55 1555.02 1406.37 1554.77 Q1405.22 1554.48 1403.82 1554.48 Q1398.86 1554.48 1396.18 1557.73 Q1393.54 1560.94 1393.54 1566.99 L1393.54 1585.77 L1387.65 1585.77 L1387.65 1550.12 L1393.54 1550.12 L1393.54 1555.66 Q1395.39 1552.41 1398.35 1550.85 Q1401.31 1549.26 1405.54 1549.26 Q1406.15 1549.26 1406.88 1549.36 Q1407.61 1549.42 1408.5 1549.58 L1408.53 1555.6 Z" fill="#000000" fill-rule="nonzero" fill-opacity="1" /><path clip-path="url(#clip120)" d="M1436.99 1555.53 L1436.99 1536.24 L1442.85 1536.24 L1442.85 1585.77 L1436.99 1585.77 L1436.99 1580.42 Q1435.14 1583.61 1432.31 1585.16 Q1429.51 1586.69 1425.56 1586.69 Q1419.1 1586.69 1415.03 1581.54 Q1410.98 1576.38 1410.98 1567.98 Q1410.98 1559.57 1415.03 1554.42 Q1419.1 1549.26 1425.56 1549.26 Q1429.51 1549.26 1432.31 1550.82 Q1435.14 1552.35 1436.99 1555.53 M1417.03 1567.98 Q1417.03 1574.44 1419.67 1578.13 Q1422.35 1581.79 1426.99 1581.79 Q1431.64 1581.79 1434.32 1578.13 Q1436.99 1574.44 1436.99 1567.98 Q1436.99 1561.52 1434.32 1557.86 Q1431.64 1554.16 1426.99 1554.16 Q1422.35 1554.16 1419.67 1557.86 Q1417.03 1561.52 1417.03 1567.98 Z" fill="#000000" fill-rule="nonzero" fill-opacity="1" /><path clip-path="url(#clip120)" d="M1477.63 1551.17 L1477.63 1556.71 Q1475.15 1555.44 1472.48 1554.8 Q1469.8 1554.16 1466.94 1554.16 Q1462.58 1554.16 1460.38 1555.5 Q1458.22 1556.84 1458.22 1559.51 Q1458.22 1561.55 1459.78 1562.73 Q1461.34 1563.87 1466.05 1564.92 L1468.05 1565.37 Q1474.29 1566.7 1476.9 1569.16 Q1479.54 1571.57 1479.54 1575.93 Q1479.54 1580.9 1475.6 1583.8 Q1471.68 1586.69 1464.81 1586.69 Q1461.94 1586.69 1458.82 1586.12 Q1455.74 1585.58 1452.3 1584.46 L1452.3 1578.42 Q1455.54 1580.1 1458.7 1580.96 Q1461.85 1581.79 1464.93 1581.79 Q1469.07 1581.79 1471.3 1580.39 Q1473.53 1578.96 1473.53 1576.38 Q1473.53 1573.99 1471.9 1572.72 Q1470.31 1571.45 1464.87 1570.27 L1462.83 1569.79 Q1457.39 1568.65 1454.97 1566.29 Q1452.55 1563.9 1452.55 1559.77 Q1452.55 1554.74 1456.12 1552 Q1459.68 1549.26 1466.24 1549.26 Q1469.49 1549.26 1472.35 1549.74 Q1475.21 1550.22 1477.63 1551.17 Z" fill="#000000" fill-rule="nonzero" fill-opacity="1" /><path clip-path="url(#clip120)" d="M1502.68 1554.23 Q1497.97 1554.23 1495.24 1557.92 Q1492.5 1561.58 1492.5 1567.98 Q1492.5 1574.37 1495.2 1578.07 Q1497.94 1581.73 1502.68 1581.73 Q1507.36 1581.73 1510.1 1578.04 Q1512.84 1574.34 1512.84 1567.98 Q1512.84 1561.64 1510.1 1557.95 Q1507.36 1554.23 1502.68 1554.23 M1502.68 1549.26 Q1510.32 1549.26 1514.68 1554.23 Q1519.04 1559.19 1519.04 1567.98 Q1519.04 1576.73 1514.68 1581.73 Q1510.32 1586.69 1502.68 1586.69 Q1495.01 1586.69 1490.65 1581.73 Q1486.32 1576.73 1486.32 1567.98 Q1486.32 1559.19 1490.65 1554.23 Q1495.01 1549.26 1502.68 1549.26 Z" fill="#000000" fill-rule="nonzero" fill-opacity="1" /><path clip-path="url(#clip120)" d="M1558.38 1564.25 L1558.38 1585.77 L1552.53 1585.77 L1552.53 1564.44 Q1552.53 1559.38 1550.55 1556.87 Q1548.58 1554.35 1544.63 1554.35 Q1539.89 1554.35 1537.15 1557.38 Q1534.42 1560.4 1534.42 1565.62 L1534.42 1585.77 L1528.53 1585.77 L1528.53 1550.12 L1534.42 1550.12 L1534.42 1555.66 Q1536.52 1552.45 1539.35 1550.85 Q1542.21 1549.26 1545.94 1549.26 Q1552.08 1549.26 1555.23 1553.08 Q1558.38 1556.87 1558.38 1564.25 Z" fill="#000000" fill-rule="nonzero" fill-opacity="1" /><path clip-path="url(#clip120)" d="M1591.04 1538.25 L1599.7 1538.25 L1620.77 1578 L1620.77 1538.25 L1627.01 1538.25 L1627.01 1585.77 L1618.35 1585.77 L1597.28 1546.02 L1597.28 1585.77 L1591.04 1585.77 L1591.04 1538.25 Z" fill="#000000" fill-rule="nonzero" fill-opacity="1" /><path clip-path="url(#clip120)" d="M1638.94 1571.7 L1638.94 1550.12 L1644.8 1550.12 L1644.8 1571.48 Q1644.8 1576.54 1646.77 1579.09 Q1648.74 1581.6 1652.69 1581.6 Q1657.43 1581.6 1660.17 1578.58 Q1662.94 1575.55 1662.94 1570.33 L1662.94 1550.12 L1668.8 1550.12 L1668.8 1585.77 L1662.94 1585.77 L1662.94 1580.3 Q1660.81 1583.54 1657.97 1585.13 Q1655.17 1586.69 1651.45 1586.69 Q1645.31 1586.69 1642.12 1582.87 Q1638.94 1579.05 1638.94 1571.7 M1653.68 1549.26 L1653.68 1549.26 Z" fill="#000000" fill-rule="nonzero" fill-opacity="1" /><path clip-path="url(#clip120)" d="M1708.61 1556.96 Q1710.81 1553.02 1713.87 1551.14 Q1716.92 1549.26 1721.06 1549.26 Q1726.63 1549.26 1729.65 1553.18 Q1732.68 1557.06 1732.68 1564.25 L1732.68 1585.77 L1726.79 1585.77 L1726.79 1564.44 Q1726.79 1559.32 1724.97 1556.84 Q1723.16 1554.35 1719.44 1554.35 Q1714.88 1554.35 1712.24 1557.38 Q1709.6 1560.4 1709.6 1565.62 L1709.6 1585.77 L1703.71 1585.77 L1703.71 1564.44 Q1703.71 1559.29 1701.9 1556.84 Q1700.08 1554.35 1696.3 1554.35 Q1691.81 1554.35 1689.17 1557.41 Q1686.52 1560.43 1686.52 1565.62 L1686.52 1585.77 L1680.64 1585.77 L1680.64 1550.12 L1686.52 1550.12 L1686.52 1555.66 Q1688.53 1552.38 1691.33 1550.82 Q1694.13 1549.26 1697.98 1549.26 Q1701.87 1549.26 1704.57 1551.24 Q1707.31 1553.21 1708.61 1556.96 Z" fill="#000000" fill-rule="nonzero" fill-opacity="1" /><path clip-path="url(#clip120)" d="M1769.95 1567.98 Q1769.95 1561.52 1767.27 1557.86 Q1764.63 1554.16 1759.98 1554.16 Q1755.34 1554.16 1752.66 1557.86 Q1750.02 1561.52 1750.02 1567.98 Q1750.02 1574.44 1752.66 1578.13 Q1755.34 1581.79 1759.98 1581.79 Q1764.63 1581.79 1767.27 1578.13 Q1769.95 1574.44 1769.95 1567.98 M1750.02 1555.53 Q1751.87 1552.35 1754.67 1550.82 Q1757.5 1549.26 1761.42 1549.26 Q1767.91 1549.26 1771.95 1554.42 Q1776.03 1559.57 1776.03 1567.98 Q1776.03 1576.38 1771.95 1581.54 Q1767.91 1586.69 1761.42 1586.69 Q1757.5 1586.69 1754.67 1585.16 Q1751.87 1583.61 1750.02 1580.42 L1750.02 1585.77 L1744.13 1585.77 L1744.13 1536.24 L1750.02 1536.24 L1750.02 1555.53 Z" fill="#000000" fill-rule="nonzero" fill-opacity="1" /><path clip-path="url(#clip120)" d="M1816.23 1566.48 L1816.23 1569.35 L1789.3 1569.35 Q1789.68 1575.39 1792.93 1578.58 Q1796.21 1581.73 1802.03 1581.73 Q1805.4 1581.73 1808.56 1580.9 Q1811.74 1580.07 1814.86 1578.42 L1814.86 1583.96 Q1811.71 1585.29 1808.4 1585.99 Q1805.09 1586.69 1801.68 1586.69 Q1793.15 1586.69 1788.15 1581.73 Q1783.19 1576.76 1783.19 1568.3 Q1783.19 1559.54 1787.9 1554.42 Q1792.64 1549.26 1800.66 1549.26 Q1807.85 1549.26 1812.02 1553.91 Q1816.23 1558.52 1816.23 1566.48 M1810.37 1564.76 Q1810.31 1559.96 1807.66 1557.09 Q1805.05 1554.23 1800.73 1554.23 Q1795.82 1554.23 1792.86 1557 Q1789.94 1559.77 1789.49 1564.79 L1810.37 1564.76 Z" fill="#000000" fill-rule="nonzero" fill-opacity="1" /><path clip-path="url(#clip120)" d="M1846.49 1555.6 Q1845.51 1555.02 1844.33 1554.77 Q1843.18 1554.48 1841.78 1554.48 Q1836.82 1554.48 1834.15 1557.73 Q1831.5 1560.94 1831.5 1566.99 L1831.5 1585.77 L1825.62 1585.77 L1825.62 1550.12 L1831.5 1550.12 L1831.5 1555.66 Q1833.35 1552.41 1836.31 1550.85 Q1839.27 1549.26 1843.5 1549.26 Q1844.11 1549.26 1844.84 1549.36 Q1845.57 1549.42 1846.46 1549.58 L1846.49 1555.6 Z" fill="#000000" fill-rule="nonzero" fill-opacity="1" /><path clip-path="url(#clip120)" d="M1896.15 1563.49 Q1898.22 1564.19 1900.16 1566.48 Q1902.13 1568.77 1904.1 1572.78 L1910.63 1585.77 L1903.72 1585.77 L1897.64 1573.58 Q1895.29 1568.8 1893.06 1567.25 Q1890.86 1565.69 1887.04 1565.69 L1880.04 1565.69 L1880.04 1585.77 L1873.61 1585.77 L1873.61 1538.25 L1888.13 1538.25 Q1896.27 1538.25 1900.28 1541.66 Q1904.3 1545.06 1904.3 1551.94 Q1904.3 1556.42 1902.19 1559.38 Q1900.13 1562.34 1896.15 1563.49 M1880.04 1543.53 L1880.04 1560.4 L1888.13 1560.4 Q1892.77 1560.4 1895.13 1558.27 Q1897.52 1556.11 1897.52 1551.94 Q1897.52 1547.77 1895.13 1545.67 Q1892.77 1543.53 1888.13 1543.53 L1880.04 1543.53 Z" fill="#000000" fill-rule="nonzero" fill-opacity="1" /><path clip-path="url(#clip120)" d="M1918.65 1550.12 L1924.51 1550.12 L1924.51 1585.77 L1918.65 1585.77 L1918.65 1550.12 M1918.65 1536.24 L1924.51 1536.24 L1924.51 1543.66 L1918.65 1543.66 L1918.65 1536.24 Z" fill="#000000" fill-rule="nonzero" fill-opacity="1" /><path clip-path="url(#clip120)" d="M1948.76 1564.22 Q1947.17 1561.48 1943.95 1561.48 Q1940.74 1561.48 1939.15 1564.22 Q1937.52 1566.96 1937.52 1572.43 Q1937.52 1577.94 1939.15 1580.68 Q1940.74 1583.41 1943.95 1583.41 Q1947.17 1583.41 1948.76 1580.68 Q1950.38 1577.94 1950.38 1572.43 Q1950.38 1566.96 1948.76 1564.22 M1943.95 1558.65 Q1949.08 1558.65 1951.78 1562.18 Q1954.49 1565.72 1954.49 1572.43 Q1954.49 1579.18 1951.78 1582.71 Q1949.08 1586.25 1943.95 1586.25 Q1938.8 1586.25 1936.09 1582.71 Q1933.39 1579.18 1933.39 1572.43 Q1933.39 1565.72 1936.09 1562.18 Q1938.8 1558.65 1943.95 1558.65 Z" fill="#000000" fill-rule="nonzero" fill-opacity="1" /><polyline clip-path="url(#clip120)" style="stroke:#000000; stroke-linecap:round; stroke-linejoin:round; stroke-width:4; stroke-opacity:1; fill:none" points="246.753,1434.91 246.753,114.832 "/>
<polyline clip-path="url(#clip120)" style="stroke:#000000; stroke-linecap:round; stroke-linejoin:round; stroke-width:4; stroke-opacity:1; fill:none" points="246.753,1207.1 265.651,1207.1 "/>
<polyline clip-path="url(#clip120)" style="stroke:#000000; stroke-linecap:round; stroke-linejoin:round; stroke-width:4; stroke-opacity:1; fill:none" points="246.753,976.06 265.651,976.06 "/>
<polyline clip-path="url(#clip120)" style="stroke:#000000; stroke-linecap:round; stroke-linejoin:round; stroke-width:4; stroke-opacity:1; fill:none" points="246.753,745.021 265.651,745.021 "/>
<polyline clip-path="url(#clip120)" style="stroke:#000000; stroke-linecap:round; stroke-linejoin:round; stroke-width:4; stroke-opacity:1; fill:none" points="246.753,513.982 265.651,513.982 "/>
<polyline clip-path="url(#clip120)" style="stroke:#000000; stroke-linecap:round; stroke-linejoin:round; stroke-width:4; stroke-opacity:1; fill:none" points="246.753,282.943 265.651,282.943 "/>
<path clip-path="url(#clip120)" d="M117.416 1192.9 Q113.805 1192.9 111.976 1196.46 Q110.171 1200 110.171 1207.13 Q110.171 1214.24 111.976 1217.81 Q113.805 1221.35 117.416 1221.35 Q121.05 1221.35 122.856 1217.81 Q124.684 1214.24 124.684 1207.13 Q124.684 1200 122.856 1196.46 Q121.05 1192.9 117.416 1192.9 M117.416 1189.19 Q123.226 1189.19 126.282 1193.8 Q129.36 1198.38 129.36 1207.13 Q129.36 1215.86 126.282 1220.47 Q123.226 1225.05 117.416 1225.05 Q111.606 1225.05 108.527 1220.47 Q105.472 1215.86 105.472 1207.13 Q105.472 1198.38 108.527 1193.8 Q111.606 1189.19 117.416 1189.19 Z" fill="#000000" fill-rule="nonzero" fill-opacity="1" /><path clip-path="url(#clip120)" d="M137.578 1218.5 L142.462 1218.5 L142.462 1224.38 L137.578 1224.38 L137.578 1218.5 Z" fill="#000000" fill-rule="nonzero" fill-opacity="1" /><path clip-path="url(#clip120)" d="M152.694 1189.82 L171.05 1189.82 L171.05 1193.75 L156.976 1193.75 L156.976 1202.23 Q157.994 1201.88 159.013 1201.72 Q160.031 1201.53 161.05 1201.53 Q166.837 1201.53 170.217 1204.7 Q173.596 1207.87 173.596 1213.29 Q173.596 1218.87 170.124 1221.97 Q166.652 1225.05 160.332 1225.05 Q158.156 1225.05 155.888 1224.68 Q153.643 1224.31 151.235 1223.57 L151.235 1218.87 Q153.319 1220 155.541 1220.56 Q157.763 1221.12 160.24 1221.12 Q164.244 1221.12 166.582 1219.01 Q168.92 1216.9 168.92 1213.29 Q168.92 1209.68 166.582 1207.57 Q164.244 1205.47 160.24 1205.47 Q158.365 1205.47 156.49 1205.88 Q154.638 1206.3 152.694 1207.18 L152.694 1189.82 Z" fill="#000000" fill-rule="nonzero" fill-opacity="1" /><path clip-path="url(#clip120)" d="M192.809 1192.9 Q189.198 1192.9 187.369 1196.46 Q185.564 1200 185.564 1207.13 Q185.564 1214.24 187.369 1217.81 Q189.198 1221.35 192.809 1221.35 Q196.443 1221.35 198.249 1217.81 Q200.078 1214.24 200.078 1207.13 Q200.078 1200 198.249 1196.46 Q196.443 1192.9 192.809 1192.9 M192.809 1189.19 Q198.619 1189.19 201.675 1193.8 Q204.753 1198.38 204.753 1207.13 Q204.753 1215.86 201.675 1220.47 Q198.619 1225.05 192.809 1225.05 Q186.999 1225.05 183.92 1220.47 Q180.865 1215.86 180.865 1207.13 Q180.865 1198.38 183.92 1193.8 Q186.999 1189.19 192.809 1189.19 Z" fill="#000000" fill-rule="nonzero" fill-opacity="1" /><path clip-path="url(#clip120)" d="M118.411 961.859 Q114.8 961.859 112.972 965.424 Q111.166 968.965 111.166 976.095 Q111.166 983.201 112.972 986.766 Q114.8 990.308 118.411 990.308 Q122.046 990.308 123.851 986.766 Q125.68 983.201 125.68 976.095 Q125.68 968.965 123.851 965.424 Q122.046 961.859 118.411 961.859 M118.411 958.155 Q124.221 958.155 127.277 962.762 Q130.356 967.345 130.356 976.095 Q130.356 984.822 127.277 989.428 Q124.221 994.011 118.411 994.011 Q112.601 994.011 109.522 989.428 Q106.467 984.822 106.467 976.095 Q106.467 967.345 109.522 962.762 Q112.601 958.155 118.411 958.155 Z" fill="#000000" fill-rule="nonzero" fill-opacity="1" /><path clip-path="url(#clip120)" d="M138.573 987.461 L143.457 987.461 L143.457 993.34 L138.573 993.34 L138.573 987.461 Z" fill="#000000" fill-rule="nonzero" fill-opacity="1" /><path clip-path="url(#clip120)" d="M152.462 958.78 L174.684 958.78 L174.684 960.771 L162.138 993.34 L157.254 993.34 L169.059 962.715 L152.462 962.715 L152.462 958.78 Z" fill="#000000" fill-rule="nonzero" fill-opacity="1" /><path clip-path="url(#clip120)" d="M183.851 958.78 L202.207 958.78 L202.207 962.715 L188.133 962.715 L188.133 971.188 Q189.152 970.84 190.17 970.678 Q191.189 970.493 192.207 970.493 Q197.994 970.493 201.374 973.664 Q204.753 976.836 204.753 982.252 Q204.753 987.831 201.281 990.933 Q197.809 994.011 191.49 994.011 Q189.314 994.011 187.045 993.641 Q184.8 993.271 182.392 992.53 L182.392 987.831 Q184.476 988.965 186.698 989.521 Q188.92 990.076 191.397 990.076 Q195.402 990.076 197.74 987.97 Q200.078 985.863 200.078 982.252 Q200.078 978.641 197.74 976.535 Q195.402 974.428 191.397 974.428 Q189.522 974.428 187.647 974.845 Q185.795 975.262 183.851 976.141 L183.851 958.78 Z" fill="#000000" fill-rule="nonzero" fill-opacity="1" /><path clip-path="url(#clip120)" d="M108.226 758.366 L115.865 758.366 L115.865 732 L107.555 733.667 L107.555 729.408 L115.819 727.741 L120.495 727.741 L120.495 758.366 L128.134 758.366 L128.134 762.301 L108.226 762.301 L108.226 758.366 Z" fill="#000000" fill-rule="nonzero" fill-opacity="1" /><path clip-path="url(#clip120)" d="M137.578 756.421 L142.462 756.421 L142.462 762.301 L137.578 762.301 L137.578 756.421 Z" fill="#000000" fill-rule="nonzero" fill-opacity="1" /><path clip-path="url(#clip120)" d="M162.647 730.82 Q159.036 730.82 157.207 734.385 Q155.402 737.926 155.402 745.056 Q155.402 752.162 157.207 755.727 Q159.036 759.269 162.647 759.269 Q166.281 759.269 168.087 755.727 Q169.916 752.162 169.916 745.056 Q169.916 737.926 168.087 734.385 Q166.281 730.82 162.647 730.82 M162.647 727.116 Q168.457 727.116 171.513 731.723 Q174.592 736.306 174.592 745.056 Q174.592 753.783 171.513 758.389 Q168.457 762.972 162.647 762.972 Q156.837 762.972 153.758 758.389 Q150.703 753.783 150.703 745.056 Q150.703 736.306 153.758 731.723 Q156.837 727.116 162.647 727.116 Z" fill="#000000" fill-rule="nonzero" fill-opacity="1" /><path clip-path="url(#clip120)" d="M192.809 730.82 Q189.198 730.82 187.369 734.385 Q185.564 737.926 185.564 745.056 Q185.564 752.162 187.369 755.727 Q189.198 759.269 192.809 759.269 Q196.443 759.269 198.249 755.727 Q200.078 752.162 200.078 745.056 Q200.078 737.926 198.249 734.385 Q196.443 730.82 192.809 730.82 M192.809 727.116 Q198.619 727.116 201.675 731.723 Q204.753 736.306 204.753 745.056 Q204.753 753.783 201.675 758.389 Q198.619 762.972 192.809 762.972 Q186.999 762.972 183.92 758.389 Q180.865 753.783 180.865 745.056 Q180.865 736.306 183.92 731.723 Q186.999 727.116 192.809 727.116 Z" fill="#000000" fill-rule="nonzero" fill-opacity="1" /><path clip-path="url(#clip120)" d="M109.222 527.327 L116.86 527.327 L116.86 500.961 L108.55 502.628 L108.55 498.369 L116.814 496.702 L121.49 496.702 L121.49 527.327 L129.129 527.327 L129.129 531.262 L109.222 531.262 L109.222 527.327 Z" fill="#000000" fill-rule="nonzero" fill-opacity="1" /><path clip-path="url(#clip120)" d="M138.573 525.382 L143.457 525.382 L143.457 531.262 L138.573 531.262 L138.573 525.382 Z" fill="#000000" fill-rule="nonzero" fill-opacity="1" /><path clip-path="url(#clip120)" d="M157.67 527.327 L173.99 527.327 L173.99 531.262 L152.045 531.262 L152.045 527.327 Q154.707 524.572 159.291 519.943 Q163.897 515.29 165.078 513.947 Q167.323 511.424 168.203 509.688 Q169.106 507.929 169.106 506.239 Q169.106 503.484 167.161 501.748 Q165.24 500.012 162.138 500.012 Q159.939 500.012 157.485 500.776 Q155.055 501.54 152.277 503.091 L152.277 498.369 Q155.101 497.234 157.555 496.656 Q160.008 496.077 162.045 496.077 Q167.416 496.077 170.61 498.762 Q173.805 501.447 173.805 505.938 Q173.805 508.068 172.994 509.989 Q172.207 511.887 170.101 514.48 Q169.522 515.151 166.42 518.368 Q163.318 521.563 157.67 527.327 Z" fill="#000000" fill-rule="nonzero" fill-opacity="1" /><path clip-path="url(#clip120)" d="M183.851 496.702 L202.207 496.702 L202.207 500.637 L188.133 500.637 L188.133 509.109 Q189.152 508.762 190.17 508.6 Q191.189 508.415 192.207 508.415 Q197.994 508.415 201.374 511.586 Q204.753 514.757 204.753 520.174 Q204.753 525.753 201.281 528.855 Q197.809 531.933 191.49 531.933 Q189.314 531.933 187.045 531.563 Q184.8 531.192 182.392 530.452 L182.392 525.753 Q184.476 526.887 186.698 527.443 Q188.92 527.998 191.397 527.998 Q195.402 527.998 197.74 525.892 Q200.078 523.785 200.078 520.174 Q200.078 516.563 197.74 514.456 Q195.402 512.35 191.397 512.35 Q189.522 512.35 187.647 512.767 Q185.795 513.183 183.851 514.063 L183.851 496.702 Z" fill="#000000" fill-rule="nonzero" fill-opacity="1" /><path clip-path="url(#clip120)" d="M108.226 296.288 L115.865 296.288 L115.865 269.922 L107.555 271.589 L107.555 267.329 L115.819 265.663 L120.495 265.663 L120.495 296.288 L128.134 296.288 L128.134 300.223 L108.226 300.223 L108.226 296.288 Z" fill="#000000" fill-rule="nonzero" fill-opacity="1" /><path clip-path="url(#clip120)" d="M137.578 294.343 L142.462 294.343 L142.462 300.223 L137.578 300.223 L137.578 294.343 Z" fill="#000000" fill-rule="nonzero" fill-opacity="1" /><path clip-path="url(#clip120)" d="M152.694 265.663 L171.05 265.663 L171.05 269.598 L156.976 269.598 L156.976 278.07 Q157.994 277.723 159.013 277.561 Q160.031 277.376 161.05 277.376 Q166.837 277.376 170.217 280.547 Q173.596 283.718 173.596 289.135 Q173.596 294.714 170.124 297.815 Q166.652 300.894 160.332 300.894 Q158.156 300.894 155.888 300.524 Q153.643 300.153 151.235 299.413 L151.235 294.714 Q153.319 295.848 155.541 296.403 Q157.763 296.959 160.24 296.959 Q164.244 296.959 166.582 294.852 Q168.92 292.746 168.92 289.135 Q168.92 285.524 166.582 283.417 Q164.244 281.311 160.24 281.311 Q158.365 281.311 156.49 281.728 Q154.638 282.144 152.694 283.024 L152.694 265.663 Z" fill="#000000" fill-rule="nonzero" fill-opacity="1" /><path clip-path="url(#clip120)" d="M192.809 268.741 Q189.198 268.741 187.369 272.306 Q185.564 275.848 185.564 282.978 Q185.564 290.084 187.369 293.649 Q189.198 297.19 192.809 297.19 Q196.443 297.19 198.249 293.649 Q200.078 290.084 200.078 282.978 Q200.078 275.848 198.249 272.306 Q196.443 268.741 192.809 268.741 M192.809 265.038 Q198.619 265.038 201.675 269.644 Q204.753 274.228 204.753 282.978 Q204.753 291.704 201.675 296.311 Q198.619 300.894 192.809 300.894 Q186.999 300.894 183.92 296.311 Q180.865 291.704 180.865 282.978 Q180.865 274.228 183.92 269.644 Q186.999 265.038 192.809 265.038 Z" fill="#000000" fill-rule="nonzero" fill-opacity="1" /><path clip-path="url(#clip120)" d="M3.25518 1021.72 L9.52541 1021.72 Q7.77484 1025.38 6.91547 1028.62 Q6.0561 1031.87 6.0561 1034.89 Q6.0561 1040.14 8.09312 1043.01 Q10.1301 1045.84 13.8859 1045.84 Q17.0369 1045.84 18.6602 1043.96 Q20.2516 1042.05 21.2383 1036.77 L22.034 1032.89 Q23.4026 1025.69 26.872 1022.29 Q30.3094 1018.85 36.1022 1018.85 Q43.009 1018.85 46.5738 1023.5 Q50.1386 1028.11 50.1386 1037.06 Q50.1386 1040.43 49.3747 1044.25 Q48.6108 1048.04 47.1149 1052.11 L40.4946 1052.11 Q42.6907 1048.2 43.8047 1044.44 Q44.9187 1040.68 44.9187 1037.06 Q44.9187 1031.55 42.7544 1028.56 Q40.5901 1025.57 36.5797 1025.57 Q33.0785 1025.57 31.1052 1027.73 Q29.1318 1029.86 28.1451 1034.76 L27.3812 1038.68 Q25.9489 1045.87 22.8934 1049.09 Q19.8378 1052.3 14.3952 1052.3 Q8.09312 1052.3 4.46467 1047.88 Q0.836216 1043.42 0.836216 1035.62 Q0.836216 1032.28 1.44096 1028.81 Q2.0457 1025.34 3.25518 1021.72 Z" fill="#000000" fill-rule="nonzero" fill-opacity="1" /><path clip-path="url(#clip120)" d="M3.44616 1003.29 L13.5676 1003.29 L13.5676 991.223 L18.1191 991.223 L18.1191 1003.29 L37.4709 1003.29 Q41.8314 1003.29 43.0727 1002.11 Q44.314 1000.9 44.314 997.239 L44.314 991.223 L49.2156 991.223 L49.2156 997.239 Q49.2156 1004.02 46.7011 1006.6 Q44.1548 1009.17 37.4709 1009.17 L18.1191 1009.17 L18.1191 1013.47 L13.5676 1013.47 L13.5676 1009.17 L3.44616 1009.17 L3.44616 1003.29 Z" fill="#000000" fill-rule="nonzero" fill-opacity="1" /><path clip-path="url(#clip120)" d="M31.2961 967.32 Q31.2961 974.418 32.9194 977.155 Q34.5426 979.892 38.4575 979.892 Q41.5767 979.892 43.4228 977.855 Q45.237 975.786 45.237 972.253 Q45.237 967.384 41.7995 964.455 Q38.3302 961.495 32.6011 961.495 L31.2961 961.495 L31.2961 967.32 M28.8772 955.639 L49.2156 955.639 L49.2156 961.495 L43.8047 961.495 Q47.0512 963.501 48.6108 966.493 Q50.1386 969.484 50.1386 973.813 Q50.1386 979.288 47.0831 982.534 Q43.9957 985.749 38.8395 985.749 Q32.8239 985.749 29.7684 981.738 Q26.7128 977.696 26.7128 969.707 L26.7128 961.495 L26.1399 961.495 Q22.0977 961.495 19.9015 964.169 Q17.6735 966.811 17.6735 971.617 Q17.6735 974.672 18.4056 977.569 Q19.1376 980.465 20.6017 983.139 L15.1909 983.139 Q13.9496 979.924 13.3448 976.9 Q12.7083 973.877 12.7083 971.012 Q12.7083 963.278 16.7187 959.458 Q20.729 955.639 28.8772 955.639 Z" fill="#000000" fill-rule="nonzero" fill-opacity="1" /><path clip-path="url(#clip120)" d="M31.4234 917.986 Q24.9622 917.986 21.302 920.659 Q17.6099 923.301 17.6099 927.948 Q17.6099 932.595 21.302 935.269 Q24.9622 937.911 31.4234 937.911 Q37.8846 937.911 41.5767 935.269 Q45.237 932.595 45.237 927.948 Q45.237 923.301 41.5767 920.659 Q37.8846 917.986 31.4234 917.986 M18.9785 937.911 Q15.7956 936.064 14.2679 933.264 Q12.7083 930.431 12.7083 926.516 Q12.7083 920.023 17.8645 915.981 Q23.0207 911.907 31.4234 911.907 Q39.8262 911.907 44.9824 915.981 Q50.1386 920.023 50.1386 926.516 Q50.1386 930.431 48.6108 933.264 Q47.0512 936.064 43.8684 937.911 L49.2156 937.911 L49.2156 943.799 L-0.309612 943.799 L-0.309612 937.911 L18.9785 937.911 Z" fill="#000000" fill-rule="nonzero" fill-opacity="1" /><path clip-path="url(#clip120)" d="M13.5676 902.199 L13.5676 896.342 L49.2156 896.342 L49.2156 902.199 L13.5676 902.199 M-0.309612 902.199 L-0.309612 896.342 L7.10644 896.342 L7.10644 902.199 L-0.309612 902.199 Z" fill="#000000" fill-rule="nonzero" fill-opacity="1" /><path clip-path="url(#clip120)" d="M-0.309612 884.088 L-0.309612 878.232 L49.2156 878.232 L49.2156 884.088 L-0.309612 884.088 Z" fill="#000000" fill-rule="nonzero" fill-opacity="1" /><path clip-path="url(#clip120)" d="M13.5676 865.978 L13.5676 860.122 L49.2156 860.122 L49.2156 865.978 L13.5676 865.978 M-0.309612 865.978 L-0.309612 860.122 L7.10644 860.122 L7.10644 865.978 L-0.309612 865.978 Z" fill="#000000" fill-rule="nonzero" fill-opacity="1" /><path clip-path="url(#clip120)" d="M3.44616 842.075 L13.5676 842.075 L13.5676 830.012 L18.1191 830.012 L18.1191 842.075 L37.4709 842.075 Q41.8314 842.075 43.0727 840.897 Q44.314 839.688 44.314 836.027 L44.314 830.012 L49.2156 830.012 L49.2156 836.027 Q49.2156 842.807 46.7011 845.385 Q44.1548 847.963 37.4709 847.963 L18.1191 847.963 L18.1191 852.26 L13.5676 852.26 L13.5676 847.963 L3.44616 847.963 L3.44616 842.075 Z" fill="#000000" fill-rule="nonzero" fill-opacity="1" /><path clip-path="url(#clip120)" d="M52.5258 807.477 Q58.8915 809.96 60.833 812.315 Q62.7745 814.67 62.7745 818.617 L62.7745 823.296 L57.8729 823.296 L57.8729 819.858 Q57.8729 817.44 56.7271 816.103 Q55.5813 814.766 51.3163 813.143 L48.6427 812.092 L13.5676 826.511 L13.5676 820.304 L41.4494 809.164 L13.5676 798.024 L13.5676 791.818 L52.5258 807.477 Z" fill="#000000" fill-rule="nonzero" fill-opacity="1" /><path clip-path="url(#clip120)" d="M1.69559 762.758 L1.69559 735.449 L7.10644 735.449 L7.10644 756.329 L21.111 756.329 L21.111 737.486 L26.5218 737.486 L26.5218 756.329 L49.2156 756.329 L49.2156 762.758 L1.69559 762.758 Z" fill="#000000" fill-rule="nonzero" fill-opacity="1" /><path clip-path="url(#clip120)" d="M35.1474 729.688 L13.5676 729.688 L13.5676 723.832 L34.9246 723.832 Q39.9853 723.832 42.5316 721.858 Q45.046 719.885 45.046 715.938 Q45.046 711.196 42.0223 708.459 Q38.9986 705.69 33.7787 705.69 L13.5676 705.69 L13.5676 699.833 L49.2156 699.833 L49.2156 705.69 L43.7411 705.69 Q46.9876 707.822 48.579 710.655 Q50.1386 713.456 50.1386 717.18 Q50.1386 723.323 46.3192 726.505 Q42.4998 729.688 35.1474 729.688 M12.7083 714.952 L12.7083 714.952 Z" fill="#000000" fill-rule="nonzero" fill-opacity="1" /><path clip-path="url(#clip120)" d="M27.6995 658.138 L49.2156 658.138 L49.2156 663.994 L27.8905 663.994 Q22.8297 663.994 20.3153 665.968 Q17.8008 667.941 17.8008 671.888 Q17.8008 676.63 20.8245 679.367 Q23.8482 682.105 29.0681 682.105 L49.2156 682.105 L49.2156 687.993 L13.5676 687.993 L13.5676 682.105 L19.1058 682.105 Q15.8911 680.004 14.2997 677.171 Q12.7083 674.307 12.7083 670.583 Q12.7083 664.44 16.5277 661.289 Q20.3153 658.138 27.6995 658.138 Z" fill="#000000" fill-rule="nonzero" fill-opacity="1" /><path clip-path="url(#clip120)" d="M14.9363 620.803 L20.4108 620.803 Q19.0421 623.285 18.3737 625.8 Q17.6735 628.283 17.6735 630.829 Q17.6735 636.526 21.302 639.677 Q24.8986 642.828 31.4234 642.828 Q37.9483 642.828 41.5767 639.677 Q45.1734 636.526 45.1734 630.829 Q45.1734 628.283 44.505 625.8 Q43.8047 623.285 42.4361 620.803 L47.847 620.803 Q48.9928 623.254 49.5657 625.895 Q50.1386 628.505 50.1386 631.465 Q50.1386 639.518 45.0779 644.26 Q40.0171 649.003 31.4234 649.003 Q22.7024 649.003 17.7053 644.229 Q12.7083 639.423 12.7083 631.083 Q12.7083 628.378 13.2812 625.8 Q13.8223 623.222 14.9363 620.803 Z" fill="#000000" fill-rule="nonzero" fill-opacity="1" /><path clip-path="url(#clip120)" d="M3.44616 604.825 L13.5676 604.825 L13.5676 592.762 L18.1191 592.762 L18.1191 604.825 L37.4709 604.825 Q41.8314 604.825 43.0727 603.647 Q44.314 602.438 44.314 598.777 L44.314 592.762 L49.2156 592.762 L49.2156 598.777 Q49.2156 605.557 46.7011 608.135 Q44.1548 610.713 37.4709 610.713 L18.1191 610.713 L18.1191 615.01 L13.5676 615.01 L13.5676 610.713 L3.44616 610.713 L3.44616 604.825 Z" fill="#000000" fill-rule="nonzero" fill-opacity="1" /><path clip-path="url(#clip120)" d="M13.5676 585.059 L13.5676 579.203 L49.2156 579.203 L49.2156 585.059 L13.5676 585.059 M-0.309612 585.059 L-0.309612 579.203 L7.10644 579.203 L7.10644 585.059 L-0.309612 585.059 Z" fill="#000000" fill-rule="nonzero" fill-opacity="1" /><path clip-path="url(#clip120)" d="M17.6735 553.135 Q17.6735 557.846 21.3656 560.583 Q25.0259 563.32 31.4234 563.32 Q37.821 563.32 41.5131 560.615 Q45.1734 557.878 45.1734 553.135 Q45.1734 548.457 41.4813 545.719 Q37.7891 542.982 31.4234 542.982 Q25.0896 542.982 21.3974 545.719 Q17.6735 548.457 17.6735 553.135 M12.7083 553.135 Q12.7083 545.497 17.6735 541.136 Q22.6388 536.775 31.4234 536.775 Q40.1763 536.775 45.1734 541.136 Q50.1386 545.497 50.1386 553.135 Q50.1386 560.806 45.1734 565.167 Q40.1763 569.495 31.4234 569.495 Q22.6388 569.495 17.6735 565.167 Q12.7083 560.806 12.7083 553.135 Z" fill="#000000" fill-rule="nonzero" fill-opacity="1" /><path clip-path="url(#clip120)" d="M27.6995 497.435 L49.2156 497.435 L49.2156 503.292 L27.8905 503.292 Q22.8297 503.292 20.3153 505.265 Q17.8008 507.239 17.8008 511.185 Q17.8008 515.928 20.8245 518.665 Q23.8482 521.402 29.0681 521.402 L49.2156 521.402 L49.2156 527.291 L13.5676 527.291 L13.5676 521.402 L19.1058 521.402 Q15.8911 519.302 14.2997 516.469 Q12.7083 513.604 12.7083 509.88 Q12.7083 503.737 16.5277 500.586 Q20.3153 497.435 27.6995 497.435 Z" fill="#000000" fill-rule="nonzero" fill-opacity="1" /><path clip-path="url(#clip120)" d="M566.204 14.0809 L566.204 22.0612 Q561.545 19.8332 557.413 18.7395 Q553.281 17.6457 549.433 17.6457 Q542.749 17.6457 539.103 20.2383 Q535.498 22.8309 535.498 27.611 Q535.498 31.6214 537.888 33.6873 Q540.318 35.7128 547.043 36.9686 L551.985 37.9813 Q561.14 39.7232 565.474 44.1387 Q569.849 48.5136 569.849 55.8863 Q569.849 64.6767 563.935 69.2137 Q558.061 73.7508 546.678 73.7508 Q542.384 73.7508 537.523 72.7785 Q532.703 71.8063 527.517 69.9024 L527.517 61.4765 Q532.5 64.2716 537.28 65.6895 Q542.06 67.1073 546.678 67.1073 Q553.686 67.1073 557.494 64.3527 Q561.302 61.598 561.302 56.4939 Q561.302 52.0379 558.547 49.5264 Q555.833 47.0148 549.595 45.759 L544.612 44.7868 Q535.457 42.9639 531.366 39.075 Q527.274 35.1862 527.274 28.2591 Q527.274 20.2383 532.905 15.6203 Q538.576 11.0023 548.501 11.0023 Q552.755 11.0023 557.17 11.7719 Q561.586 12.5416 566.204 14.0809 Z" fill="#000000" fill-rule="nonzero" fill-opacity="1" /><path clip-path="url(#clip120)" d="M581.516 54.671 L581.516 27.2059 L588.97 27.2059 L588.97 54.3874 Q588.97 60.8284 591.481 64.0691 Q593.993 67.2693 599.016 67.2693 Q605.052 67.2693 608.536 63.421 Q612.06 59.5726 612.06 52.9291 L612.06 27.2059 L619.513 27.2059 L619.513 72.576 L612.06 72.576 L612.06 65.6084 Q609.346 69.7404 605.74 71.7658 Q602.176 73.7508 597.436 73.7508 Q589.618 73.7508 585.567 68.8897 Q581.516 64.0286 581.516 54.671 M600.272 26.1121 L600.272 26.1121 Z" fill="#000000" fill-rule="nonzero" fill-opacity="1" /><path clip-path="url(#clip120)" d="M661.157 34.1734 Q659.901 33.4443 658.402 33.1202 Q656.944 32.7556 655.161 32.7556 Q648.842 32.7556 645.439 36.8875 Q642.077 40.9789 642.077 48.6757 L642.077 72.576 L634.583 72.576 L634.583 27.2059 L642.077 27.2059 L642.077 34.2544 Q644.427 30.1225 648.194 28.1376 Q651.961 26.1121 657.349 26.1121 Q658.119 26.1121 659.05 26.2337 Q659.982 26.3147 661.116 26.5172 L661.157 34.1734 Z" fill="#000000" fill-rule="nonzero" fill-opacity="1" /><path clip-path="url(#clip120)" d="M691.944 9.54393 L691.944 15.7418 L684.814 15.7418 Q680.804 15.7418 679.224 17.3622 Q677.684 18.9825 677.684 23.1955 L677.684 27.2059 L689.959 27.2059 L689.959 32.9987 L677.684 32.9987 L677.684 72.576 L670.19 72.576 L670.19 32.9987 L663.061 32.9987 L663.061 27.2059 L670.19 27.2059 L670.19 24.0462 Q670.19 16.471 673.715 13.0277 Q677.239 9.54393 684.895 9.54393 L691.944 9.54393 Z" fill="#000000" fill-rule="nonzero" fill-opacity="1" /><path clip-path="url(#clip120)" d="M718.801 49.7694 Q709.768 49.7694 706.284 51.8354 Q702.8 53.9013 702.8 58.8839 Q702.8 62.8538 705.393 65.2034 Q708.026 67.5124 712.522 67.5124 Q718.72 67.5124 722.447 63.1374 Q726.214 58.7219 726.214 51.4303 L726.214 49.7694 L718.801 49.7694 M733.668 46.6907 L733.668 72.576 L726.214 72.576 L726.214 65.6895 Q723.662 69.8214 719.854 71.8063 Q716.046 73.7508 710.537 73.7508 Q703.57 73.7508 699.438 69.8619 Q695.346 65.9325 695.346 59.3701 Q695.346 51.7138 700.451 47.825 Q705.595 43.9361 715.763 43.9361 L726.214 43.9361 L726.214 43.2069 Q726.214 38.0623 722.812 35.2672 Q719.449 32.4315 713.332 32.4315 Q709.444 32.4315 705.757 33.3632 Q702.071 34.295 698.668 36.1584 L698.668 29.2718 Q702.76 27.692 706.608 26.9223 Q710.456 26.1121 714.102 26.1121 Q723.946 26.1121 728.807 31.2163 Q733.668 36.3204 733.668 46.6907 Z" fill="#000000" fill-rule="nonzero" fill-opacity="1" /><path clip-path="url(#clip120)" d="M781.671 28.9478 L781.671 35.9153 Q778.511 34.1734 775.311 33.3227 Q772.152 32.4315 768.911 32.4315 Q761.66 32.4315 757.649 37.0496 Q753.639 41.6271 753.639 49.9314 Q753.639 58.2358 757.649 62.8538 Q761.66 67.4314 768.911 67.4314 Q772.152 67.4314 775.311 66.5807 Q778.511 65.6895 781.671 63.9476 L781.671 70.8341 Q778.552 72.2924 775.19 73.0216 Q771.868 73.7508 768.101 73.7508 Q757.852 73.7508 751.816 67.3098 Q745.78 60.8689 745.78 49.9314 Q745.78 38.832 751.856 32.472 Q757.973 26.1121 768.587 26.1121 Q772.03 26.1121 775.311 26.8413 Q778.592 27.5299 781.671 28.9478 Z" fill="#000000" fill-rule="nonzero" fill-opacity="1" /><path clip-path="url(#clip120)" d="M833.442 48.0275 L833.442 51.6733 L799.171 51.6733 Q799.657 59.3701 803.789 63.421 Q807.962 67.4314 815.375 67.4314 Q819.669 67.4314 823.679 66.3781 Q827.73 65.3249 831.7 63.2184 L831.7 70.267 Q827.689 71.9684 823.476 72.8596 Q819.264 73.7508 814.929 73.7508 Q804.073 73.7508 797.713 67.4314 Q791.393 61.1119 791.393 50.3365 Q791.393 39.1965 797.389 32.6746 Q803.425 26.1121 813.633 26.1121 Q822.788 26.1121 828.095 32.0264 Q833.442 37.9003 833.442 48.0275 M825.988 45.84 Q825.907 39.7232 822.545 36.0774 Q819.223 32.4315 813.714 32.4315 Q807.475 32.4315 803.708 35.9558 Q799.981 39.4801 799.414 45.8805 L825.988 45.84 Z" fill="#000000" fill-rule="nonzero" fill-opacity="1" /><path clip-path="url(#clip120)" d="M872.371 12.096 L880.554 12.096 L880.554 65.6895 L910.004 65.6895 L910.004 72.576 L872.371 72.576 L872.371 12.096 Z" fill="#000000" fill-rule="nonzero" fill-opacity="1" /><path clip-path="url(#clip120)" d="M938.887 49.7694 Q929.853 49.7694 926.369 51.8354 Q922.886 53.9013 922.886 58.8839 Q922.886 62.8538 925.478 65.2034 Q928.111 67.5124 932.608 67.5124 Q938.806 67.5124 942.533 63.1374 Q946.3 58.7219 946.3 51.4303 L946.3 49.7694 L938.887 49.7694 M953.754 46.6907 L953.754 72.576 L946.3 72.576 L946.3 65.6895 Q943.748 69.8214 939.94 71.8063 Q936.132 73.7508 930.623 73.7508 Q923.655 73.7508 919.523 69.8619 Q915.432 65.9325 915.432 59.3701 Q915.432 51.7138 920.536 47.825 Q925.681 43.9361 935.849 43.9361 L946.3 43.9361 L946.3 43.2069 Q946.3 38.0623 942.897 35.2672 Q939.535 32.4315 933.418 32.4315 Q929.529 32.4315 925.843 33.3632 Q922.157 34.295 918.754 36.1584 L918.754 29.2718 Q922.845 27.692 926.694 26.9223 Q930.542 26.1121 934.188 26.1121 Q944.031 26.1121 948.892 31.2163 Q953.754 36.3204 953.754 46.6907 Z" fill="#000000" fill-rule="nonzero" fill-opacity="1" /><path clip-path="url(#clip120)" d="M987.984 76.7889 Q984.824 84.8907 981.826 87.3618 Q978.829 89.8329 973.806 89.8329 L967.851 89.8329 L967.851 83.5945 L972.226 83.5945 Q975.304 83.5945 977.006 82.1361 Q978.707 80.6778 980.773 75.2496 L982.11 71.8468 L963.759 27.2059 L971.659 27.2059 L985.837 62.6918 L1000.01 27.2059 L1007.91 27.2059 L987.984 76.7889 Z" fill="#000000" fill-rule="nonzero" fill-opacity="1" /><path clip-path="url(#clip120)" d="M1057.01 48.0275 L1057.01 51.6733 L1022.74 51.6733 Q1023.23 59.3701 1027.36 63.421 Q1031.53 67.4314 1038.94 67.4314 Q1043.24 67.4314 1047.25 66.3781 Q1051.3 65.3249 1055.27 63.2184 L1055.27 70.267 Q1051.26 71.9684 1047.05 72.8596 Q1042.83 73.7508 1038.5 73.7508 Q1027.64 73.7508 1021.28 67.4314 Q1014.96 61.1119 1014.96 50.3365 Q1014.96 39.1965 1020.96 32.6746 Q1026.99 26.1121 1037.2 26.1121 Q1046.36 26.1121 1051.66 32.0264 Q1057.01 37.9003 1057.01 48.0275 M1049.56 45.84 Q1049.48 39.7232 1046.11 36.0774 Q1042.79 32.4315 1037.28 32.4315 Q1031.04 32.4315 1027.28 35.9558 Q1023.55 39.4801 1022.98 45.8805 L1049.56 45.84 Z" fill="#000000" fill-rule="nonzero" fill-opacity="1" /><path clip-path="url(#clip120)" d="M1095.54 34.1734 Q1094.28 33.4443 1092.78 33.1202 Q1091.32 32.7556 1089.54 32.7556 Q1083.22 32.7556 1079.82 36.8875 Q1076.46 40.9789 1076.46 48.6757 L1076.46 72.576 L1068.96 72.576 L1068.96 27.2059 L1076.46 27.2059 L1076.46 34.2544 Q1078.8 30.1225 1082.57 28.1376 Q1086.34 26.1121 1091.73 26.1121 Q1092.5 26.1121 1093.43 26.2337 Q1094.36 26.3147 1095.49 26.5172 L1095.54 34.1734 Z" fill="#000000" fill-rule="nonzero" fill-opacity="1" /><path clip-path="url(#clip120)" d="M1166.3 14.0809 L1166.3 22.0612 Q1161.65 19.8332 1157.51 18.7395 Q1153.38 17.6457 1149.53 17.6457 Q1142.85 17.6457 1139.2 20.2383 Q1135.6 22.8309 1135.6 27.611 Q1135.6 31.6214 1137.99 33.6873 Q1140.42 35.7128 1147.14 36.9686 L1152.09 37.9813 Q1161.24 39.7232 1165.58 44.1387 Q1169.95 48.5136 1169.95 55.8863 Q1169.95 64.6767 1164.04 69.2137 Q1158.16 73.7508 1146.78 73.7508 Q1142.49 73.7508 1137.62 72.7785 Q1132.8 71.8063 1127.62 69.9024 L1127.62 61.4765 Q1132.6 64.2716 1137.38 65.6895 Q1142.16 67.1073 1146.78 67.1073 Q1153.79 67.1073 1157.6 64.3527 Q1161.4 61.598 1161.4 56.4939 Q1161.4 52.0379 1158.65 49.5264 Q1155.93 47.0148 1149.7 45.759 L1144.71 44.7868 Q1135.56 42.9639 1131.47 39.075 Q1127.38 35.1862 1127.38 28.2591 Q1127.38 20.2383 1133.01 15.6203 Q1138.68 11.0023 1148.6 11.0023 Q1152.86 11.0023 1157.27 11.7719 Q1161.69 12.5416 1166.3 14.0809 Z" fill="#000000" fill-rule="nonzero" fill-opacity="1" /><path clip-path="url(#clip120)" d="M1189.76 14.324 L1189.76 27.2059 L1205.11 27.2059 L1205.11 32.9987 L1189.76 32.9987 L1189.76 57.6282 Q1189.76 63.1779 1191.26 64.7578 Q1192.8 66.3376 1197.46 66.3376 L1205.11 66.3376 L1205.11 72.576 L1197.46 72.576 Q1188.83 72.576 1185.55 69.3758 Q1182.27 66.1351 1182.27 57.6282 L1182.27 32.9987 L1176.8 32.9987 L1176.8 27.2059 L1182.27 27.2059 L1182.27 14.324 L1189.76 14.324 Z" fill="#000000" fill-rule="nonzero" fill-opacity="1" /><path clip-path="url(#clip120)" d="M1235.53 49.7694 Q1226.5 49.7694 1223.02 51.8354 Q1219.53 53.9013 1219.53 58.8839 Q1219.53 62.8538 1222.13 65.2034 Q1224.76 67.5124 1229.26 67.5124 Q1235.45 67.5124 1239.18 63.1374 Q1242.95 58.7219 1242.95 51.4303 L1242.95 49.7694 L1235.53 49.7694 M1250.4 46.6907 L1250.4 72.576 L1242.95 72.576 L1242.95 65.6895 Q1240.4 69.8214 1236.59 71.8063 Q1232.78 73.7508 1227.27 73.7508 Q1220.3 73.7508 1216.17 69.8619 Q1212.08 65.9325 1212.08 59.3701 Q1212.08 51.7138 1217.18 47.825 Q1222.33 43.9361 1232.5 43.9361 L1242.95 43.9361 L1242.95 43.2069 Q1242.95 38.0623 1239.54 35.2672 Q1236.18 32.4315 1230.07 32.4315 Q1226.18 32.4315 1222.49 33.3632 Q1218.8 34.295 1215.4 36.1584 L1215.4 29.2718 Q1219.49 27.692 1223.34 26.9223 Q1227.19 26.1121 1230.84 26.1121 Q1240.68 26.1121 1245.54 31.2163 Q1250.4 36.3204 1250.4 46.6907 Z" fill="#000000" fill-rule="nonzero" fill-opacity="1" /><path clip-path="url(#clip120)" d="M1298.32 49.9314 Q1298.32 41.7081 1294.92 37.0496 Q1291.56 32.3505 1285.64 32.3505 Q1279.73 32.3505 1276.33 37.0496 Q1272.96 41.7081 1272.96 49.9314 Q1272.96 58.1548 1276.33 62.8538 Q1279.73 67.5124 1285.64 67.5124 Q1291.56 67.5124 1294.92 62.8538 Q1298.32 58.1548 1298.32 49.9314 M1272.96 34.0924 Q1275.31 30.0415 1278.88 28.0971 Q1282.48 26.1121 1287.47 26.1121 Q1295.73 26.1121 1300.88 32.6746 Q1306.06 39.2371 1306.06 49.9314 Q1306.06 60.6258 1300.88 67.1883 Q1295.73 73.7508 1287.47 73.7508 Q1282.48 73.7508 1278.88 71.8063 Q1275.31 69.8214 1272.96 65.7705 L1272.96 72.576 L1265.47 72.576 L1265.47 9.54393 L1272.96 9.54393 L1272.96 34.0924 Z" fill="#000000" fill-rule="nonzero" fill-opacity="1" /><path clip-path="url(#clip120)" d="M1318.42 27.2059 L1325.87 27.2059 L1325.87 72.576 L1318.42 72.576 L1318.42 27.2059 M1318.42 9.54393 L1325.87 9.54393 L1325.87 18.9825 L1318.42 18.9825 L1318.42 9.54393 Z" fill="#000000" fill-rule="nonzero" fill-opacity="1" /><path clip-path="url(#clip120)" d="M1341.47 9.54393 L1348.92 9.54393 L1348.92 72.576 L1341.47 72.576 L1341.47 9.54393 Z" fill="#000000" fill-rule="nonzero" fill-opacity="1" /><path clip-path="url(#clip120)" d="M1364.52 27.2059 L1371.97 27.2059 L1371.97 72.576 L1364.52 72.576 L1364.52 27.2059 M1364.52 9.54393 L1371.97 9.54393 L1371.97 18.9825 L1364.52 18.9825 L1364.52 9.54393 Z" fill="#000000" fill-rule="nonzero" fill-opacity="1" /><path clip-path="url(#clip120)" d="M1394.94 14.324 L1394.94 27.2059 L1410.29 27.2059 L1410.29 32.9987 L1394.94 32.9987 L1394.94 57.6282 Q1394.94 63.1779 1396.44 64.7578 Q1397.98 66.3376 1402.63 66.3376 L1410.29 66.3376 L1410.29 72.576 L1402.63 72.576 Q1394.01 72.576 1390.72 69.3758 Q1387.44 66.1351 1387.44 57.6282 L1387.44 32.9987 L1381.97 32.9987 L1381.97 27.2059 L1387.44 27.2059 L1387.44 14.324 L1394.94 14.324 Z" fill="#000000" fill-rule="nonzero" fill-opacity="1" /><path clip-path="url(#clip120)" d="M1438.97 76.7889 Q1435.81 84.8907 1432.81 87.3618 Q1429.82 89.8329 1424.79 89.8329 L1418.84 89.8329 L1418.84 83.5945 L1423.21 83.5945 Q1426.29 83.5945 1427.99 82.1361 Q1429.69 80.6778 1431.76 75.2496 L1433.1 71.8468 L1414.75 27.2059 L1422.65 27.2059 L1436.82 62.6918 L1451 27.2059 L1458.9 27.2059 L1438.97 76.7889 Z" fill="#000000" fill-rule="nonzero" fill-opacity="1" /><path clip-path="url(#clip120)" d="M1495.89 12.096 L1530.64 12.096 L1530.64 18.9825 L1504.07 18.9825 L1504.07 36.8065 L1528.05 36.8065 L1528.05 43.6931 L1504.07 43.6931 L1504.07 72.576 L1495.89 72.576 L1495.89 12.096 Z" fill="#000000" fill-rule="nonzero" fill-opacity="1" /><path clip-path="url(#clip120)" d="M1537.97 54.671 L1537.97 27.2059 L1545.43 27.2059 L1545.43 54.3874 Q1545.43 60.8284 1547.94 64.0691 Q1550.45 67.2693 1555.47 67.2693 Q1561.51 67.2693 1564.99 63.421 Q1568.52 59.5726 1568.52 52.9291 L1568.52 27.2059 L1575.97 27.2059 L1575.97 72.576 L1568.52 72.576 L1568.52 65.6084 Q1565.8 69.7404 1562.2 71.7658 Q1558.63 73.7508 1553.9 73.7508 Q1546.08 73.7508 1542.03 68.8897 Q1537.97 64.0286 1537.97 54.671 M1556.73 26.1121 L1556.73 26.1121 Z" fill="#000000" fill-rule="nonzero" fill-opacity="1" /><path clip-path="url(#clip120)" d="M1629.04 45.1919 L1629.04 72.576 L1621.59 72.576 L1621.59 45.4349 Q1621.59 38.994 1619.07 35.7938 Q1616.56 32.5936 1611.54 32.5936 Q1605.5 32.5936 1602.02 36.4419 Q1598.54 40.2903 1598.54 46.9338 L1598.54 72.576 L1591.04 72.576 L1591.04 27.2059 L1598.54 27.2059 L1598.54 34.2544 Q1601.21 30.163 1604.81 28.1376 Q1608.46 26.1121 1613.2 26.1121 Q1621.02 26.1121 1625.03 30.9732 Q1629.04 35.7938 1629.04 45.1919 Z" fill="#000000" fill-rule="nonzero" fill-opacity="1" /><path clip-path="url(#clip120)" d="M1676.56 28.9478 L1676.56 35.9153 Q1673.4 34.1734 1670.2 33.3227 Q1667.04 32.4315 1663.8 32.4315 Q1656.54 32.4315 1652.53 37.0496 Q1648.52 41.6271 1648.52 49.9314 Q1648.52 58.2358 1652.53 62.8538 Q1656.54 67.4314 1663.8 67.4314 Q1667.04 67.4314 1670.2 66.5807 Q1673.4 65.6895 1676.56 63.9476 L1676.56 70.8341 Q1673.44 72.2924 1670.07 73.0216 Q1666.75 73.7508 1662.99 73.7508 Q1652.74 73.7508 1646.7 67.3098 Q1640.67 60.8689 1640.67 49.9314 Q1640.67 38.832 1646.74 32.472 Q1652.86 26.1121 1663.47 26.1121 Q1666.92 26.1121 1670.2 26.8413 Q1673.48 27.5299 1676.56 28.9478 Z" fill="#000000" fill-rule="nonzero" fill-opacity="1" /><path clip-path="url(#clip120)" d="M1696.89 14.324 L1696.89 27.2059 L1712.24 27.2059 L1712.24 32.9987 L1696.89 32.9987 L1696.89 57.6282 Q1696.89 63.1779 1698.39 64.7578 Q1699.93 66.3376 1704.59 66.3376 L1712.24 66.3376 L1712.24 72.576 L1704.59 72.576 Q1695.96 72.576 1692.68 69.3758 Q1689.4 66.1351 1689.4 57.6282 L1689.4 32.9987 L1683.93 32.9987 L1683.93 27.2059 L1689.4 27.2059 L1689.4 14.324 L1696.89 14.324 Z" fill="#000000" fill-rule="nonzero" fill-opacity="1" /><path clip-path="url(#clip120)" d="M1722.05 27.2059 L1729.5 27.2059 L1729.5 72.576 L1722.05 72.576 L1722.05 27.2059 M1722.05 9.54393 L1729.5 9.54393 L1729.5 18.9825 L1722.05 18.9825 L1722.05 9.54393 Z" fill="#000000" fill-rule="nonzero" fill-opacity="1" /><path clip-path="url(#clip120)" d="M1762.68 32.4315 Q1756.68 32.4315 1753.2 37.1306 Q1749.72 41.7891 1749.72 49.9314 Q1749.72 58.0738 1753.16 62.7728 Q1756.64 67.4314 1762.68 67.4314 Q1768.63 67.4314 1772.12 62.7323 Q1775.6 58.0333 1775.6 49.9314 Q1775.6 41.8701 1772.12 37.1711 Q1768.63 32.4315 1762.68 32.4315 M1762.68 26.1121 Q1772.4 26.1121 1777.95 32.4315 Q1783.5 38.7509 1783.5 49.9314 Q1783.5 61.0714 1777.95 67.4314 Q1772.4 73.7508 1762.68 73.7508 Q1752.92 73.7508 1747.37 67.4314 Q1741.86 61.0714 1741.86 49.9314 Q1741.86 38.7509 1747.37 32.4315 Q1752.92 26.1121 1762.68 26.1121 Z" fill="#000000" fill-rule="nonzero" fill-opacity="1" /><path clip-path="url(#clip120)" d="M1833.57 45.1919 L1833.57 72.576 L1826.12 72.576 L1826.12 45.4349 Q1826.12 38.994 1823.6 35.7938 Q1821.09 32.5936 1816.07 32.5936 Q1810.03 32.5936 1806.55 36.4419 Q1803.07 40.2903 1803.07 46.9338 L1803.07 72.576 L1795.57 72.576 L1795.57 27.2059 L1803.07 27.2059 L1803.07 34.2544 Q1805.74 30.163 1809.35 28.1376 Q1812.99 26.1121 1817.73 26.1121 Q1825.55 26.1121 1829.56 30.9732 Q1833.57 35.7938 1833.57 45.1919 Z" fill="#000000" fill-rule="nonzero" fill-opacity="1" /><path clip-path="url(#clip120)" d="M1877.36 28.5427 L1877.36 35.5912 Q1874.2 33.9709 1870.8 33.1607 Q1867.39 32.3505 1863.75 32.3505 Q1858.2 32.3505 1855.4 34.0519 Q1852.65 35.7533 1852.65 39.156 Q1852.65 41.7486 1854.63 43.2475 Q1856.62 44.7058 1862.61 46.0426 L1865.17 46.6097 Q1873.11 48.3111 1876.43 51.4303 Q1879.79 54.509 1879.79 60.0587 Q1879.79 66.3781 1874.77 70.0644 Q1869.78 73.7508 1861.03 73.7508 Q1857.39 73.7508 1853.42 73.0216 Q1849.49 72.3329 1845.11 70.9151 L1845.11 63.2184 Q1849.25 65.3654 1853.26 66.4591 Q1857.27 67.5124 1861.2 67.5124 Q1866.46 67.5124 1869.3 65.73 Q1872.13 63.9071 1872.13 60.6258 Q1872.13 57.5877 1870.07 55.9673 Q1868.04 54.3469 1861.12 52.8481 L1858.52 52.2405 Q1851.6 50.7821 1848.52 47.7845 Q1845.44 44.7463 1845.44 39.4801 Q1845.44 33.0797 1849.98 29.5959 Q1854.51 26.1121 1862.86 26.1121 Q1866.99 26.1121 1870.64 26.7198 Q1874.28 27.3274 1877.36 28.5427 Z" fill="#000000" fill-rule="nonzero" fill-opacity="1" /><path clip-path="url(#clip120)" d="M1935.94 9.62495 Q1930.51 18.942 1927.87 28.0566 Q1925.24 37.1711 1925.24 46.5287 Q1925.24 55.8863 1927.87 65.0818 Q1930.55 74.2369 1935.94 83.5134 L1929.45 83.5134 Q1923.38 73.9938 1920.34 64.7983 Q1917.34 55.6027 1917.34 46.5287 Q1917.34 37.4952 1920.34 28.3401 Q1923.34 19.1851 1929.45 9.62495 L1935.94 9.62495 Z" fill="#000000" fill-rule="nonzero" fill-opacity="1" /><path clip-path="url(#clip120)" d="M1950.72 12.096 L1988.96 12.096 L1988.96 18.9825 L1958.9 18.9825 L1958.9 36.8875 L1987.71 36.8875 L1987.71 43.7741 L1958.9 43.7741 L1958.9 65.6895 L1989.69 65.6895 L1989.69 72.576 L1950.72 72.576 L1950.72 12.096 Z" fill="#000000" fill-rule="nonzero" fill-opacity="1" /><path clip-path="url(#clip120)" d="M2007.27 49.9314 Q2007.27 58.1548 2010.63 62.8538 Q2014.04 67.5124 2019.95 67.5124 Q2025.87 67.5124 2029.27 62.8538 Q2032.67 58.1548 2032.67 49.9314 Q2032.67 41.7081 2029.27 37.0496 Q2025.87 32.3505 2019.95 32.3505 Q2014.04 32.3505 2010.63 37.0496 Q2007.27 41.7081 2007.27 49.9314 M2032.67 65.7705 Q2030.32 69.8214 2026.72 71.8063 Q2023.15 73.7508 2018.13 73.7508 Q2009.91 73.7508 2004.72 67.1883 Q1999.58 60.6258 1999.58 49.9314 Q1999.58 39.2371 2004.72 32.6746 Q2009.91 26.1121 2018.13 26.1121 Q2023.15 26.1121 2026.72 28.0971 Q2030.32 30.0415 2032.67 34.0924 L2032.67 27.2059 L2040.13 27.2059 L2040.13 89.8329 L2032.67 89.8329 L2032.67 65.7705 Z" fill="#000000" fill-rule="nonzero" fill-opacity="1" /><path clip-path="url(#clip120)" d="M2056.53 62.2867 L2065.08 62.2867 L2065.08 72.576 L2056.53 72.576 L2056.53 62.2867 Z" fill="#000000" fill-rule="nonzero" fill-opacity="1" /><path clip-path="url(#clip120)" d="M2116.32 65.6895 L2144.88 65.6895 L2144.88 72.576 L2106.48 72.576 L2106.48 65.6895 Q2111.14 60.8689 2119.16 52.7671 Q2127.22 44.6248 2129.29 42.2752 Q2133.21 37.8598 2134.75 34.8216 Q2136.33 31.7429 2136.33 28.7857 Q2136.33 23.9651 2132.93 20.927 Q2129.57 17.8888 2124.14 17.8888 Q2120.29 17.8888 2116 19.2256 Q2111.75 20.5624 2106.88 23.2765 L2106.88 15.0127 Q2111.83 13.0277 2116.12 12.015 Q2120.41 11.0023 2123.98 11.0023 Q2133.38 11.0023 2138.97 15.7013 Q2144.56 20.4004 2144.56 28.2591 Q2144.56 31.9859 2143.14 35.3482 Q2141.76 38.6699 2138.08 43.2069 Q2137.06 44.3817 2131.63 50.0125 Q2126.21 55.6027 2116.32 65.6895 Z" fill="#000000" fill-rule="nonzero" fill-opacity="1" /><path clip-path="url(#clip120)" d="M2162.06 62.2867 L2170.6 62.2867 L2170.6 72.576 L2162.06 72.576 L2162.06 62.2867 Z" fill="#000000" fill-rule="nonzero" fill-opacity="1" /><path clip-path="url(#clip120)" d="M2188.67 71.3202 L2188.67 63.8666 Q2191.75 65.3249 2194.91 66.0946 Q2198.07 66.8642 2201.11 66.8642 Q2209.21 66.8642 2213.46 61.436 Q2217.76 55.9673 2218.36 44.8678 Q2216.02 48.3516 2212.41 50.215 Q2208.8 52.0784 2204.43 52.0784 Q2195.36 52.0784 2190.05 46.6097 Q2184.78 41.1005 2184.78 31.5808 Q2184.78 22.2638 2190.29 16.633 Q2195.8 11.0023 2204.96 11.0023 Q2215.45 11.0023 2220.96 19.0636 Q2226.51 27.0843 2226.51 42.3968 Q2226.51 56.6965 2219.7 65.2439 Q2212.94 73.7508 2201.47 73.7508 Q2198.39 73.7508 2195.23 73.1431 Q2192.07 72.5355 2188.67 71.3202 M2204.96 45.678 Q2210.47 45.678 2213.67 41.9107 Q2216.91 38.1433 2216.91 31.5808 Q2216.91 25.0589 2213.67 21.2916 Q2210.47 17.4837 2204.96 17.4837 Q2199.45 17.4837 2196.21 21.2916 Q2193.01 25.0589 2193.01 31.5808 Q2193.01 38.1433 2196.21 41.9107 Q2199.45 45.678 2204.96 45.678 Z" fill="#000000" fill-rule="nonzero" fill-opacity="1" /><path clip-path="url(#clip120)" d="M2236.39 46.5287 L2258.23 46.5287 L2258.23 53.1722 L2236.39 53.1722 L2236.39 46.5287 Z" fill="#000000" fill-rule="nonzero" fill-opacity="1" /><path clip-path="url(#clip120)" d="M2278.2 65.6895 L2306.76 65.6895 L2306.76 72.576 L2268.35 72.576 L2268.35 65.6895 Q2273.01 60.8689 2281.03 52.7671 Q2289.09 44.6248 2291.16 42.2752 Q2295.09 37.8598 2296.63 34.8216 Q2298.21 31.7429 2298.21 28.7857 Q2298.21 23.9651 2294.81 20.927 Q2291.44 17.8888 2286.01 17.8888 Q2282.17 17.8888 2277.87 19.2256 Q2273.62 20.5624 2268.76 23.2765 L2268.76 15.0127 Q2273.7 13.0277 2277.99 12.015 Q2282.29 11.0023 2285.85 11.0023 Q2295.25 11.0023 2300.84 15.7013 Q2306.43 20.4004 2306.43 28.2591 Q2306.43 31.9859 2305.01 35.3482 Q2303.64 38.6699 2299.95 43.2069 Q2298.94 44.3817 2293.51 50.0125 Q2288.08 55.6027 2278.2 65.6895 Z" fill="#000000" fill-rule="nonzero" fill-opacity="1" /><path clip-path="url(#clip120)" d="M2323.93 62.2867 L2332.48 62.2867 L2332.48 72.576 L2323.93 72.576 L2323.93 62.2867 Z" fill="#000000" fill-rule="nonzero" fill-opacity="1" /><path clip-path="url(#clip120)" d="M2351.72 65.6895 L2365.09 65.6895 L2365.09 19.5497 L2350.55 22.4663 L2350.55 15.0127 L2365.01 12.096 L2373.19 12.096 L2373.19 65.6895 L2386.56 65.6895 L2386.56 72.576 L2351.72 72.576 L2351.72 65.6895 Z" fill="#000000" fill-rule="nonzero" fill-opacity="1" /><path clip-path="url(#clip120)" d="M2404.5 65.6895 L2417.87 65.6895 L2417.87 19.5497 L2403.33 22.4663 L2403.33 15.0127 L2417.79 12.096 L2425.97 12.096 L2425.97 65.6895 L2439.34 65.6895 L2439.34 72.576 L2404.5 72.576 L2404.5 65.6895 Z" fill="#000000" fill-rule="nonzero" fill-opacity="1" /><path clip-path="url(#clip120)" d="M2453.64 9.62495 L2460.12 9.62495 Q2466.2 19.1851 2469.2 28.3401 Q2472.24 37.4952 2472.24 46.5287 Q2472.24 55.6027 2469.2 64.7983 Q2466.2 73.9938 2460.12 83.5134 L2453.64 83.5134 Q2459.03 74.2369 2461.66 65.0818 Q2464.34 55.8863 2464.34 46.5287 Q2464.34 37.1711 2461.66 28.0566 Q2459.03 18.942 2453.64 9.62495 Z" fill="#000000" fill-rule="nonzero" fill-opacity="1" /><polyline clip-path="url(#clip121)" style="stroke:#009af9; stroke-linecap:round; stroke-linejoin:round; stroke-width:8; stroke-opacity:1; fill:none" points="317.678,349.802 380.749,363.51 443.604,377.482 506.243,391.741 568.667,406.309 630.878,421.211 692.876,436.479 754.664,452.147 816.241,468.255 877.609,484.852 938.769,501.995 999.722,519.755 1060.47,538.218 1121.01,557.495 1181.35,577.728 1241.49,599.111 1301.42,621.918 1361.15,646.562 1420.69,673.74 1480.02,704.857 1539.16,745.021 1598.1,802.185 1656.84,857.033 1715.39,909.121 1773.75,958.19 1831.91,1004.13 1889.88,1046.94 1947.66,1086.69 2005.25,1123.51 2062.65,1157.56 2119.86,1189 2176.89,1218.02 2233.72,1244.8 2290.38,1269.52 2346.85,1292.34 2403.13,1313.43 2459.23,1332.92 2515.15,1350.96 2570.89,1367.67 2626.45,1383.16 2681.83,1397.54 "/>
<polyline clip-path="url(#clip121)" style="stroke:#e26f46; stroke-linecap:round; stroke-linejoin:round; stroke-width:8; stroke-opacity:1; fill:none" stroke-dasharray="32, 20" points="317.678,152.193 380.749,172.754 443.604,193.713 506.243,215.101 568.667,236.953 630.878,259.307 692.876,282.208 754.664,305.71 816.241,329.872 877.609,354.767 938.769,380.482 999.722,407.122 1060.47,434.817 1121.01,463.732 1181.35,494.081 1241.49,526.156 1301.42,560.366 1361.15,597.333 1420.69,638.099 1480.02,684.776 1539.16,745.021 1598.1,802.185 1656.84,857.033 1715.39,909.121 1773.75,958.19 1831.91,1004.13 1889.88,1046.94 1947.66,1086.69 2005.25,1123.51 2062.65,1157.56 2119.86,1189 2176.89,1218.02 2233.72,1244.8 2290.38,1269.52 2346.85,1292.34 2403.13,1313.43 2459.23,1332.92 2515.15,1350.96 2570.89,1367.67 2626.45,1383.16 2681.83,1397.54 "/>
<path clip-path="url(#clip120)" d="M2038.74 314.355 L2669.22 314.355 L2669.22 158.835 L2038.74 158.835  Z" fill="#ffffff" fill-rule="evenodd" fill-opacity="1"/>
<polyline clip-path="url(#clip120)" style="stroke:#000000; stroke-linecap:round; stroke-linejoin:round; stroke-width:4; stroke-opacity:1; fill:none" points="2038.74,314.355 2669.22,314.355 2669.22,158.835 2038.74,158.835 2038.74,314.355 "/>
<polyline clip-path="url(#clip120)" style="stroke:#009af9; stroke-linecap:round; stroke-linejoin:round; stroke-width:8; stroke-opacity:1; fill:none" points="2066.58,210.675 2233.65,210.675 "/>
<path clip-path="url(#clip120)" d="M2278 191.936 L2278 195.478 L2273.93 195.478 Q2271.63 195.478 2270.73 196.404 Q2269.85 197.33 2269.85 199.737 L2269.85 202.029 L2276.87 202.029 L2276.87 205.339 L2269.85 205.339 L2269.85 227.955 L2265.57 227.955 L2265.57 205.339 L2261.5 205.339 L2261.5 202.029 L2265.57 202.029 L2265.57 200.223 Q2265.57 195.895 2267.58 193.927 Q2269.6 191.936 2273.97 191.936 L2278 191.936 Z" fill="#000000" fill-rule="nonzero" fill-opacity="1" /><path clip-path="url(#clip120)" d="M2281.75 193.395 L2288.72 193.395 L2297.54 216.913 L2306.4 193.395 L2313.37 193.395 L2313.37 227.955 L2308.81 227.955 L2308.81 197.608 L2299.9 221.311 L2295.2 221.311 L2286.29 197.608 L2286.29 227.955 L2281.75 227.955 L2281.75 193.395 Z" fill="#000000" fill-rule="nonzero" fill-opacity="1" /><path clip-path="url(#clip120)" d="M2347.77 191.983 Q2344.67 197.307 2343.16 202.515 Q2341.66 207.723 2341.66 213.07 Q2341.66 218.418 2343.16 223.672 Q2344.69 228.904 2347.77 234.205 L2344.06 234.205 Q2340.59 228.765 2338.86 223.51 Q2337.14 218.256 2337.14 213.07 Q2337.14 207.908 2338.86 202.677 Q2340.57 197.445 2344.06 191.983 L2347.77 191.983 Z" fill="#000000" fill-rule="nonzero" fill-opacity="1" /><path clip-path="url(#clip120)" d="M2376.22 207.006 Q2377.81 204.135 2380.04 202.77 Q2382.26 201.404 2385.27 201.404 Q2389.32 201.404 2391.52 204.251 Q2393.72 207.075 2393.72 212.307 L2393.72 227.955 L2389.43 227.955 L2389.43 212.445 Q2389.43 208.719 2388.12 206.913 Q2386.8 205.107 2384.09 205.107 Q2380.78 205.107 2378.86 207.307 Q2376.93 209.506 2376.93 213.302 L2376.93 227.955 L2372.65 227.955 L2372.65 212.445 Q2372.65 208.695 2371.33 206.913 Q2370.01 205.107 2367.26 205.107 Q2364 205.107 2362.07 207.33 Q2360.15 209.529 2360.15 213.302 L2360.15 227.955 L2355.87 227.955 L2355.87 202.029 L2360.15 202.029 L2360.15 206.057 Q2361.61 203.672 2363.65 202.538 Q2365.69 201.404 2368.49 201.404 Q2371.31 201.404 2373.28 202.839 Q2375.27 204.274 2376.22 207.006 Z" fill="#000000" fill-rule="nonzero" fill-opacity="1" /><path clip-path="url(#clip120)" d="M2412.26 205.015 Q2408.83 205.015 2406.84 207.7 Q2404.85 210.362 2404.85 215.015 Q2404.85 219.668 2406.82 222.353 Q2408.81 225.015 2412.26 225.015 Q2415.66 225.015 2417.65 222.33 Q2419.64 219.644 2419.64 215.015 Q2419.64 210.408 2417.65 207.723 Q2415.66 205.015 2412.26 205.015 M2412.26 201.404 Q2417.81 201.404 2420.99 205.015 Q2424.16 208.626 2424.16 215.015 Q2424.16 221.381 2420.99 225.015 Q2417.81 228.626 2412.26 228.626 Q2406.68 228.626 2403.51 225.015 Q2400.36 221.381 2400.36 215.015 Q2400.36 208.626 2403.51 205.015 Q2406.68 201.404 2412.26 201.404 Z" fill="#000000" fill-rule="nonzero" fill-opacity="1" /><path clip-path="url(#clip120)" d="M2451.4 207.006 Q2453 204.135 2455.22 202.77 Q2457.44 201.404 2460.45 201.404 Q2464.5 201.404 2466.7 204.251 Q2468.9 207.075 2468.9 212.307 L2468.9 227.955 L2464.62 227.955 L2464.62 212.445 Q2464.62 208.719 2463.3 206.913 Q2461.98 205.107 2459.27 205.107 Q2455.96 205.107 2454.04 207.307 Q2452.12 209.506 2452.12 213.302 L2452.12 227.955 L2447.84 227.955 L2447.84 212.445 Q2447.84 208.695 2446.52 206.913 Q2445.2 205.107 2442.44 205.107 Q2439.18 205.107 2437.26 207.33 Q2435.34 209.529 2435.34 213.302 L2435.34 227.955 L2431.06 227.955 L2431.06 202.029 L2435.34 202.029 L2435.34 206.057 Q2436.8 203.672 2438.83 202.538 Q2440.87 201.404 2443.67 201.404 Q2446.49 201.404 2448.46 202.839 Q2450.45 204.274 2451.4 207.006 Z" fill="#000000" fill-rule="nonzero" fill-opacity="1" /><path clip-path="url(#clip120)" d="M2499.57 213.927 L2499.57 216.01 L2479.99 216.01 Q2480.27 220.408 2482.63 222.723 Q2485.01 225.015 2489.25 225.015 Q2491.7 225.015 2493.99 224.413 Q2496.31 223.811 2498.58 222.607 L2498.58 226.635 Q2496.29 227.607 2493.88 228.117 Q2491.47 228.626 2488.99 228.626 Q2482.79 228.626 2479.16 225.015 Q2475.55 221.404 2475.55 215.246 Q2475.55 208.881 2478.97 205.154 Q2482.42 201.404 2488.25 201.404 Q2493.49 201.404 2496.52 204.783 Q2499.57 208.14 2499.57 213.927 M2495.31 212.677 Q2495.27 209.182 2493.35 207.098 Q2491.45 205.015 2488.3 205.015 Q2484.74 205.015 2482.58 207.029 Q2480.45 209.043 2480.13 212.7 L2495.31 212.677 Z" fill="#000000" fill-rule="nonzero" fill-opacity="1" /><path clip-path="url(#clip120)" d="M2528.11 212.307 L2528.11 227.955 L2523.86 227.955 L2523.86 212.445 Q2523.86 208.765 2522.42 206.936 Q2520.99 205.107 2518.11 205.107 Q2514.67 205.107 2512.68 207.307 Q2510.68 209.506 2510.68 213.302 L2510.68 227.955 L2506.4 227.955 L2506.4 202.029 L2510.68 202.029 L2510.68 206.057 Q2512.21 203.719 2514.27 202.561 Q2516.36 201.404 2519.06 201.404 Q2523.53 201.404 2525.82 204.182 Q2528.11 206.936 2528.11 212.307 Z" fill="#000000" fill-rule="nonzero" fill-opacity="1" /><path clip-path="url(#clip120)" d="M2540.82 194.668 L2540.82 202.029 L2549.6 202.029 L2549.6 205.339 L2540.82 205.339 L2540.82 219.413 Q2540.82 222.584 2541.68 223.487 Q2542.56 224.39 2545.22 224.39 L2549.6 224.39 L2549.6 227.955 L2545.22 227.955 Q2540.29 227.955 2538.42 226.126 Q2536.54 224.274 2536.54 219.413 L2536.54 205.339 L2533.42 205.339 L2533.42 202.029 L2536.54 202.029 L2536.54 194.668 L2540.82 194.668 Z" fill="#000000" fill-rule="nonzero" fill-opacity="1" /><path clip-path="url(#clip120)" d="M2554.76 217.723 L2554.76 202.029 L2559.02 202.029 L2559.02 217.561 Q2559.02 221.242 2560.45 223.093 Q2561.89 224.922 2564.76 224.922 Q2568.21 224.922 2570.2 222.723 Q2572.21 220.524 2572.21 216.728 L2572.21 202.029 L2576.47 202.029 L2576.47 227.955 L2572.21 227.955 L2572.21 223.973 Q2570.66 226.334 2568.6 227.492 Q2566.56 228.626 2563.86 228.626 Q2559.39 228.626 2557.07 225.848 Q2554.76 223.07 2554.76 217.723 M2565.48 201.404 L2565.48 201.404 Z" fill="#000000" fill-rule="nonzero" fill-opacity="1" /><path clip-path="url(#clip120)" d="M2605.43 207.006 Q2607.03 204.135 2609.25 202.77 Q2611.47 201.404 2614.48 201.404 Q2618.53 201.404 2620.73 204.251 Q2622.93 207.075 2622.93 212.307 L2622.93 227.955 L2618.65 227.955 L2618.65 212.445 Q2618.65 208.719 2617.33 206.913 Q2616.01 205.107 2613.3 205.107 Q2609.99 205.107 2608.07 207.307 Q2606.15 209.506 2606.15 213.302 L2606.15 227.955 L2601.86 227.955 L2601.86 212.445 Q2601.86 208.695 2600.54 206.913 Q2599.23 205.107 2596.47 205.107 Q2593.21 205.107 2591.29 207.33 Q2589.36 209.529 2589.36 213.302 L2589.36 227.955 L2585.08 227.955 L2585.08 202.029 L2589.36 202.029 L2589.36 206.057 Q2590.82 203.672 2592.86 202.538 Q2594.9 201.404 2597.7 201.404 Q2600.52 201.404 2602.49 202.839 Q2604.48 204.274 2605.43 207.006 Z" fill="#000000" fill-rule="nonzero" fill-opacity="1" /><path clip-path="url(#clip120)" d="M2630.75 191.983 L2634.46 191.983 Q2637.93 197.445 2639.64 202.677 Q2641.38 207.908 2641.38 213.07 Q2641.38 218.256 2639.64 223.51 Q2637.93 228.765 2634.46 234.205 L2630.75 234.205 Q2633.83 228.904 2635.34 223.672 Q2636.86 218.418 2636.86 213.07 Q2636.86 207.723 2635.34 202.515 Q2633.83 197.307 2630.75 191.983 Z" fill="#000000" fill-rule="nonzero" fill-opacity="1" /><polyline clip-path="url(#clip120)" style="stroke:#e26f46; stroke-linecap:round; stroke-linejoin:round; stroke-width:8; stroke-opacity:1; fill:none" stroke-dasharray="32, 20" points="2066.58,262.515 2233.65,262.515 "/>
<path clip-path="url(#clip120)" d="M2278 243.776 L2278 247.318 L2273.93 247.318 Q2271.63 247.318 2270.73 248.244 Q2269.85 249.17 2269.85 251.577 L2269.85 253.869 L2276.87 253.869 L2276.87 257.179 L2269.85 257.179 L2269.85 279.795 L2265.57 279.795 L2265.57 257.179 L2261.5 257.179 L2261.5 253.869 L2265.57 253.869 L2265.57 252.063 Q2265.57 247.735 2267.58 245.767 Q2269.6 243.776 2273.97 243.776 L2278 243.776 Z" fill="#000000" fill-rule="nonzero" fill-opacity="1" /><path clip-path="url(#clip120)" d="M2281.75 245.235 L2286.43 245.235 L2286.43 259.401 L2303.42 259.401 L2303.42 245.235 L2308.09 245.235 L2308.09 279.795 L2303.42 279.795 L2303.42 263.336 L2286.43 263.336 L2286.43 279.795 L2281.75 279.795 L2281.75 245.235 Z" fill="#000000" fill-rule="nonzero" fill-opacity="1" /><path clip-path="url(#clip120)" d="M2342.51 243.823 Q2339.41 249.147 2337.91 254.355 Q2336.4 259.563 2336.4 264.91 Q2336.4 270.258 2337.91 275.512 Q2339.44 280.744 2342.51 286.045 L2338.81 286.045 Q2335.34 280.605 2333.6 275.35 Q2331.89 270.096 2331.89 264.91 Q2331.89 259.748 2333.6 254.517 Q2335.31 249.285 2338.81 243.823 L2342.51 243.823 Z" fill="#000000" fill-rule="nonzero" fill-opacity="1" /><path clip-path="url(#clip120)" d="M2372.33 264.147 L2372.33 279.795 L2368.07 279.795 L2368.07 264.285 Q2368.07 260.605 2366.63 258.776 Q2365.2 256.947 2362.33 256.947 Q2358.88 256.947 2356.89 259.147 Q2354.9 261.346 2354.9 265.142 L2354.9 279.795 L2350.62 279.795 L2350.62 243.776 L2354.9 243.776 L2354.9 257.897 Q2356.43 255.559 2358.49 254.401 Q2360.57 253.244 2363.28 253.244 Q2367.75 253.244 2370.04 256.022 Q2372.33 258.776 2372.33 264.147 Z" fill="#000000" fill-rule="nonzero" fill-opacity="1" /><path clip-path="url(#clip120)" d="M2403 265.767 L2403 267.85 L2383.42 267.85 Q2383.69 272.248 2386.06 274.563 Q2388.44 276.855 2392.68 276.855 Q2395.13 276.855 2397.42 276.253 Q2399.74 275.651 2402 274.447 L2402 278.475 Q2399.71 279.447 2397.31 279.957 Q2394.9 280.466 2392.42 280.466 Q2386.22 280.466 2382.58 276.855 Q2378.97 273.244 2378.97 267.086 Q2378.97 260.721 2382.4 256.994 Q2385.85 253.244 2391.68 253.244 Q2396.91 253.244 2399.94 256.623 Q2403 259.98 2403 265.767 M2398.74 264.517 Q2398.69 261.022 2396.77 258.938 Q2394.87 256.855 2391.73 256.855 Q2388.16 256.855 2386.01 258.869 Q2383.88 260.883 2383.56 264.54 L2398.74 264.517 Z" fill="#000000" fill-rule="nonzero" fill-opacity="1" /><path clip-path="url(#clip120)" d="M2421.77 266.762 Q2416.61 266.762 2414.62 267.943 Q2412.63 269.123 2412.63 271.971 Q2412.63 274.239 2414.11 275.582 Q2415.62 276.901 2418.18 276.901 Q2421.73 276.901 2423.86 274.401 Q2426.01 271.878 2426.01 267.711 L2426.01 266.762 L2421.77 266.762 M2430.27 265.003 L2430.27 279.795 L2426.01 279.795 L2426.01 275.859 Q2424.55 278.221 2422.37 279.355 Q2420.2 280.466 2417.05 280.466 Q2413.07 280.466 2410.71 278.244 Q2408.37 275.998 2408.37 272.248 Q2408.37 267.873 2411.29 265.651 Q2414.23 263.429 2420.04 263.429 L2426.01 263.429 L2426.01 263.012 Q2426.01 260.072 2424.06 258.475 Q2422.14 256.855 2418.65 256.855 Q2416.43 256.855 2414.32 257.387 Q2412.21 257.92 2410.27 258.985 L2410.27 255.049 Q2412.61 254.147 2414.81 253.707 Q2417 253.244 2419.09 253.244 Q2424.71 253.244 2427.49 256.16 Q2430.27 259.077 2430.27 265.003 Z" fill="#000000" fill-rule="nonzero" fill-opacity="1" /><path clip-path="url(#clip120)" d="M2443.25 246.508 L2443.25 253.869 L2452.03 253.869 L2452.03 257.179 L2443.25 257.179 L2443.25 271.253 Q2443.25 274.424 2444.11 275.327 Q2444.99 276.23 2447.65 276.23 L2452.03 276.23 L2452.03 279.795 L2447.65 279.795 Q2442.72 279.795 2440.85 277.966 Q2438.97 276.114 2438.97 271.253 L2438.97 257.179 L2435.85 257.179 L2435.85 253.869 L2438.97 253.869 L2438.97 246.508 L2443.25 246.508 Z" fill="#000000" fill-rule="nonzero" fill-opacity="1" /><path clip-path="url(#clip120)" d="M2456.96 243.823 L2460.66 243.823 Q2464.13 249.285 2465.85 254.517 Q2467.58 259.748 2467.58 264.91 Q2467.58 270.096 2465.85 275.35 Q2464.13 280.605 2460.66 286.045 L2456.96 286.045 Q2460.04 280.744 2461.54 275.512 Q2463.07 270.258 2463.07 264.91 Q2463.07 259.563 2461.54 254.355 Q2460.04 249.147 2456.96 243.823 Z" fill="#000000" fill-rule="nonzero" fill-opacity="1" /></svg>
