<?xml version="1.0" encoding="utf-8"?>
<svg xmlns="http://www.w3.org/2000/svg" xmlns:xlink="http://www.w3.org/1999/xlink" width="600" height="400" viewBox="0 0 2400 1600">
<defs>
  <clipPath id="clip210">
    <rect x="0" y="0" width="2400" height="1600"/>
  </clipPath>
</defs>
<path clip-path="url(#clip210)" d="M0 1600 L2400 1600 L2400 0 L0 0  Z" fill="#ffffff" fill-rule="evenodd" fill-opacity="1"/>
<defs>
  <clipPath id="clip211">
    <rect x="219" y="123" width="2134" height="1301"/>
  </clipPath>
</defs>
<path clip-path="url(#clip210)" d="M219.38 1423.18 L2352.76 1423.18 L2352.76 123.472 L219.38 123.472  Z" fill="#ffffff" fill-rule="evenodd" fill-opacity="1"/>
<polyline clip-path="url(#clip211)" style="stroke:#000000; stroke-linecap:round; stroke-linejoin:round; stroke-width:2; stroke-opacity:0.1; fill:none" points="279.759,1423.18 279.759,123.472 "/>
<polyline clip-path="url(#clip211)" style="stroke:#000000; stroke-linecap:round; stroke-linejoin:round; stroke-width:2; stroke-opacity:0.1; fill:none" points="823.39,1423.18 823.39,123.472 "/>
<polyline clip-path="url(#clip211)" style="stroke:#000000; stroke-linecap:round; stroke-linejoin:round; stroke-width:2; stroke-opacity:0.1; fill:none" points="1367.02,1423.18 1367.02,123.472 "/>
<polyline clip-path="url(#clip211)" style="stroke:#000000; stroke-linecap:round; stroke-linejoin:round; stroke-width:2; stroke-opacity:0.1; fill:none" points="1910.65,1423.18 1910.65,123.472 "/>
<polyline clip-path="url(#clip211)" style="stroke:#000000; stroke-linecap:round; stroke-linejoin:round; stroke-width:2; stroke-opacity:0.1; fill:none" points="219.38,1394.62 2352.76,1394.62 "/>
<polyline clip-path="url(#clip211)" style="stroke:#000000; stroke-linecap:round; stroke-linejoin:round; stroke-width:2; stroke-opacity:0.1; fill:none" points="219.38,983.169 2352.76,983.169 "/>
<polyline clip-path="url(#clip211)" style="stroke:#000000; stroke-linecap:round; stroke-linejoin:round; stroke-width:2; stroke-opacity:0.1; fill:none" points="219.38,571.712 2352.76,571.712 "/>
<polyline clip-path="url(#clip211)" style="stroke:#000000; stroke-linecap:round; stroke-linejoin:round; stroke-width:2; stroke-opacity:0.1; fill:none" points="219.38,160.256 2352.76,160.256 "/>
<polyline clip-path="url(#clip210)" style="stroke:#000000; stroke-linecap:round; stroke-linejoin:round; stroke-width:4; stroke-opacity:1; fill:none" points="219.38,1423.18 2352.76,1423.18 "/>
<polyline clip-path="url(#clip210)" style="stroke:#000000; stroke-linecap:round; stroke-linejoin:round; stroke-width:4; stroke-opacity:1; fill:none" points="279.759,1423.18 279.759,1404.28 "/>
<polyline clip-path="url(#clip210)" style="stroke:#000000; stroke-linecap:round; stroke-linejoin:round; stroke-width:4; stroke-opacity:1; fill:none" points="823.39,1423.18 823.39,1404.28 "/>
<polyline clip-path="url(#clip210)" style="stroke:#000000; stroke-linecap:round; stroke-linejoin:round; stroke-width:4; stroke-opacity:1; fill:none" points="1367.02,1423.18 1367.02,1404.28 "/>
<polyline clip-path="url(#clip210)" style="stroke:#000000; stroke-linecap:round; stroke-linejoin:round; stroke-width:4; stroke-opacity:1; fill:none" points="1910.65,1423.18 1910.65,1404.28 "/>
<path clip-path="url(#clip210)" d="M279.759 1454.1 Q276.148 1454.1 274.319 1457.66 Q272.513 1461.2 272.513 1468.33 Q272.513 1475.44 274.319 1479.01 Q276.148 1482.55 279.759 1482.55 Q283.393 1482.55 285.199 1479.01 Q287.027 1475.44 287.027 1468.33 Q287.027 1461.2 285.199 1457.66 Q283.393 1454.1 279.759 1454.1 M279.759 1450.39 Q285.569 1450.39 288.624 1455 Q291.703 1459.58 291.703 1468.33 Q291.703 1477.06 288.624 1481.67 Q285.569 1486.25 279.759 1486.25 Q273.949 1486.25 270.87 1481.67 Q267.814 1477.06 267.814 1468.33 Q267.814 1459.58 270.87 1455 Q273.949 1450.39 279.759 1450.39 Z" fill="#000000" fill-rule="nonzero" fill-opacity="1" /><path clip-path="url(#clip210)" d="M798.089 1451.02 L816.446 1451.02 L816.446 1454.96 L802.372 1454.96 L802.372 1463.43 Q803.39 1463.08 804.409 1462.92 Q805.427 1462.73 806.446 1462.73 Q812.233 1462.73 815.612 1465.9 Q818.992 1469.08 818.992 1474.49 Q818.992 1480.07 815.52 1483.17 Q812.048 1486.25 805.728 1486.25 Q803.552 1486.25 801.284 1485.88 Q799.038 1485.51 796.631 1484.77 L796.631 1480.07 Q798.714 1481.2 800.937 1481.76 Q803.159 1482.32 805.636 1482.32 Q809.64 1482.32 811.978 1480.21 Q814.316 1478.1 814.316 1474.49 Q814.316 1470.88 811.978 1468.77 Q809.64 1466.67 805.636 1466.67 Q803.761 1466.67 801.886 1467.08 Q800.034 1467.5 798.089 1468.38 L798.089 1451.02 Z" fill="#000000" fill-rule="nonzero" fill-opacity="1" /><path clip-path="url(#clip210)" d="M838.205 1454.1 Q834.594 1454.1 832.765 1457.66 Q830.96 1461.2 830.96 1468.33 Q830.96 1475.44 832.765 1479.01 Q834.594 1482.55 838.205 1482.55 Q841.839 1482.55 843.645 1479.01 Q845.473 1475.44 845.473 1468.33 Q845.473 1461.2 843.645 1457.66 Q841.839 1454.1 838.205 1454.1 M838.205 1450.39 Q844.015 1450.39 847.071 1455 Q850.149 1459.58 850.149 1468.33 Q850.149 1477.06 847.071 1481.67 Q844.015 1486.25 838.205 1486.25 Q832.395 1486.25 829.316 1481.67 Q826.26 1477.06 826.26 1468.33 Q826.26 1459.58 829.316 1455 Q832.395 1450.39 838.205 1450.39 Z" fill="#000000" fill-rule="nonzero" fill-opacity="1" /><path clip-path="url(#clip210)" d="M1326.63 1481.64 L1334.27 1481.64 L1334.27 1455.28 L1325.96 1456.95 L1325.96 1452.69 L1334.22 1451.02 L1338.9 1451.02 L1338.9 1481.64 L1346.54 1481.64 L1346.54 1485.58 L1326.63 1485.58 L1326.63 1481.64 Z" fill="#000000" fill-rule="nonzero" fill-opacity="1" /><path clip-path="url(#clip210)" d="M1365.98 1454.1 Q1362.37 1454.1 1360.54 1457.66 Q1358.73 1461.2 1358.73 1468.33 Q1358.73 1475.44 1360.54 1479.01 Q1362.37 1482.55 1365.98 1482.55 Q1369.61 1482.55 1371.42 1479.01 Q1373.25 1475.44 1373.25 1468.33 Q1373.25 1461.2 1371.42 1457.66 Q1369.61 1454.1 1365.98 1454.1 M1365.98 1450.39 Q1371.79 1450.39 1374.85 1455 Q1377.92 1459.58 1377.92 1468.33 Q1377.92 1477.06 1374.85 1481.67 Q1371.79 1486.25 1365.98 1486.25 Q1360.17 1486.25 1357.09 1481.67 Q1354.04 1477.06 1354.04 1468.33 Q1354.04 1459.58 1357.09 1455 Q1360.17 1450.39 1365.98 1450.39 Z" fill="#000000" fill-rule="nonzero" fill-opacity="1" /><path clip-path="url(#clip210)" d="M1396.14 1454.1 Q1392.53 1454.1 1390.7 1457.66 Q1388.9 1461.2 1388.9 1468.33 Q1388.9 1475.44 1390.7 1479.01 Q1392.53 1482.55 1396.14 1482.55 Q1399.78 1482.55 1401.58 1479.01 Q1403.41 1475.44 1403.41 1468.33 Q1403.41 1461.2 1401.58 1457.66 Q1399.78 1454.1 1396.14 1454.1 M1396.14 1450.39 Q1401.95 1450.39 1405.01 1455 Q1408.09 1459.58 1408.09 1468.33 Q1408.09 1477.06 1405.01 1481.67 Q1401.95 1486.25 1396.14 1486.25 Q1390.33 1486.25 1387.25 1481.67 Q1384.2 1477.06 1384.2 1468.33 Q1384.2 1459.58 1387.25 1455 Q1390.33 1450.39 1396.14 1450.39 Z" fill="#000000" fill-rule="nonzero" fill-opacity="1" /><path clip-path="url(#clip210)" d="M1870.26 1481.64 L1877.9 1481.64 L1877.9 1455.28 L1869.59 1456.95 L1869.59 1452.69 L1877.85 1451.02 L1882.53 1451.02 L1882.53 1481.64 L1890.17 1481.64 L1890.17 1485.58 L1870.26 1485.58 L1870.26 1481.64 Z" fill="#000000" fill-rule="nonzero" fill-opacity="1" /><path clip-path="url(#clip210)" d="M1899.66 1451.02 L1918.01 1451.02 L1918.01 1454.96 L1903.94 1454.96 L1903.94 1463.43 Q1904.96 1463.08 1905.98 1462.92 Q1907 1462.73 1908.01 1462.73 Q1913.8 1462.73 1917.18 1465.9 Q1920.56 1469.08 1920.56 1474.49 Q1920.56 1480.07 1917.09 1483.17 Q1913.62 1486.25 1907.3 1486.25 Q1905.12 1486.25 1902.85 1485.88 Q1900.61 1485.51 1898.2 1484.77 L1898.2 1480.07 Q1900.28 1481.2 1902.5 1481.76 Q1904.73 1482.32 1907.2 1482.32 Q1911.21 1482.32 1913.55 1480.21 Q1915.88 1478.1 1915.88 1474.49 Q1915.88 1470.88 1913.55 1468.77 Q1911.21 1466.67 1907.2 1466.67 Q1905.33 1466.67 1903.45 1467.08 Q1901.6 1467.5 1899.66 1468.38 L1899.66 1451.02 Z" fill="#000000" fill-rule="nonzero" fill-opacity="1" /><path clip-path="url(#clip210)" d="M1939.77 1454.1 Q1936.16 1454.1 1934.33 1457.66 Q1932.53 1461.2 1932.53 1468.33 Q1932.53 1475.44 1934.33 1479.01 Q1936.16 1482.55 1939.77 1482.55 Q1943.41 1482.55 1945.21 1479.01 Q1947.04 1475.44 1947.04 1468.33 Q1947.04 1461.2 1945.21 1457.66 Q1943.41 1454.1 1939.77 1454.1 M1939.77 1450.39 Q1945.58 1450.39 1948.64 1455 Q1951.72 1459.58 1951.72 1468.33 Q1951.72 1477.06 1948.64 1481.67 Q1945.58 1486.25 1939.77 1486.25 Q1933.96 1486.25 1930.88 1481.67 Q1927.83 1477.06 1927.83 1468.33 Q1927.83 1459.58 1930.88 1455 Q1933.96 1450.39 1939.77 1450.39 Z" fill="#000000" fill-rule="nonzero" fill-opacity="1" /><path clip-path="url(#clip210)" d="M1111.62 1520.52 L1118.05 1520.52 L1118.05 1540.61 L1139.37 1520.52 L1147.65 1520.52 L1124.06 1542.68 L1149.33 1568.04 L1140.87 1568.04 L1118.05 1545.16 L1118.05 1568.04 L1111.62 1568.04 L1111.62 1520.52 Z" fill="#000000" fill-rule="nonzero" fill-opacity="1" /><path clip-path="url(#clip210)" d="M1181.19 1578.87 L1181.19 1583.42 L1147.33 1583.42 L1147.33 1578.87 L1181.19 1578.87 Z" fill="#000000" fill-rule="nonzero" fill-opacity="1" /><path clip-path="url(#clip210)" d="M1184.15 1532.4 L1211.97 1532.4 L1211.97 1537.74 L1189.95 1563.37 L1211.97 1563.37 L1211.97 1568.04 L1183.36 1568.04 L1183.36 1562.7 L1205.38 1537.07 L1184.15 1537.07 L1184.15 1532.4 Z" fill="#000000" fill-rule="nonzero" fill-opacity="1" /><path clip-path="url(#clip210)" d="M1218.37 1532.4 L1246.19 1532.4 L1246.19 1537.74 L1224.16 1563.37 L1246.19 1563.37 L1246.19 1568.04 L1217.57 1568.04 L1217.57 1562.7 L1239.6 1537.07 L1218.37 1537.07 L1218.37 1532.4 Z" fill="#000000" fill-rule="nonzero" fill-opacity="1" /><path clip-path="url(#clip210)" d="M1289.92 1518.58 Q1285.65 1525.9 1283.59 1533.06 Q1281.52 1540.23 1281.52 1547.58 Q1281.52 1554.93 1283.59 1562.16 Q1285.69 1569.35 1289.92 1576.64 L1284.83 1576.64 Q1280.05 1569.16 1277.67 1561.93 Q1275.31 1554.71 1275.31 1547.58 Q1275.31 1540.48 1277.67 1533.29 Q1280.02 1526.09 1284.83 1518.58 L1289.92 1518.58 Z" fill="#000000" fill-rule="nonzero" fill-opacity="1" /><path clip-path="url(#clip210)" d="M1329.04 1539.24 Q1331.23 1535.29 1334.29 1533.41 Q1337.34 1531.54 1341.48 1531.54 Q1347.05 1531.54 1350.08 1535.45 Q1353.1 1539.33 1353.1 1546.53 L1353.1 1568.04 L1347.21 1568.04 L1347.21 1546.72 Q1347.21 1541.59 1345.4 1539.11 Q1343.58 1536.63 1339.86 1536.63 Q1335.31 1536.63 1332.67 1539.65 Q1330.02 1542.68 1330.02 1547.9 L1330.02 1568.04 L1324.13 1568.04 L1324.13 1546.72 Q1324.13 1541.56 1322.32 1539.11 Q1320.51 1536.63 1316.72 1536.63 Q1312.23 1536.63 1309.59 1539.68 Q1306.95 1542.71 1306.95 1547.9 L1306.95 1568.04 L1301.06 1568.04 L1301.06 1532.4 L1306.95 1532.4 L1306.95 1537.93 Q1308.95 1534.66 1311.75 1533.1 Q1314.55 1531.54 1318.41 1531.54 Q1322.29 1531.54 1324.99 1533.51 Q1327.73 1535.48 1329.04 1539.24 Z" fill="#000000" fill-rule="nonzero" fill-opacity="1" /><path clip-path="url(#clip210)" d="M1367.17 1543.15 L1380.66 1543.15 L1380.66 1546.78 L1361.63 1546.78 L1361.63 1543.28 Q1362.71 1542.29 1364.72 1540.51 Q1375.67 1530.8 1375.67 1527.81 Q1375.67 1525.71 1374.01 1524.44 Q1372.36 1523.13 1369.65 1523.13 Q1367.99 1523.13 1366.05 1523.71 Q1364.11 1524.25 1361.82 1525.36 L1361.82 1521.45 Q1364.27 1520.56 1366.37 1520.11 Q1368.5 1519.66 1370.32 1519.66 Q1374.93 1519.66 1377.7 1521.77 Q1380.47 1523.87 1380.47 1527.3 Q1380.47 1531.73 1369.94 1540.77 Q1368.15 1542.29 1367.17 1543.15 Z" fill="#000000" fill-rule="nonzero" fill-opacity="1" /><path clip-path="url(#clip210)" d="M1401.32 1520.52 L1406.73 1520.52 L1390.18 1574.09 L1384.77 1574.09 L1401.32 1520.52 Z" fill="#000000" fill-rule="nonzero" fill-opacity="1" /><path clip-path="url(#clip210)" d="M1435.6 1533.45 L1435.6 1538.98 Q1433.12 1537.71 1430.44 1537.07 Q1427.77 1536.44 1424.9 1536.44 Q1420.54 1536.44 1418.35 1537.77 Q1416.18 1539.11 1416.18 1541.79 Q1416.18 1543.82 1417.74 1545 Q1419.3 1546.15 1424.01 1547.2 L1426.02 1547.64 Q1432.26 1548.98 1434.87 1551.43 Q1437.51 1553.85 1437.51 1558.21 Q1437.51 1563.17 1433.56 1566.07 Q1429.65 1568.97 1422.77 1568.97 Q1419.91 1568.97 1416.79 1568.39 Q1413.7 1567.85 1410.26 1566.74 L1410.26 1560.69 Q1413.51 1562.38 1416.66 1563.24 Q1419.81 1564.07 1422.9 1564.07 Q1427.04 1564.07 1429.26 1562.66 Q1431.49 1561.23 1431.49 1558.65 Q1431.49 1556.27 1429.87 1554.99 Q1428.28 1553.72 1422.84 1552.54 L1420.8 1552.07 Q1415.36 1550.92 1412.94 1548.56 Q1410.52 1546.18 1410.52 1542.04 Q1410.52 1537.01 1414.08 1534.27 Q1417.65 1531.54 1424.2 1531.54 Q1427.45 1531.54 1430.31 1532.01 Q1433.18 1532.49 1435.6 1533.45 Z" fill="#000000" fill-rule="nonzero" fill-opacity="1" /><path clip-path="url(#clip210)" d="M1445.91 1518.58 L1451 1518.58 Q1455.78 1526.09 1458.13 1533.29 Q1460.52 1540.48 1460.52 1547.58 Q1460.52 1554.71 1458.13 1561.93 Q1455.78 1569.16 1451 1576.64 L1445.91 1576.64 Q1450.14 1569.35 1452.21 1562.16 Q1454.31 1554.93 1454.31 1547.58 Q1454.31 1540.23 1452.21 1533.06 Q1450.14 1525.9 1445.91 1518.58 Z" fill="#000000" fill-rule="nonzero" fill-opacity="1" /><polyline clip-path="url(#clip210)" style="stroke:#000000; stroke-linecap:round; stroke-linejoin:round; stroke-width:4; stroke-opacity:1; fill:none" points="219.38,1423.18 219.38,123.472 "/>
<polyline clip-path="url(#clip210)" style="stroke:#000000; stroke-linecap:round; stroke-linejoin:round; stroke-width:4; stroke-opacity:1; fill:none" points="219.38,1394.62 238.278,1394.62 "/>
<polyline clip-path="url(#clip210)" style="stroke:#000000; stroke-linecap:round; stroke-linejoin:round; stroke-width:4; stroke-opacity:1; fill:none" points="219.38,983.169 238.278,983.169 "/>
<polyline clip-path="url(#clip210)" style="stroke:#000000; stroke-linecap:round; stroke-linejoin:round; stroke-width:4; stroke-opacity:1; fill:none" points="219.38,571.712 238.278,571.712 "/>
<polyline clip-path="url(#clip210)" style="stroke:#000000; stroke-linecap:round; stroke-linejoin:round; stroke-width:4; stroke-opacity:1; fill:none" points="219.38,160.256 238.278,160.256 "/>
<path clip-path="url(#clip210)" d="M126.205 1380.42 Q122.593 1380.42 120.765 1383.99 Q118.959 1387.53 118.959 1394.66 Q118.959 1401.77 120.765 1405.33 Q122.593 1408.87 126.205 1408.87 Q129.839 1408.87 131.644 1405.33 Q133.473 1401.77 133.473 1394.66 Q133.473 1387.53 131.644 1383.99 Q129.839 1380.42 126.205 1380.42 M126.205 1376.72 Q132.015 1376.72 135.07 1381.33 Q138.149 1385.91 138.149 1394.66 Q138.149 1403.39 135.07 1407.99 Q132.015 1412.58 126.205 1412.58 Q120.394 1412.58 117.316 1407.99 Q114.26 1403.39 114.26 1394.66 Q114.26 1385.91 117.316 1381.33 Q120.394 1376.72 126.205 1376.72 Z" fill="#000000" fill-rule="nonzero" fill-opacity="1" /><path clip-path="url(#clip210)" d="M146.366 1406.03 L151.251 1406.03 L151.251 1411.9 L146.366 1411.9 L146.366 1406.03 Z" fill="#000000" fill-rule="nonzero" fill-opacity="1" /><path clip-path="url(#clip210)" d="M171.436 1380.42 Q167.825 1380.42 165.996 1383.99 Q164.19 1387.53 164.19 1394.66 Q164.19 1401.77 165.996 1405.33 Q167.825 1408.87 171.436 1408.87 Q175.07 1408.87 176.876 1405.33 Q178.704 1401.77 178.704 1394.66 Q178.704 1387.53 176.876 1383.99 Q175.07 1380.42 171.436 1380.42 M171.436 1376.72 Q177.246 1376.72 180.301 1381.33 Q183.38 1385.91 183.38 1394.66 Q183.38 1403.39 180.301 1407.99 Q177.246 1412.58 171.436 1412.58 Q165.626 1412.58 162.547 1407.99 Q159.491 1403.39 159.491 1394.66 Q159.491 1385.91 162.547 1381.33 Q165.626 1376.72 171.436 1376.72 Z" fill="#000000" fill-rule="nonzero" fill-opacity="1" /><path clip-path="url(#clip210)" d="M127.2 968.967 Q123.589 968.967 121.76 972.532 Q119.955 976.074 119.955 983.203 Q119.955 990.31 121.76 993.875 Q123.589 997.416 127.2 997.416 Q130.834 997.416 132.64 993.875 Q134.468 990.31 134.468 983.203 Q134.468 976.074 132.64 972.532 Q130.834 968.967 127.2 968.967 M127.2 965.264 Q133.01 965.264 136.066 969.87 Q139.144 974.453 139.144 983.203 Q139.144 991.93 136.066 996.537 Q133.01 1001.12 127.2 1001.12 Q121.39 1001.12 118.311 996.537 Q115.256 991.93 115.256 983.203 Q115.256 974.453 118.311 969.87 Q121.39 965.264 127.2 965.264 Z" fill="#000000" fill-rule="nonzero" fill-opacity="1" /><path clip-path="url(#clip210)" d="M147.362 994.569 L152.246 994.569 L152.246 1000.45 L147.362 1000.45 L147.362 994.569 Z" fill="#000000" fill-rule="nonzero" fill-opacity="1" /><path clip-path="url(#clip210)" d="M162.477 965.889 L180.834 965.889 L180.834 969.824 L166.76 969.824 L166.76 978.296 Q167.778 977.949 168.797 977.787 Q169.815 977.602 170.834 977.602 Q176.621 977.602 180.001 980.773 Q183.38 983.944 183.38 989.361 Q183.38 994.939 179.908 998.041 Q176.436 1001.12 170.116 1001.12 Q167.94 1001.12 165.672 1000.75 Q163.427 1000.38 161.019 999.638 L161.019 994.939 Q163.102 996.074 165.325 996.629 Q167.547 997.185 170.024 997.185 Q174.028 997.185 176.366 995.078 Q178.704 992.972 178.704 989.361 Q178.704 985.75 176.366 983.643 Q174.028 981.537 170.024 981.537 Q168.149 981.537 166.274 981.953 Q164.422 982.37 162.477 983.25 L162.477 965.889 Z" fill="#000000" fill-rule="nonzero" fill-opacity="1" /><path clip-path="url(#clip210)" d="M117.015 585.057 L124.654 585.057 L124.654 558.692 L116.343 560.358 L116.343 556.099 L124.607 554.432 L129.283 554.432 L129.283 585.057 L136.922 585.057 L136.922 588.992 L117.015 588.992 L117.015 585.057 Z" fill="#000000" fill-rule="nonzero" fill-opacity="1" /><path clip-path="url(#clip210)" d="M146.366 583.113 L151.251 583.113 L151.251 588.992 L146.366 588.992 L146.366 583.113 Z" fill="#000000" fill-rule="nonzero" fill-opacity="1" /><path clip-path="url(#clip210)" d="M171.436 557.511 Q167.825 557.511 165.996 561.076 Q164.19 564.618 164.19 571.747 Q164.19 578.854 165.996 582.418 Q167.825 585.96 171.436 585.96 Q175.07 585.96 176.876 582.418 Q178.704 578.854 178.704 571.747 Q178.704 564.618 176.876 561.076 Q175.07 557.511 171.436 557.511 M171.436 553.807 Q177.246 553.807 180.301 558.414 Q183.38 562.997 183.38 571.747 Q183.38 580.474 180.301 585.08 Q177.246 589.664 171.436 589.664 Q165.626 589.664 162.547 585.08 Q159.491 580.474 159.491 571.747 Q159.491 562.997 162.547 558.414 Q165.626 553.807 171.436 553.807 Z" fill="#000000" fill-rule="nonzero" fill-opacity="1" /><path clip-path="url(#clip210)" d="M118.01 173.601 L125.649 173.601 L125.649 147.236 L117.339 148.902 L117.339 144.643 L125.603 142.976 L130.279 142.976 L130.279 173.601 L137.917 173.601 L137.917 177.536 L118.01 177.536 L118.01 173.601 Z" fill="#000000" fill-rule="nonzero" fill-opacity="1" /><path clip-path="url(#clip210)" d="M147.362 171.657 L152.246 171.657 L152.246 177.536 L147.362 177.536 L147.362 171.657 Z" fill="#000000" fill-rule="nonzero" fill-opacity="1" /><path clip-path="url(#clip210)" d="M162.477 142.976 L180.834 142.976 L180.834 146.911 L166.76 146.911 L166.76 155.384 Q167.778 155.036 168.797 154.874 Q169.815 154.689 170.834 154.689 Q176.621 154.689 180.001 157.86 Q183.38 161.032 183.38 166.448 Q183.38 172.027 179.908 175.129 Q176.436 178.208 170.116 178.208 Q167.94 178.208 165.672 177.837 Q163.427 177.467 161.019 176.726 L161.019 172.027 Q163.102 173.161 165.325 173.717 Q167.547 174.272 170.024 174.272 Q174.028 174.272 176.366 172.166 Q178.704 170.059 178.704 166.448 Q178.704 162.837 176.366 160.731 Q174.028 158.624 170.024 158.624 Q168.149 158.624 166.274 159.041 Q164.422 159.458 162.477 160.337 L162.477 142.976 Z" fill="#000000" fill-rule="nonzero" fill-opacity="1" /><path clip-path="url(#clip210)" d="M28.3562 859.343 L28.3562 831.524 L33.7034 831.524 L59.3254 853.55 L59.3254 831.524 L64.0042 831.524 L64.0042 860.138 L58.657 860.138 L33.035 838.113 L33.035 859.343 L28.3562 859.343 Z" fill="#000000" fill-rule="nonzero" fill-opacity="1" /><path clip-path="url(#clip210)" d="M16.4842 791.452 L16.4842 786.041 L70.0516 802.592 L70.0516 808.003 L16.4842 791.452 Z" fill="#000000" fill-rule="nonzero" fill-opacity="1" /><path clip-path="url(#clip210)" d="M28.3562 761.724 L28.3562 733.906 L33.7034 733.906 L59.3254 755.932 L59.3254 733.906 L64.0042 733.906 L64.0042 762.52 L58.657 762.52 L33.035 740.495 L33.035 761.724 L28.3562 761.724 Z" fill="#000000" fill-rule="nonzero" fill-opacity="1" /><path clip-path="url(#clip210)" d="M74.8259 697.876 L79.3773 697.876 L79.3773 731.742 L74.8259 731.742 L74.8259 697.876 Z" fill="#000000" fill-rule="nonzero" fill-opacity="1" /><path clip-path="url(#clip210)" d="M28.3562 692.37 L28.3562 686.514 L64.0042 686.514 L64.0042 692.37 L28.3562 692.37 M14.479 692.37 L14.479 686.514 L21.895 686.514 L21.895 692.37 L14.479 692.37 Z" fill="#000000" fill-rule="nonzero" fill-opacity="1" /><path clip-path="url(#clip210)" d="M653.681 72.576 L630.591 12.096 L639.139 12.096 L658.299 63.0159 L677.501 12.096 L686.008 12.096 L662.958 72.576 L653.681 72.576 Z" fill="#000000" fill-rule="nonzero" fill-opacity="1" /><path clip-path="url(#clip210)" d="M726.881 48.0275 L726.881 51.6733 L692.611 51.6733 Q693.097 59.3701 697.229 63.421 Q701.401 67.4314 708.814 67.4314 Q713.108 67.4314 717.119 66.3781 Q721.169 65.3249 725.139 63.2184 L725.139 70.267 Q721.129 71.9684 716.916 72.8596 Q712.703 73.7508 708.369 73.7508 Q697.512 73.7508 691.152 67.4314 Q684.833 61.1119 684.833 50.3365 Q684.833 39.1965 690.828 32.6746 Q696.864 26.1121 707.072 26.1121 Q716.227 26.1121 721.534 32.0264 Q726.881 37.9003 726.881 48.0275 M719.428 45.84 Q719.347 39.7232 715.984 36.0774 Q712.663 32.4315 707.153 32.4315 Q700.915 32.4315 697.148 35.9558 Q693.421 39.4801 692.854 45.8805 L719.428 45.84 Z" fill="#000000" fill-rule="nonzero" fill-opacity="1" /><path clip-path="url(#clip210)" d="M765.405 34.1734 Q764.15 33.4443 762.651 33.1202 Q761.192 32.7556 759.41 32.7556 Q753.091 32.7556 749.688 36.8875 Q746.326 40.9789 746.326 48.6757 L746.326 72.576 L738.831 72.576 L738.831 27.2059 L746.326 27.2059 L746.326 34.2544 Q748.675 30.1225 752.442 28.1376 Q756.21 26.1121 761.597 26.1121 Q762.367 26.1121 763.299 26.2337 Q764.231 26.3147 765.365 26.5172 L765.405 34.1734 Z" fill="#000000" fill-rule="nonzero" fill-opacity="1" /><path clip-path="url(#clip210)" d="M780.596 14.324 L780.596 27.2059 L795.949 27.2059 L795.949 32.9987 L780.596 32.9987 L780.596 57.6282 Q780.596 63.1779 782.095 64.7578 Q783.634 66.3376 788.293 66.3376 L795.949 66.3376 L795.949 72.576 L788.293 72.576 Q779.664 72.576 776.383 69.3758 Q773.102 66.1351 773.102 57.6282 L773.102 32.9987 L767.633 32.9987 L767.633 27.2059 L773.102 27.2059 L773.102 14.324 L780.596 14.324 Z" fill="#000000" fill-rule="nonzero" fill-opacity="1" /><path clip-path="url(#clip210)" d="M805.752 27.2059 L813.206 27.2059 L813.206 72.576 L805.752 72.576 L805.752 27.2059 M805.752 9.54393 L813.206 9.54393 L813.206 18.9825 L805.752 18.9825 L805.752 9.54393 Z" fill="#000000" fill-rule="nonzero" fill-opacity="1" /><path clip-path="url(#clip210)" d="M861.452 28.9478 L861.452 35.9153 Q858.293 34.1734 855.092 33.3227 Q851.933 32.4315 848.692 32.4315 Q841.441 32.4315 837.43 37.0496 Q833.42 41.6271 833.42 49.9314 Q833.42 58.2358 837.43 62.8538 Q841.441 67.4314 848.692 67.4314 Q851.933 67.4314 855.092 66.5807 Q858.293 65.6895 861.452 63.9476 L861.452 70.8341 Q858.333 72.2924 854.971 73.0216 Q851.649 73.7508 847.882 73.7508 Q837.633 73.7508 831.597 67.3098 Q825.561 60.8689 825.561 49.9314 Q825.561 38.832 831.638 32.472 Q837.754 26.1121 848.368 26.1121 Q851.811 26.1121 855.092 26.8413 Q858.374 27.5299 861.452 28.9478 Z" fill="#000000" fill-rule="nonzero" fill-opacity="1" /><path clip-path="url(#clip210)" d="M895.034 49.7694 Q886.001 49.7694 882.517 51.8354 Q879.033 53.9013 879.033 58.8839 Q879.033 62.8538 881.626 65.2034 Q884.259 67.5124 888.755 67.5124 Q894.953 67.5124 898.68 63.1374 Q902.447 58.7219 902.447 51.4303 L902.447 49.7694 L895.034 49.7694 M909.901 46.6907 L909.901 72.576 L902.447 72.576 L902.447 65.6895 Q899.895 69.8214 896.087 71.8063 Q892.28 73.7508 886.77 73.7508 Q879.803 73.7508 875.671 69.8619 Q871.58 65.9325 871.58 59.3701 Q871.58 51.7138 876.684 47.825 Q881.828 43.9361 891.996 43.9361 L902.447 43.9361 L902.447 43.2069 Q902.447 38.0623 899.045 35.2672 Q895.682 32.4315 889.566 32.4315 Q885.677 32.4315 881.99 33.3632 Q878.304 34.295 874.901 36.1584 L874.901 29.2718 Q878.993 27.692 882.841 26.9223 Q886.689 26.1121 890.335 26.1121 Q900.179 26.1121 905.04 31.2163 Q909.901 36.3204 909.901 46.6907 Z" fill="#000000" fill-rule="nonzero" fill-opacity="1" /><path clip-path="url(#clip210)" d="M925.254 9.54393 L932.708 9.54393 L932.708 72.576 L925.254 72.576 L925.254 9.54393 Z" fill="#000000" fill-rule="nonzero" fill-opacity="1" /><path clip-path="url(#clip210)" d="M974.999 12.096 L1013.24 12.096 L1013.24 18.9825 L983.182 18.9825 L983.182 36.8875 L1011.98 36.8875 L1011.98 43.7741 L983.182 43.7741 L983.182 65.6895 L1013.97 65.6895 L1013.97 72.576 L974.999 72.576 L974.999 12.096 Z" fill="#000000" fill-rule="nonzero" fill-opacity="1" /><path clip-path="url(#clip210)" d="M1056.95 34.0924 L1056.95 9.54393 L1064.4 9.54393 L1064.4 72.576 L1056.95 72.576 L1056.95 65.7705 Q1054.6 69.8214 1050.99 71.8063 Q1047.43 73.7508 1042.41 73.7508 Q1034.18 73.7508 1029 67.1883 Q1023.85 60.6258 1023.85 49.9314 Q1023.85 39.2371 1029 32.6746 Q1034.18 26.1121 1042.41 26.1121 Q1047.43 26.1121 1050.99 28.0971 Q1054.6 30.0415 1056.95 34.0924 M1031.55 49.9314 Q1031.55 58.1548 1034.91 62.8538 Q1038.31 67.5124 1044.23 67.5124 Q1050.14 67.5124 1053.55 62.8538 Q1056.95 58.1548 1056.95 49.9314 Q1056.95 41.7081 1053.55 37.0496 Q1050.14 32.3505 1044.23 32.3505 Q1038.31 32.3505 1034.91 37.0496 Q1031.55 41.7081 1031.55 49.9314 Z" fill="#000000" fill-rule="nonzero" fill-opacity="1" /><path clip-path="url(#clip210)" d="M1109.61 34.0924 L1109.61 9.54393 L1117.06 9.54393 L1117.06 72.576 L1109.61 72.576 L1109.61 65.7705 Q1107.26 69.8214 1103.66 71.8063 Q1100.09 73.7508 1095.07 73.7508 Q1086.84 73.7508 1081.66 67.1883 Q1076.51 60.6258 1076.51 49.9314 Q1076.51 39.2371 1081.66 32.6746 Q1086.84 26.1121 1095.07 26.1121 Q1100.09 26.1121 1103.66 28.0971 Q1107.26 30.0415 1109.61 34.0924 M1084.21 49.9314 Q1084.21 58.1548 1087.57 62.8538 Q1090.98 67.5124 1096.89 67.5124 Q1102.81 67.5124 1106.21 62.8538 Q1109.61 58.1548 1109.61 49.9314 Q1109.61 41.7081 1106.21 37.0496 Q1102.81 32.3505 1096.89 32.3505 Q1090.98 32.3505 1087.57 37.0496 Q1084.21 41.7081 1084.21 49.9314 Z" fill="#000000" fill-rule="nonzero" fill-opacity="1" /><path clip-path="url(#clip210)" d="M1151.29 76.7889 Q1148.13 84.8907 1145.14 87.3618 Q1142.14 89.8329 1137.12 89.8329 L1131.16 89.8329 L1131.16 83.5945 L1135.54 83.5945 Q1138.62 83.5945 1140.32 82.1361 Q1142.02 80.6778 1144.08 75.2496 L1145.42 71.8468 L1127.07 27.2059 L1134.97 27.2059 L1149.15 62.6918 L1163.33 27.2059 L1171.22 27.2059 L1151.29 76.7889 Z" fill="#000000" fill-rule="nonzero" fill-opacity="1" /><path clip-path="url(#clip210)" d="M1216.39 18.8205 L1216.39 65.8515 L1226.28 65.8515 Q1238.79 65.8515 1244.59 60.1802 Q1250.42 54.509 1250.42 42.2752 Q1250.42 30.1225 1244.59 24.4918 Q1238.79 18.8205 1226.28 18.8205 L1216.39 18.8205 M1208.21 12.096 L1225.02 12.096 Q1242.6 12.096 1250.83 19.4281 Q1259.05 26.7198 1259.05 42.2752 Q1259.05 57.9117 1250.78 65.2439 Q1242.52 72.576 1225.02 72.576 L1208.21 72.576 L1208.21 12.096 Z" fill="#000000" fill-rule="nonzero" fill-opacity="1" /><path clip-path="url(#clip210)" d="M1271.77 27.2059 L1279.22 27.2059 L1279.22 72.576 L1271.77 72.576 L1271.77 27.2059 M1271.77 9.54393 L1279.22 9.54393 L1279.22 18.9825 L1271.77 18.9825 L1271.77 9.54393 Z" fill="#000000" fill-rule="nonzero" fill-opacity="1" /><path clip-path="url(#clip210)" d="M1317.79 9.54393 L1317.79 15.7418 L1310.66 15.7418 Q1306.65 15.7418 1305.07 17.3622 Q1303.53 18.9825 1303.53 23.1955 L1303.53 27.2059 L1315.8 27.2059 L1315.8 32.9987 L1303.53 32.9987 L1303.53 72.576 L1296.03 72.576 L1296.03 32.9987 L1288.9 32.9987 L1288.9 27.2059 L1296.03 27.2059 L1296.03 24.0462 Q1296.03 16.471 1299.56 13.0277 Q1303.08 9.54393 1310.74 9.54393 L1317.79 9.54393 Z" fill="#000000" fill-rule="nonzero" fill-opacity="1" /><path clip-path="url(#clip210)" d="M1346.99 9.54393 L1346.99 15.7418 L1339.86 15.7418 Q1335.85 15.7418 1334.27 17.3622 Q1332.73 18.9825 1332.73 23.1955 L1332.73 27.2059 L1345.01 27.2059 L1345.01 32.9987 L1332.73 32.9987 L1332.73 72.576 L1325.24 72.576 L1325.24 32.9987 L1318.11 32.9987 L1318.11 27.2059 L1325.24 27.2059 L1325.24 24.0462 Q1325.24 16.471 1328.76 13.0277 Q1332.29 9.54393 1339.95 9.54393 L1346.99 9.54393 Z" fill="#000000" fill-rule="nonzero" fill-opacity="1" /><path clip-path="url(#clip210)" d="M1352.46 54.671 L1352.46 27.2059 L1359.92 27.2059 L1359.92 54.3874 Q1359.92 60.8284 1362.43 64.0691 Q1364.94 67.2693 1369.96 67.2693 Q1376 67.2693 1379.48 63.421 Q1383.01 59.5726 1383.01 52.9291 L1383.01 27.2059 L1390.46 27.2059 L1390.46 72.576 L1383.01 72.576 L1383.01 65.6084 Q1380.29 69.7404 1376.69 71.7658 Q1373.12 73.7508 1368.38 73.7508 Q1360.56 73.7508 1356.51 68.8897 Q1352.46 64.0286 1352.46 54.671 M1371.22 26.1121 L1371.22 26.1121 Z" fill="#000000" fill-rule="nonzero" fill-opacity="1" /><path clip-path="url(#clip210)" d="M1434.74 28.5427 L1434.74 35.5912 Q1431.58 33.9709 1428.17 33.1607 Q1424.77 32.3505 1421.13 32.3505 Q1415.58 32.3505 1412.78 34.0519 Q1410.03 35.7533 1410.03 39.156 Q1410.03 41.7486 1412.01 43.2475 Q1414 44.7058 1419.99 46.0426 L1422.54 46.6097 Q1430.48 48.3111 1433.8 51.4303 Q1437.17 54.509 1437.17 60.0587 Q1437.17 66.3781 1432.14 70.0644 Q1427.16 73.7508 1418.41 73.7508 Q1414.77 73.7508 1410.8 73.0216 Q1406.87 72.3329 1402.49 70.9151 L1402.49 63.2184 Q1406.62 65.3654 1410.63 66.4591 Q1414.64 67.5124 1418.57 67.5124 Q1423.84 67.5124 1426.67 65.73 Q1429.51 63.9071 1429.51 60.6258 Q1429.51 57.5877 1427.44 55.9673 Q1425.42 54.3469 1418.49 52.8481 L1415.9 52.2405 Q1408.97 50.7821 1405.89 47.7845 Q1402.82 44.7463 1402.82 39.4801 Q1402.82 33.0797 1407.35 29.5959 Q1411.89 26.1121 1420.23 26.1121 Q1424.37 26.1121 1428.01 26.7198 Q1431.66 27.3274 1434.74 28.5427 Z" fill="#000000" fill-rule="nonzero" fill-opacity="1" /><path clip-path="url(#clip210)" d="M1449.04 27.2059 L1456.49 27.2059 L1456.49 72.576 L1449.04 72.576 L1449.04 27.2059 M1449.04 9.54393 L1456.49 9.54393 L1456.49 18.9825 L1449.04 18.9825 L1449.04 9.54393 Z" fill="#000000" fill-rule="nonzero" fill-opacity="1" /><path clip-path="url(#clip210)" d="M1466.74 27.2059 L1474.64 27.2059 L1488.82 65.2844 L1502.99 27.2059 L1510.89 27.2059 L1493.88 72.576 L1483.75 72.576 L1466.74 27.2059 Z" fill="#000000" fill-rule="nonzero" fill-opacity="1" /><path clip-path="url(#clip210)" d="M1521.18 27.2059 L1528.64 27.2059 L1528.64 72.576 L1521.18 72.576 L1521.18 27.2059 M1521.18 9.54393 L1528.64 9.54393 L1528.64 18.9825 L1521.18 18.9825 L1521.18 9.54393 Z" fill="#000000" fill-rule="nonzero" fill-opacity="1" /><path clip-path="url(#clip210)" d="M1551.6 14.324 L1551.6 27.2059 L1566.96 27.2059 L1566.96 32.9987 L1551.6 32.9987 L1551.6 57.6282 Q1551.6 63.1779 1553.1 64.7578 Q1554.64 66.3376 1559.3 66.3376 L1566.96 66.3376 L1566.96 72.576 L1559.3 72.576 Q1550.67 72.576 1547.39 69.3758 Q1544.11 66.1351 1544.11 57.6282 L1544.11 32.9987 L1538.64 32.9987 L1538.64 27.2059 L1544.11 27.2059 L1544.11 14.324 L1551.6 14.324 Z" fill="#000000" fill-rule="nonzero" fill-opacity="1" /><path clip-path="url(#clip210)" d="M1595.64 76.7889 Q1592.48 84.8907 1589.48 87.3618 Q1586.48 89.8329 1581.46 89.8329 L1575.51 89.8329 L1575.51 83.5945 L1579.88 83.5945 Q1582.96 83.5945 1584.66 82.1361 Q1586.36 80.6778 1588.43 75.2496 L1589.76 71.8468 L1571.41 27.2059 L1579.31 27.2059 L1593.49 62.6918 L1607.67 27.2059 L1615.57 27.2059 L1595.64 76.7889 Z" fill="#000000" fill-rule="nonzero" fill-opacity="1" /><path clip-path="url(#clip210)" d="M1660.74 18.8205 L1660.74 41.5461 L1671.03 41.5461 Q1676.74 41.5461 1679.86 38.5889 Q1682.98 35.6318 1682.98 30.163 Q1682.98 24.7348 1679.86 21.7777 Q1676.74 18.8205 1671.03 18.8205 L1660.74 18.8205 M1652.55 12.096 L1671.03 12.096 Q1681.19 12.096 1686.38 16.714 Q1691.6 21.2916 1691.6 30.163 Q1691.6 39.1155 1686.38 43.6931 Q1681.19 48.2706 1671.03 48.2706 L1660.74 48.2706 L1660.74 72.576 L1652.55 72.576 L1652.55 12.096 Z" fill="#000000" fill-rule="nonzero" fill-opacity="1" /><path clip-path="url(#clip210)" d="M1727.09 34.1734 Q1725.83 33.4443 1724.34 33.1202 Q1722.88 32.7556 1721.09 32.7556 Q1714.78 32.7556 1711.37 36.8875 Q1708.01 40.9789 1708.01 48.6757 L1708.01 72.576 L1700.52 72.576 L1700.52 27.2059 L1708.01 27.2059 L1708.01 34.2544 Q1710.36 30.1225 1714.13 28.1376 Q1717.89 26.1121 1723.28 26.1121 Q1724.05 26.1121 1724.98 26.2337 Q1725.92 26.3147 1727.05 26.5172 L1727.09 34.1734 Z" fill="#000000" fill-rule="nonzero" fill-opacity="1" /><path clip-path="url(#clip210)" d="M1750.67 32.4315 Q1744.67 32.4315 1741.19 37.1306 Q1737.7 41.7891 1737.7 49.9314 Q1737.7 58.0738 1741.15 62.7728 Q1744.63 67.4314 1750.67 67.4314 Q1756.62 67.4314 1760.1 62.7323 Q1763.59 58.0333 1763.59 49.9314 Q1763.59 41.8701 1760.1 37.1711 Q1756.62 32.4315 1750.67 32.4315 M1750.67 26.1121 Q1760.39 26.1121 1765.94 32.4315 Q1771.49 38.7509 1771.49 49.9314 Q1771.49 61.0714 1765.94 67.4314 Q1760.39 73.7508 1750.67 73.7508 Q1740.9 73.7508 1735.35 67.4314 Q1729.84 61.0714 1729.84 49.9314 Q1729.84 38.7509 1735.35 32.4315 Q1740.9 26.1121 1750.67 26.1121 Z" fill="#000000" fill-rule="nonzero" fill-opacity="1" /><path clip-path="url(#clip210)" d="M1806.81 9.54393 L1806.81 15.7418 L1799.68 15.7418 Q1795.67 15.7418 1794.09 17.3622 Q1792.55 18.9825 1792.55 23.1955 L1792.55 27.2059 L1804.83 27.2059 L1804.83 32.9987 L1792.55 32.9987 L1792.55 72.576 L1785.06 72.576 L1785.06 32.9987 L1777.93 32.9987 L1777.93 27.2059 L1785.06 27.2059 L1785.06 24.0462 Q1785.06 16.471 1788.58 13.0277 Q1792.11 9.54393 1799.76 9.54393 L1806.81 9.54393 Z" fill="#000000" fill-rule="nonzero" fill-opacity="1" /><path clip-path="url(#clip210)" d="M1813.05 27.2059 L1820.5 27.2059 L1820.5 72.576 L1813.05 72.576 L1813.05 27.2059 M1813.05 9.54393 L1820.5 9.54393 L1820.5 18.9825 L1813.05 18.9825 L1813.05 9.54393 Z" fill="#000000" fill-rule="nonzero" fill-opacity="1" /><path clip-path="url(#clip210)" d="M1836.1 9.54393 L1843.55 9.54393 L1843.55 72.576 L1836.1 72.576 L1836.1 9.54393 Z" fill="#000000" fill-rule="nonzero" fill-opacity="1" /><path clip-path="url(#clip210)" d="M1897.96 48.0275 L1897.96 51.6733 L1863.69 51.6733 Q1864.17 59.3701 1868.3 63.421 Q1872.48 67.4314 1879.89 67.4314 Q1884.18 67.4314 1888.19 66.3781 Q1892.25 65.3249 1896.22 63.2184 L1896.22 70.267 Q1892.2 71.9684 1887.99 72.8596 Q1883.78 73.7508 1879.44 73.7508 Q1868.59 73.7508 1862.23 67.4314 Q1855.91 61.1119 1855.91 50.3365 Q1855.91 39.1965 1861.9 32.6746 Q1867.94 26.1121 1878.15 26.1121 Q1887.3 26.1121 1892.61 32.0264 Q1897.96 37.9003 1897.96 48.0275 M1890.5 45.84 Q1890.42 39.7232 1887.06 36.0774 Q1883.74 32.4315 1878.23 32.4315 Q1871.99 32.4315 1868.22 35.9558 Q1864.5 39.4801 1863.93 45.8805 L1890.5 45.84 Z" fill="#000000" fill-rule="nonzero" fill-opacity="1" /><path clip-path="url(#clip210)" d="M1939.11 28.5427 L1939.11 35.5912 Q1935.95 33.9709 1932.55 33.1607 Q1929.15 32.3505 1925.5 32.3505 Q1919.95 32.3505 1917.16 34.0519 Q1914.4 35.7533 1914.4 39.156 Q1914.4 41.7486 1916.39 43.2475 Q1918.37 44.7058 1924.37 46.0426 L1926.92 46.6097 Q1934.86 48.3111 1938.18 51.4303 Q1941.54 54.509 1941.54 60.0587 Q1941.54 66.3781 1936.52 70.0644 Q1931.54 73.7508 1922.79 73.7508 Q1919.14 73.7508 1915.17 73.0216 Q1911.24 72.3329 1906.87 70.9151 L1906.87 63.2184 Q1911 65.3654 1915.01 66.4591 Q1919.02 67.5124 1922.95 67.5124 Q1928.22 67.5124 1931.05 65.73 Q1933.89 63.9071 1933.89 60.6258 Q1933.89 57.5877 1931.82 55.9673 Q1929.8 54.3469 1922.87 52.8481 L1920.28 52.2405 Q1913.35 50.7821 1910.27 47.7845 Q1907.19 44.7463 1907.19 39.4801 Q1907.19 33.0797 1911.73 29.5959 Q1916.27 26.1121 1924.61 26.1121 Q1928.74 26.1121 1932.39 26.7198 Q1936.04 27.3274 1939.11 28.5427 Z" fill="#000000" fill-rule="nonzero" fill-opacity="1" /><polyline clip-path="url(#clip211)" style="stroke:#009af9; stroke-linecap:round; stroke-linejoin:round; stroke-width:8; stroke-opacity:1; fill:none" points="305.596,1386.4 352.983,1378.17 415.91,1369.94 491.981,1361.71 702.095,1353.48 751.79,1345.25 802.763,1337.02 854.815,1328.79 907.758,1320.56 961.406,1312.33 1015.58,1304.1 1070.11,1295.88 1124.82,1287.65 1179.56,1279.42 1234.17,1271.19 1288.51,1262.96 1342.41,1254.73 1395.76,1246.5 1448.42,1238.27 1500.26,1230.04 1551.16,1221.81 1601,1213.58 1649.69,1205.35 1697.11,1197.13 1743.17,1188.9 1787.78,1180.67 1830.86,1172.44 1872.32,1164.21 1912.09,1155.98 1950.1,1147.75 1986.3,1139.52 2020.63,1131.29 2053.03,1123.06 2083.46,1114.83 2111.89,1106.61 2138.29,1098.38 2162.62,1090.15 2184.86,1081.92 2205.01,1073.69 2223.05,1065.46 2238.98,1057.23 2252.8,1049 2264.52,1040.77 2274.16,1032.54 2281.74,1024.31 2287.28,1016.09 2290.81,1007.86 2292.38,999.627 2292.02,991.398 2289.79,983.169 2285.75,974.94 2279.94,966.71 2272.45,958.481 2263.35,950.252 2252.71,942.023 2240.61,933.794 2227.16,925.565 2212.44,917.336 2196.56,909.107 2179.63,900.877 2005.74,892.648 1841.49,884.419 1692.87,876.19 1558.4,867.961 1436.72,859.732 1326.62,851.503 1227,843.274 1136.86,835.044 1055.29,826.815 981.491,818.586 914.712,810.357 854.288,802.128 799.615,793.899 750.144,785.67 705.381,777.441 664.877,769.211 628.229,760.982 595.067,752.753 565.062,744.524 537.911,736.295 513.345,728.066 491.116,719.837 471.003,711.608 452.804,703.378 436.336,695.149 421.436,686.92 407.954,678.691 395.754,670.462 384.716,662.233 374.728,654.004 365.69,645.775 357.513,637.545 350.114,629.316 343.418,621.087 337.36,612.858 331.879,604.629 326.919,596.4 322.431,588.171 318.37,579.942 314.696,571.712 311.371,563.483 308.363,555.254 305.641,547.025 303.178,538.796 300.949,530.567 298.933,522.338 297.108,514.109 295.457,505.879 293.963,497.65 292.611,489.421 292.158,481.192 292.158,472.963 292.158,464.734 292.158,456.505 292.158,448.276 292.158,440.046 292.158,431.817 292.158,423.588 292.158,415.359 292.158,407.13 292.158,398.901 292.158,390.672 292.158,382.443 292.158,374.214 292.158,365.984 292.158,357.755 292.158,349.526 292.158,341.297 292.158,333.068 292.158,324.839 292.158,316.61 292.158,308.381 292.158,300.151 292.158,291.922 292.158,283.693 292.158,275.464 292.158,267.235 292.158,259.006 292.158,250.777 292.158,242.548 292.158,234.318 292.158,226.089 292.158,217.86 292.158,209.631 292.158,201.402 292.158,193.173 292.158,184.944 292.158,176.715 292.158,168.485 292.158,160.256 "/>
<polyline clip-path="url(#clip211)" style="stroke:#e26f46; stroke-linecap:round; stroke-linejoin:round; stroke-width:8; stroke-opacity:1; fill:none" stroke-dasharray="32, 20" points="292.806,1386.4 305.853,1378.17 318.9,1369.94 331.947,1361.71 344.994,1353.48 358.042,1345.25 371.089,1337.02 384.136,1328.79 397.183,1320.56 410.23,1312.33 421.842,1304.1 433.193,1295.88 444.283,1287.65 455.112,1279.42 465.681,1271.19 475.988,1262.96 486.034,1254.73 495.82,1246.5 505.344,1238.27 514.607,1230.04 523.61,1221.81 532.352,1213.58 540.832,1205.35 549.052,1197.13 557.011,1188.9 564.709,1180.67 572.145,1172.44 579.321,1164.21 586.236,1155.98 592.89,1147.75 599.283,1139.52 605.416,1131.29 611.287,1123.06 616.897,1114.83 622.246,1106.61 627.335,1098.38 632.162,1090.15 636.729,1081.92 641.034,1073.69 645.079,1065.46 648.863,1057.23 652.385,1049 655.647,1040.77 658.648,1032.54 661.388,1024.31 663.867,1016.09 666.085,1007.86 668.042,999.627 669.738,991.398 671.173,983.169 672.348,974.94 673.261,966.71 673.913,958.481 674.305,950.252 674.435,942.023 674.305,933.794 673.913,925.565 673.261,917.336 672.348,909.107 671.173,900.877 669.738,892.648 668.042,884.419 666.085,876.19 663.867,867.961 661.388,859.732 658.648,851.503 655.647,843.274 652.385,835.044 648.863,826.815 645.079,818.586 641.034,810.357 636.729,802.128 632.162,793.899 627.335,785.67 622.246,777.441 616.897,769.211 611.287,760.982 605.416,752.753 599.283,744.524 592.89,736.295 586.236,728.066 579.321,719.837 572.145,711.608 564.709,703.378 557.011,695.149 549.052,686.92 540.832,678.691 532.352,670.462 523.61,662.233 514.607,654.004 505.344,645.775 495.82,637.545 486.034,629.316 475.988,621.087 465.681,612.858 455.112,604.629 444.283,596.4 433.193,588.171 421.842,579.942 410.23,571.712 398.357,563.483 386.223,555.254 373.829,547.025 361.173,538.796 348.256,530.567 335.079,522.338 321.64,514.109 307.941,505.879 293.98,497.65 279.759,489.421 279.759,481.192 279.759,472.963 279.759,464.734 279.759,456.505 279.759,448.276 279.759,440.046 279.759,431.817 279.759,423.588 279.759,415.359 279.759,407.13 279.759,398.901 279.759,390.672 279.759,382.443 279.759,374.214 279.759,365.984 279.759,357.755 279.759,349.526 279.759,341.297 279.759,333.068 279.759,324.839 279.759,316.61 279.759,308.381 279.759,300.151 279.759,291.922 279.759,283.693 279.759,275.464 279.759,267.235 279.759,259.006 279.759,250.777 279.759,242.548 279.759,234.318 279.759,226.089 279.759,217.86 279.759,209.631 279.759,201.402 279.759,193.173 279.759,184.944 279.759,176.715 279.759,168.485 279.759,160.256 "/>
<polyline clip-path="url(#clip211)" style="stroke:#3da44d; stroke-linecap:round; stroke-linejoin:round; stroke-width:8; stroke-opacity:1; fill:none" stroke-dasharray="4, 8" points="292.788,1386.4 300.204,1378.17 304.764,1369.94 307.68,1361.71 309.572,1353.48 310.786,1345.25 311.532,1337.02 311.944,1328.79 312.112,1320.56 312.099,1312.33 311.949,1304.1 311.694,1295.88 311.359,1287.65 310.962,1279.42 310.518,1271.19 310.037,1262.96 309.528,1254.73 308.998,1246.5 308.454,1238.27 307.899,1230.04 307.337,1221.81 306.771,1213.58 306.204,1205.35 305.638,1197.13 305.075,1188.9 304.515,1180.67 303.961,1172.44 303.412,1164.21 302.87,1155.98 302.336,1147.75 301.809,1139.52 301.291,1131.29 300.781,1123.06 300.281,1114.83 299.789,1106.61 299.307,1098.38 298.834,1090.15 298.37,1081.92 297.916,1073.69 297.472,1065.46 297.036,1057.23 296.61,1049 296.193,1040.77 295.786,1032.54 295.387,1024.31 294.998,1016.09 294.617,1007.86 294.245,999.627 293.882,991.398 293.526,983.169 293.18,974.94 292.841,966.71 292.511,958.481 292.188,950.252 291.873,942.023 291.566,933.794 291.266,925.565 290.973,917.336 290.688,909.107 290.409,900.877 290.137,892.648 289.872,884.419 289.614,876.19 289.361,867.961 289.115,859.732 288.876,851.503 288.642,843.274 288.414,835.044 288.191,826.815 287.975,818.586 287.763,810.357 287.557,802.128 287.356,793.899 287.161,785.67 286.97,777.441 286.784,769.211 286.602,760.982 286.426,752.753 286.253,744.524 286.086,736.295 285.922,728.066 285.763,719.837 285.607,711.608 285.456,703.378 285.308,695.149 285.164,686.92 285.024,678.691 284.888,670.462 284.755,662.233 284.625,654.004 284.499,645.775 284.376,637.545 284.256,629.316 284.139,621.087 284.025,612.858 283.914,604.629 283.806,596.4 283.701,588.171 283.599,579.942 283.499,571.712 283.401,563.483 283.307,555.254 283.214,547.025 283.124,538.796 283.037,530.567 282.951,522.338 282.868,514.109 282.787,505.879 282.708,497.65 282.631,489.421 282.556,481.192 282.483,472.963 282.412,464.734 282.343,456.505 282.276,448.276 282.21,440.046 282.146,431.817 282.084,423.588 282.023,415.359 281.964,407.13 281.906,398.901 281.85,390.672 281.796,382.443 281.742,374.214 281.691,365.984 281.64,357.755 281.591,349.526 281.543,341.297 281.497,333.068 281.451,324.839 281.407,316.61 281.364,308.381 281.322,300.151 281.281,291.922 281.241,283.693 281.202,275.464 281.165,267.235 281.128,259.006 281.092,250.777 281.057,242.548 281.023,234.318 280.99,226.089 280.958,217.86 280.927,209.631 280.896,201.402 280.866,193.173 280.837,184.944 280.809,176.715 280.781,168.485 280.755,160.256 "/>
<polyline clip-path="url(#clip211)" style="stroke:#808080; stroke-linecap:round; stroke-linejoin:round; stroke-width:4; stroke-opacity:0.5; fill:none" stroke-dasharray="16, 8, 2, 8" points="-1914,571.712 4486.13,571.712 "/>
<path clip-path="url(#clip210)" d="M1549.81 425.996 L2281.64 425.996 L2281.64 166.796 L1549.81 166.796  Z" fill="#ffffff" fill-rule="evenodd" fill-opacity="1"/>
<polyline clip-path="url(#clip210)" style="stroke:#000000; stroke-linecap:round; stroke-linejoin:round; stroke-width:4; stroke-opacity:1; fill:none" points="1549.81,425.996 2281.64,425.996 2281.64,166.796 1549.81,166.796 1549.81,425.996 "/>
<polyline clip-path="url(#clip210)" style="stroke:#009af9; stroke-linecap:round; stroke-linejoin:round; stroke-width:8; stroke-opacity:1; fill:none" points="1573.52,218.636 1715.74,218.636 "/>
<path clip-path="url(#clip210)" d="M1739.45 201.356 L1744.15 201.356 L1744.15 222.351 Q1744.15 227.907 1746.16 230.36 Q1748.17 232.791 1752.69 232.791 Q1757.18 232.791 1759.19 230.36 Q1761.21 227.907 1761.21 222.351 L1761.21 201.356 L1765.9 201.356 L1765.9 222.93 Q1765.9 229.689 1762.55 233.138 Q1759.22 236.587 1752.69 236.587 Q1746.14 236.587 1742.78 233.138 Q1739.45 229.689 1739.45 222.93 L1739.45 201.356 Z" fill="#000000" fill-rule="nonzero" fill-opacity="1" /><path clip-path="url(#clip210)" d="M1796.04 220.268 L1796.04 235.916 L1791.78 235.916 L1791.78 220.407 Q1791.78 216.726 1790.35 214.897 Q1788.91 213.069 1786.04 213.069 Q1782.59 213.069 1780.6 215.268 Q1778.61 217.467 1778.61 221.263 L1778.61 235.916 L1774.33 235.916 L1774.33 209.99 L1778.61 209.99 L1778.61 214.018 Q1780.14 211.68 1782.2 210.522 Q1784.28 209.365 1786.99 209.365 Q1791.46 209.365 1793.75 212.143 Q1796.04 214.897 1796.04 220.268 Z" fill="#000000" fill-rule="nonzero" fill-opacity="1" /><path clip-path="url(#clip210)" d="M1821.07 210.754 L1821.07 214.782 Q1819.26 213.856 1817.32 213.393 Q1815.37 212.93 1813.29 212.93 Q1810.12 212.93 1808.52 213.902 Q1806.95 214.874 1806.95 216.819 Q1806.95 218.3 1808.08 219.157 Q1809.21 219.99 1812.64 220.754 L1814.1 221.078 Q1818.64 222.05 1820.53 223.832 Q1822.46 225.592 1822.46 228.763 Q1822.46 232.374 1819.59 234.481 Q1816.74 236.587 1811.74 236.587 Q1809.65 236.587 1807.39 236.17 Q1805.14 235.777 1802.64 234.967 L1802.64 230.569 Q1805 231.795 1807.29 232.42 Q1809.59 233.022 1811.83 233.022 Q1814.84 233.022 1816.46 232.004 Q1818.08 230.962 1818.08 229.087 Q1818.08 227.351 1816.9 226.425 Q1815.74 225.499 1811.78 224.643 L1810.3 224.295 Q1806.34 223.462 1804.59 221.749 Q1802.83 220.013 1802.83 217.004 Q1802.83 213.346 1805.42 211.356 Q1808.01 209.365 1812.78 209.365 Q1815.14 209.365 1817.22 209.712 Q1819.31 210.059 1821.07 210.754 Z" fill="#000000" fill-rule="nonzero" fill-opacity="1" /><path clip-path="url(#clip210)" d="M1833.45 202.629 L1833.45 209.99 L1842.22 209.99 L1842.22 213.3 L1833.45 213.3 L1833.45 227.374 Q1833.45 230.545 1834.31 231.448 Q1835.19 232.351 1837.85 232.351 L1842.22 232.351 L1842.22 235.916 L1837.85 235.916 Q1832.92 235.916 1831.04 234.087 Q1829.17 232.235 1829.17 227.374 L1829.17 213.3 L1826.04 213.3 L1826.04 209.99 L1829.17 209.99 L1829.17 202.629 L1833.45 202.629 Z" fill="#000000" fill-rule="nonzero" fill-opacity="1" /><path clip-path="url(#clip210)" d="M1859.61 222.883 Q1854.45 222.883 1852.46 224.064 Q1850.46 225.244 1850.46 228.092 Q1850.46 230.36 1851.95 231.703 Q1853.45 233.022 1856.02 233.022 Q1859.56 233.022 1861.69 230.522 Q1863.84 227.999 1863.84 223.832 L1863.84 222.883 L1859.61 222.883 M1868.1 221.124 L1868.1 235.916 L1863.84 235.916 L1863.84 231.981 Q1862.39 234.342 1860.21 235.476 Q1858.03 236.587 1854.89 236.587 Q1850.9 236.587 1848.54 234.365 Q1846.21 232.119 1846.21 228.369 Q1846.21 223.994 1849.12 221.772 Q1852.06 219.55 1857.87 219.55 L1863.84 219.55 L1863.84 219.133 Q1863.84 216.194 1861.9 214.596 Q1859.98 212.976 1856.48 212.976 Q1854.26 212.976 1852.15 213.508 Q1850.05 214.041 1848.1 215.106 L1848.1 211.17 Q1850.44 210.268 1852.64 209.828 Q1854.84 209.365 1856.92 209.365 Q1862.55 209.365 1865.33 212.282 Q1868.1 215.198 1868.1 221.124 Z" fill="#000000" fill-rule="nonzero" fill-opacity="1" /><path clip-path="url(#clip210)" d="M1895.49 222.976 Q1895.49 218.277 1893.54 215.615 Q1891.62 212.93 1888.24 212.93 Q1884.86 212.93 1882.92 215.615 Q1881 218.277 1881 222.976 Q1881 227.675 1882.92 230.36 Q1884.86 233.022 1888.24 233.022 Q1891.62 233.022 1893.54 230.36 Q1895.49 227.675 1895.49 222.976 M1881 213.925 Q1882.34 211.61 1884.38 210.499 Q1886.44 209.365 1889.28 209.365 Q1894.01 209.365 1896.95 213.115 Q1899.91 216.865 1899.91 222.976 Q1899.91 229.087 1896.95 232.837 Q1894.01 236.587 1889.28 236.587 Q1886.44 236.587 1884.38 235.476 Q1882.34 234.342 1881 232.027 L1881 235.916 L1876.71 235.916 L1876.71 199.897 L1881 199.897 L1881 213.925 Z" fill="#000000" fill-rule="nonzero" fill-opacity="1" /><path clip-path="url(#clip210)" d="M1906.97 199.897 L1911.23 199.897 L1911.23 235.916 L1906.97 235.916 L1906.97 199.897 Z" fill="#000000" fill-rule="nonzero" fill-opacity="1" /><path clip-path="url(#clip210)" d="M1942.32 221.888 L1942.32 223.971 L1922.73 223.971 Q1923.01 228.369 1925.37 230.684 Q1927.76 232.976 1931.99 232.976 Q1934.45 232.976 1936.74 232.374 Q1939.05 231.772 1941.32 230.569 L1941.32 234.596 Q1939.03 235.568 1936.62 236.078 Q1934.21 236.587 1931.74 236.587 Q1925.53 236.587 1921.9 232.976 Q1918.29 229.365 1918.29 223.207 Q1918.29 216.842 1921.71 213.115 Q1925.16 209.365 1931 209.365 Q1936.23 209.365 1939.26 212.745 Q1942.32 216.101 1942.32 221.888 M1938.06 220.638 Q1938.01 217.143 1936.09 215.059 Q1934.19 212.976 1931.04 212.976 Q1927.48 212.976 1925.33 214.99 Q1923.2 217.004 1922.87 220.661 L1938.06 220.638 Z" fill="#000000" fill-rule="nonzero" fill-opacity="1" /><path clip-path="url(#clip210)" d="M1974.61 199.944 Q1971.51 205.268 1970 210.476 Q1968.5 215.684 1968.5 221.032 Q1968.5 226.379 1970 231.633 Q1971.53 236.865 1974.61 242.166 L1970.9 242.166 Q1967.43 236.726 1965.7 231.471 Q1963.98 226.217 1963.98 221.032 Q1963.98 215.87 1965.7 210.638 Q1967.41 205.407 1970.9 199.944 L1974.61 199.944 Z" fill="#000000" fill-rule="nonzero" fill-opacity="1" /><path clip-path="url(#clip210)" d="M1983.06 201.356 L1987.73 201.356 L1987.73 231.981 L2004.56 231.981 L2004.56 235.916 L1983.06 235.916 L1983.06 201.356 Z" fill="#000000" fill-rule="nonzero" fill-opacity="1" /><path clip-path="url(#clip210)" d="M2024.91 214.388 L2054.58 214.388 L2054.58 218.277 L2024.91 218.277 L2024.91 214.388 M2024.91 223.832 L2054.58 223.832 L2054.58 227.768 L2024.91 227.768 L2024.91 223.832 Z" fill="#000000" fill-rule="nonzero" fill-opacity="1" /><path clip-path="url(#clip210)" d="M2076.99 221.032 L2089.47 221.032 L2089.47 224.828 L2076.99 224.828 L2076.99 221.032 Z" fill="#000000" fill-rule="nonzero" fill-opacity="1" /><path clip-path="url(#clip210)" d="M2097.66 231.981 L2105.3 231.981 L2105.3 205.615 L2096.99 207.282 L2096.99 203.022 L2105.25 201.356 L2109.93 201.356 L2109.93 231.981 L2117.57 231.981 L2117.57 235.916 L2097.66 235.916 L2097.66 231.981 Z" fill="#000000" fill-rule="nonzero" fill-opacity="1" /><path clip-path="url(#clip210)" d="M2137.01 204.434 Q2133.4 204.434 2131.57 207.999 Q2129.77 211.541 2129.77 218.67 Q2129.77 225.777 2131.57 229.342 Q2133.4 232.883 2137.01 232.883 Q2140.65 232.883 2142.45 229.342 Q2144.28 225.777 2144.28 218.67 Q2144.28 211.541 2142.45 207.999 Q2140.65 204.434 2137.01 204.434 M2137.01 200.731 Q2142.82 200.731 2145.88 205.337 Q2148.96 209.92 2148.96 218.67 Q2148.96 227.397 2145.88 232.004 Q2142.82 236.587 2137.01 236.587 Q2131.2 236.587 2128.13 232.004 Q2125.07 227.397 2125.07 218.67 Q2125.07 209.92 2128.13 205.337 Q2131.2 200.731 2137.01 200.731 Z" fill="#000000" fill-rule="nonzero" fill-opacity="1" /><path clip-path="url(#clip210)" d="M2167.18 204.434 Q2163.56 204.434 2161.74 207.999 Q2159.93 211.541 2159.93 218.67 Q2159.93 225.777 2161.74 229.342 Q2163.56 232.883 2167.18 232.883 Q2170.81 232.883 2172.62 229.342 Q2174.44 225.777 2174.44 218.67 Q2174.44 211.541 2172.62 207.999 Q2170.81 204.434 2167.18 204.434 M2167.18 200.731 Q2172.99 200.731 2176.04 205.337 Q2179.12 209.92 2179.12 218.67 Q2179.12 227.397 2176.04 232.004 Q2172.99 236.587 2167.18 236.587 Q2161.37 236.587 2158.29 232.004 Q2155.23 227.397 2155.23 218.67 Q2155.23 209.92 2158.29 205.337 Q2161.37 200.731 2167.18 200.731 Z" fill="#000000" fill-rule="nonzero" fill-opacity="1" /><path clip-path="url(#clip210)" d="M2221.99 214.967 Q2223.59 212.096 2225.81 210.731 Q2228.03 209.365 2231.04 209.365 Q2235.09 209.365 2237.29 212.212 Q2239.49 215.036 2239.49 220.268 L2239.49 235.916 L2235.21 235.916 L2235.21 220.407 Q2235.21 216.68 2233.89 214.874 Q2232.57 213.069 2229.86 213.069 Q2226.55 213.069 2224.63 215.268 Q2222.71 217.467 2222.71 221.263 L2222.71 235.916 L2218.43 235.916 L2218.43 220.407 Q2218.43 216.657 2217.11 214.874 Q2215.79 213.069 2213.03 213.069 Q2209.77 213.069 2207.85 215.291 Q2205.93 217.49 2205.93 221.263 L2205.93 235.916 L2201.64 235.916 L2201.64 209.99 L2205.93 209.99 L2205.93 214.018 Q2207.38 211.633 2209.42 210.499 Q2211.46 209.365 2214.26 209.365 Q2217.08 209.365 2219.05 210.8 Q2221.04 212.235 2221.99 214.967 Z" fill="#000000" fill-rule="nonzero" fill-opacity="1" /><path clip-path="url(#clip210)" d="M2247.31 199.944 L2251.02 199.944 Q2254.49 205.407 2256.2 210.638 Q2257.94 215.87 2257.94 221.032 Q2257.94 226.217 2256.2 231.471 Q2254.49 236.726 2251.02 242.166 L2247.31 242.166 Q2250.39 236.865 2251.9 231.633 Q2253.43 226.379 2253.43 221.032 Q2253.43 215.684 2251.9 210.476 Q2250.39 205.268 2247.31 199.944 Z" fill="#000000" fill-rule="nonzero" fill-opacity="1" /><polyline clip-path="url(#clip210)" style="stroke:#e26f46; stroke-linecap:round; stroke-linejoin:round; stroke-width:8; stroke-opacity:1; fill:none" stroke-dasharray="32, 20" points="1573.52,270.476 1715.74,270.476 "/>
<path clip-path="url(#clip210)" d="M1739.45 253.196 L1745.74 253.196 L1761.07 282.108 L1761.07 253.196 L1765.6 253.196 L1765.6 287.756 L1759.31 287.756 L1743.98 258.844 L1743.98 287.756 L1739.45 287.756 L1739.45 253.196 Z" fill="#000000" fill-rule="nonzero" fill-opacity="1" /><path clip-path="url(#clip210)" d="M1796.9 273.728 L1796.9 275.811 L1777.32 275.811 Q1777.59 280.209 1779.96 282.524 Q1782.34 284.816 1786.58 284.816 Q1789.03 284.816 1791.32 284.214 Q1793.64 283.612 1795.9 282.409 L1795.9 286.436 Q1793.61 287.408 1791.21 287.918 Q1788.8 288.427 1786.32 288.427 Q1780.12 288.427 1776.48 284.816 Q1772.87 281.205 1772.87 275.047 Q1772.87 268.682 1776.3 264.955 Q1779.75 261.205 1785.58 261.205 Q1790.81 261.205 1793.84 264.585 Q1796.9 267.941 1796.9 273.728 M1792.64 272.478 Q1792.59 268.983 1790.67 266.899 Q1788.78 264.816 1785.63 264.816 Q1782.06 264.816 1779.91 266.83 Q1777.78 268.844 1777.46 272.501 L1792.64 272.478 Z" fill="#000000" fill-rule="nonzero" fill-opacity="1" /><path clip-path="url(#clip210)" d="M1803.45 277.524 L1803.45 261.83 L1807.71 261.83 L1807.71 277.362 Q1807.71 281.043 1809.15 282.895 Q1810.58 284.723 1813.45 284.723 Q1816.9 284.723 1818.89 282.524 Q1820.9 280.325 1820.9 276.529 L1820.9 261.83 L1825.16 261.83 L1825.16 287.756 L1820.9 287.756 L1820.9 283.774 Q1819.35 286.135 1817.29 287.293 Q1815.26 288.427 1812.55 288.427 Q1808.08 288.427 1805.77 285.649 Q1803.45 282.871 1803.45 277.524 M1814.17 261.205 L1814.17 261.205 Z" fill="#000000" fill-rule="nonzero" fill-opacity="1" /><path clip-path="url(#clip210)" d="M1838.15 254.469 L1838.15 261.83 L1846.92 261.83 L1846.92 265.14 L1838.15 265.14 L1838.15 279.214 Q1838.15 282.385 1839.01 283.288 Q1839.89 284.191 1842.55 284.191 L1846.92 284.191 L1846.92 287.756 L1842.55 287.756 Q1837.62 287.756 1835.74 285.927 Q1833.87 284.075 1833.87 279.214 L1833.87 265.14 L1830.74 265.14 L1830.74 261.83 L1833.87 261.83 L1833.87 254.469 L1838.15 254.469 Z" fill="#000000" fill-rule="nonzero" fill-opacity="1" /><path clip-path="url(#clip210)" d="M1867.55 265.811 Q1866.83 265.395 1865.97 265.21 Q1865.14 265.001 1864.12 265.001 Q1860.51 265.001 1858.57 267.362 Q1856.65 269.7 1856.65 274.098 L1856.65 287.756 L1852.36 287.756 L1852.36 261.83 L1856.65 261.83 L1856.65 265.858 Q1857.99 263.497 1860.14 262.362 Q1862.29 261.205 1865.37 261.205 Q1865.81 261.205 1866.34 261.274 Q1866.88 261.321 1867.52 261.436 L1867.55 265.811 Z" fill="#000000" fill-rule="nonzero" fill-opacity="1" /><path clip-path="url(#clip210)" d="M1883.8 274.723 Q1878.64 274.723 1876.64 275.904 Q1874.65 277.084 1874.65 279.932 Q1874.65 282.2 1876.14 283.543 Q1877.64 284.862 1880.21 284.862 Q1883.75 284.862 1885.88 282.362 Q1888.03 279.839 1888.03 275.672 L1888.03 274.723 L1883.8 274.723 M1892.29 272.964 L1892.29 287.756 L1888.03 287.756 L1888.03 283.821 Q1886.58 286.182 1884.4 287.316 Q1882.22 288.427 1879.08 288.427 Q1875.09 288.427 1872.73 286.205 Q1870.39 283.959 1870.39 280.209 Q1870.39 275.834 1873.31 273.612 Q1876.25 271.39 1882.06 271.39 L1888.03 271.39 L1888.03 270.973 Q1888.03 268.034 1886.09 266.436 Q1884.17 264.816 1880.67 264.816 Q1878.45 264.816 1876.34 265.348 Q1874.24 265.881 1872.29 266.946 L1872.29 263.01 Q1874.63 262.108 1876.83 261.668 Q1879.03 261.205 1881.11 261.205 Q1886.74 261.205 1889.52 264.122 Q1892.29 267.038 1892.29 272.964 Z" fill="#000000" fill-rule="nonzero" fill-opacity="1" /><path clip-path="url(#clip210)" d="M1901.07 251.737 L1905.33 251.737 L1905.33 287.756 L1901.07 287.756 L1901.07 251.737 Z" fill="#000000" fill-rule="nonzero" fill-opacity="1" /><path clip-path="url(#clip210)" d="M1939.54 251.784 Q1936.44 257.108 1934.93 262.316 Q1933.43 267.524 1933.43 272.872 Q1933.43 278.219 1934.93 283.473 Q1936.46 288.705 1939.54 294.006 L1935.83 294.006 Q1932.36 288.566 1930.63 283.311 Q1928.91 278.057 1928.91 272.872 Q1928.91 267.71 1930.63 262.478 Q1932.34 257.247 1935.83 251.784 L1939.54 251.784 Z" fill="#000000" fill-rule="nonzero" fill-opacity="1" /><path clip-path="url(#clip210)" d="M1953.29 251.529 L1953.29 298.936 L1949.35 298.936 L1949.35 251.529 L1953.29 251.529 Z" fill="#000000" fill-rule="nonzero" fill-opacity="1" /><path clip-path="url(#clip210)" d="M1963.96 253.196 L1968.64 253.196 L1968.64 283.821 L1985.46 283.821 L1985.46 287.756 L1963.96 287.756 L1963.96 253.196 Z" fill="#000000" fill-rule="nonzero" fill-opacity="1" /><path clip-path="url(#clip210)" d="M1995.67 251.529 L1995.67 298.936 L1991.74 298.936 L1991.74 251.529 L1995.67 251.529 Z" fill="#000000" fill-rule="nonzero" fill-opacity="1" /><path clip-path="url(#clip210)" d="M2054.17 271.853 L2054.17 273.936 L2045.07 283.034 L2042.29 280.256 L2047.69 274.862 L2019.47 274.862 L2019.47 270.927 L2047.69 270.927 L2042.29 265.534 L2045.07 262.756 L2054.17 271.853 Z" fill="#000000" fill-rule="nonzero" fill-opacity="1" /><path clip-path="url(#clip210)" d="M2093.15 279.677 Q2092.43 278.844 2091.3 276.899 Q2089.75 279.677 2088.38 280.904 Q2086.67 282.385 2084 282.385 Q2080.88 282.385 2078.82 280.047 Q2076.64 277.594 2076.64 273.543 Q2076.64 269.654 2078.82 267.015 Q2080.76 264.677 2084.05 264.677 Q2085.74 264.677 2086.99 265.372 Q2088.45 266.135 2089.44 267.455 Q2090.37 268.635 2091.3 270.233 Q2092.85 267.455 2094.21 266.228 Q2095.93 264.747 2098.59 264.747 Q2101.71 264.747 2103.77 267.085 Q2105.95 269.538 2105.95 273.589 Q2105.95 277.478 2103.77 280.117 Q2101.83 282.455 2098.54 282.455 Q2096.85 282.455 2095.6 281.76 Q2094.35 281.135 2093.15 279.677 M2083.75 279.353 Q2087.57 279.353 2089.86 273.797 Q2086.92 267.733 2083.75 267.733 Q2081.44 267.733 2080.25 269.399 Q2078.98 271.182 2078.98 273.543 Q2078.98 276.135 2080.25 277.733 Q2081.55 279.353 2083.75 279.353 M2098.84 267.779 Q2095.39 267.779 2092.73 273.334 Q2095.65 279.399 2098.84 279.399 Q2101.16 279.399 2102.34 277.733 Q2103.61 275.95 2103.61 273.589 Q2103.61 270.997 2102.34 269.399 Q2101.04 267.779 2098.84 267.779 Z" fill="#000000" fill-rule="nonzero" fill-opacity="1" /><path clip-path="url(#clip210)" d="M2114.84 251.784 L2118.54 251.784 Q2122.01 257.247 2123.73 262.478 Q2125.46 267.71 2125.46 272.872 Q2125.46 278.057 2123.73 283.311 Q2122.01 288.566 2118.54 294.006 L2114.84 294.006 Q2117.92 288.705 2119.42 283.473 Q2120.95 278.219 2120.95 272.872 Q2120.95 267.524 2119.42 262.316 Q2117.92 257.108 2114.84 251.784 Z" fill="#000000" fill-rule="nonzero" fill-opacity="1" /><polyline clip-path="url(#clip210)" style="stroke:#3da44d; stroke-linecap:round; stroke-linejoin:round; stroke-width:8; stroke-opacity:1; fill:none" stroke-dasharray="4, 8" points="1573.52,322.316 1715.74,322.316 "/>
<path clip-path="url(#clip210)" d="M1761.69 306.17 L1761.69 310.73 Q1759.03 309.457 1756.67 308.832 Q1754.31 308.207 1752.11 308.207 Q1748.29 308.207 1746.21 309.688 Q1744.15 311.17 1744.15 313.901 Q1744.15 316.193 1745.51 317.374 Q1746.9 318.531 1750.74 319.249 L1753.57 319.827 Q1758.8 320.823 1761.28 323.346 Q1763.78 325.846 1763.78 330.059 Q1763.78 335.082 1760.4 337.674 Q1757.04 340.267 1750.53 340.267 Q1748.08 340.267 1745.3 339.711 Q1742.55 339.156 1739.59 338.068 L1739.59 333.253 Q1742.43 334.85 1745.16 335.661 Q1747.9 336.471 1750.53 336.471 Q1754.54 336.471 1756.72 334.897 Q1758.89 333.323 1758.89 330.406 Q1758.89 327.86 1757.32 326.424 Q1755.77 324.989 1752.2 324.272 L1749.35 323.716 Q1744.12 322.675 1741.78 320.452 Q1739.45 318.23 1739.45 314.272 Q1739.45 309.688 1742.66 307.05 Q1745.9 304.411 1751.58 304.411 Q1754.01 304.411 1756.53 304.851 Q1759.05 305.29 1761.69 306.17 Z" fill="#000000" fill-rule="nonzero" fill-opacity="1" /><path clip-path="url(#clip210)" d="M1775.09 306.309 L1775.09 313.67 L1783.87 313.67 L1783.87 316.98 L1775.09 316.98 L1775.09 331.054 Q1775.09 334.225 1775.95 335.128 Q1776.83 336.031 1779.49 336.031 L1783.87 336.031 L1783.87 339.596 L1779.49 339.596 Q1774.56 339.596 1772.69 337.767 Q1770.81 335.915 1770.81 331.054 L1770.81 316.98 L1767.69 316.98 L1767.69 313.67 L1770.81 313.67 L1770.81 306.309 L1775.09 306.309 Z" fill="#000000" fill-rule="nonzero" fill-opacity="1" /><path clip-path="url(#clip210)" d="M1801.25 326.563 Q1796.09 326.563 1794.1 327.744 Q1792.11 328.924 1792.11 331.772 Q1792.11 334.04 1793.59 335.383 Q1795.09 336.702 1797.66 336.702 Q1801.21 336.702 1803.34 334.202 Q1805.49 331.679 1805.49 327.512 L1805.49 326.563 L1801.25 326.563 M1809.75 324.804 L1809.75 339.596 L1805.49 339.596 L1805.49 335.661 Q1804.03 338.022 1801.85 339.156 Q1799.68 340.267 1796.53 340.267 Q1792.55 340.267 1790.19 338.045 Q1787.85 335.799 1787.85 332.049 Q1787.85 327.674 1790.77 325.452 Q1793.71 323.23 1799.52 323.23 L1805.49 323.23 L1805.49 322.813 Q1805.49 319.874 1803.54 318.276 Q1801.62 316.656 1798.13 316.656 Q1795.9 316.656 1793.8 317.188 Q1791.69 317.721 1789.75 318.786 L1789.75 314.85 Q1792.09 313.948 1794.28 313.508 Q1796.48 313.045 1798.57 313.045 Q1804.19 313.045 1806.97 315.962 Q1809.75 318.878 1809.75 324.804 Z" fill="#000000" fill-rule="nonzero" fill-opacity="1" /><path clip-path="url(#clip210)" d="M1837.13 326.656 Q1837.13 321.957 1835.19 319.295 Q1833.27 316.61 1829.89 316.61 Q1826.51 316.61 1824.56 319.295 Q1822.64 321.957 1822.64 326.656 Q1822.64 331.355 1824.56 334.04 Q1826.51 336.702 1829.89 336.702 Q1833.27 336.702 1835.19 334.04 Q1837.13 331.355 1837.13 326.656 M1822.64 317.605 Q1823.98 315.29 1826.02 314.179 Q1828.08 313.045 1830.93 313.045 Q1835.65 313.045 1838.59 316.795 Q1841.55 320.545 1841.55 326.656 Q1841.55 332.767 1838.59 336.517 Q1835.65 340.267 1830.93 340.267 Q1828.08 340.267 1826.02 339.156 Q1823.98 338.022 1822.64 335.707 L1822.64 339.596 L1818.36 339.596 L1818.36 303.577 L1822.64 303.577 L1822.64 317.605 Z" fill="#000000" fill-rule="nonzero" fill-opacity="1" /><path clip-path="url(#clip210)" d="M1848.61 303.577 L1852.87 303.577 L1852.87 339.596 L1848.61 339.596 L1848.61 303.577 Z" fill="#000000" fill-rule="nonzero" fill-opacity="1" /><path clip-path="url(#clip210)" d="M1883.96 325.568 L1883.96 327.651 L1864.38 327.651 Q1864.65 332.049 1867.02 334.364 Q1869.4 336.656 1873.64 336.656 Q1876.09 336.656 1878.38 336.054 Q1880.7 335.452 1882.96 334.249 L1882.96 338.276 Q1880.67 339.248 1878.27 339.758 Q1875.86 340.267 1873.38 340.267 Q1867.18 340.267 1863.54 336.656 Q1859.93 333.045 1859.93 326.887 Q1859.93 320.522 1863.36 316.795 Q1866.81 313.045 1872.64 313.045 Q1877.87 313.045 1880.9 316.425 Q1883.96 319.781 1883.96 325.568 M1879.7 324.318 Q1879.65 320.823 1877.73 318.739 Q1875.83 316.656 1872.69 316.656 Q1869.12 316.656 1866.97 318.67 Q1864.84 320.684 1864.52 324.341 L1879.7 324.318 Z" fill="#000000" fill-rule="nonzero" fill-opacity="1" /><path clip-path="url(#clip210)" d="M1916.25 303.624 Q1913.15 308.948 1911.64 314.156 Q1910.14 319.364 1910.14 324.712 Q1910.14 330.059 1911.64 335.313 Q1913.17 340.545 1916.25 345.846 L1912.55 345.846 Q1909.08 340.406 1907.34 335.151 Q1905.63 329.897 1905.63 324.712 Q1905.63 319.55 1907.34 314.318 Q1909.05 309.087 1912.55 303.624 L1916.25 303.624 Z" fill="#000000" fill-rule="nonzero" fill-opacity="1" /><path clip-path="url(#clip210)" d="M1924.7 305.036 L1929.38 305.036 L1929.38 335.661 L1946.2 335.661 L1946.2 339.596 L1924.7 339.596 L1924.7 305.036 Z" fill="#000000" fill-rule="nonzero" fill-opacity="1" /><path clip-path="url(#clip210)" d="M1966.55 318.068 L1996.23 318.068 L1996.23 321.957 L1966.55 321.957 L1966.55 318.068 M1966.55 327.512 L1996.23 327.512 L1996.23 331.448 L1966.55 331.448 L1966.55 327.512 Z" fill="#000000" fill-rule="nonzero" fill-opacity="1" /><path clip-path="url(#clip210)" d="M2025.42 335.661 L2041.74 335.661 L2041.74 339.596 L2019.79 339.596 L2019.79 335.661 Q2022.45 332.906 2027.04 328.276 Q2031.64 323.624 2032.82 322.281 Q2035.07 319.758 2035.95 318.022 Q2036.85 316.263 2036.85 314.573 Q2036.85 311.818 2034.91 310.082 Q2032.99 308.346 2029.88 308.346 Q2027.69 308.346 2025.23 309.11 Q2022.8 309.874 2020.02 311.425 L2020.02 306.702 Q2022.85 305.568 2025.3 304.989 Q2027.76 304.411 2029.79 304.411 Q2035.16 304.411 2038.36 307.096 Q2041.55 309.781 2041.55 314.272 Q2041.55 316.401 2040.74 318.323 Q2039.95 320.221 2037.85 322.813 Q2037.27 323.485 2034.17 326.702 Q2031.07 329.897 2025.42 335.661 Z" fill="#000000" fill-rule="nonzero" fill-opacity="1" /><path clip-path="url(#clip210)" d="M2061.55 308.114 Q2057.94 308.114 2056.11 311.679 Q2054.31 315.221 2054.31 322.35 Q2054.31 329.457 2056.11 333.022 Q2057.94 336.563 2061.55 336.563 Q2065.19 336.563 2066.99 333.022 Q2068.82 329.457 2068.82 322.35 Q2068.82 315.221 2066.99 311.679 Q2065.19 308.114 2061.55 308.114 M2061.55 304.411 Q2067.36 304.411 2070.42 309.017 Q2073.5 313.6 2073.5 322.35 Q2073.5 331.077 2070.42 335.684 Q2067.36 340.267 2061.55 340.267 Q2055.74 340.267 2052.66 335.684 Q2049.61 331.077 2049.61 322.35 Q2049.61 313.6 2052.66 309.017 Q2055.74 304.411 2061.55 304.411 Z" fill="#000000" fill-rule="nonzero" fill-opacity="1" /><path clip-path="url(#clip210)" d="M2091.71 308.114 Q2088.1 308.114 2086.27 311.679 Q2084.47 315.221 2084.47 322.35 Q2084.47 329.457 2086.27 333.022 Q2088.1 336.563 2091.71 336.563 Q2095.35 336.563 2097.15 333.022 Q2098.98 329.457 2098.98 322.35 Q2098.98 315.221 2097.15 311.679 Q2095.35 308.114 2091.71 308.114 M2091.71 304.411 Q2097.52 304.411 2100.58 309.017 Q2103.66 313.6 2103.66 322.35 Q2103.66 331.077 2100.58 335.684 Q2097.52 340.267 2091.71 340.267 Q2085.9 340.267 2082.82 335.684 Q2079.77 331.077 2079.77 322.35 Q2079.77 313.6 2082.82 309.017 Q2085.9 304.411 2091.71 304.411 Z" fill="#000000" fill-rule="nonzero" fill-opacity="1" /><path clip-path="url(#clip210)" d="M2146.53 318.647 Q2148.12 315.776 2150.35 314.411 Q2152.57 313.045 2155.58 313.045 Q2159.63 313.045 2161.83 315.892 Q2164.03 318.716 2164.03 323.948 L2164.03 339.596 L2159.75 339.596 L2159.75 324.087 Q2159.75 320.36 2158.43 318.554 Q2157.11 316.749 2154.4 316.749 Q2151.09 316.749 2149.17 318.948 Q2147.25 321.147 2147.25 324.943 L2147.25 339.596 L2142.96 339.596 L2142.96 324.087 Q2142.96 320.337 2141.64 318.554 Q2140.32 316.749 2137.57 316.749 Q2134.31 316.749 2132.38 318.971 Q2130.46 321.17 2130.46 324.943 L2130.46 339.596 L2126.18 339.596 L2126.18 313.67 L2130.46 313.67 L2130.46 317.698 Q2131.92 315.313 2133.96 314.179 Q2136 313.045 2138.8 313.045 Q2141.62 313.045 2143.59 314.48 Q2145.58 315.915 2146.53 318.647 Z" fill="#000000" fill-rule="nonzero" fill-opacity="1" /><path clip-path="url(#clip210)" d="M2171.85 303.624 L2175.56 303.624 Q2179.03 309.087 2180.74 314.318 Q2182.48 319.55 2182.48 324.712 Q2182.48 329.897 2180.74 335.151 Q2179.03 340.406 2175.56 345.846 L2171.85 345.846 Q2174.93 340.545 2176.44 335.313 Q2177.96 330.059 2177.96 324.712 Q2177.96 319.364 2176.44 314.156 Q2174.93 308.948 2171.85 303.624 Z" fill="#000000" fill-rule="nonzero" fill-opacity="1" /><polyline clip-path="url(#clip210)" style="stroke:#808080; stroke-linecap:round; stroke-linejoin:round; stroke-width:4; stroke-opacity:0.5; fill:none" stroke-dasharray="16, 8, 2, 8" points="1573.52,374.156 1715.74,374.156 "/>
<path clip-path="url(#clip210)" d="M1740.03 365.51 L1760.26 365.51 L1760.26 369.399 L1744.24 388.033 L1760.26 388.033 L1760.26 391.436 L1739.45 391.436 L1739.45 387.547 L1755.47 368.913 L1740.03 368.913 L1740.03 365.51 Z" fill="#000000" fill-rule="nonzero" fill-opacity="1" /><path clip-path="url(#clip210)" d="M1786.46 399.306 L1786.46 402.616 L1761.83 402.616 L1761.83 399.306 L1786.46 399.306 Z" fill="#000000" fill-rule="nonzero" fill-opacity="1" /><path clip-path="url(#clip210)" d="M1790.46 365.51 L1794.72 365.51 L1794.72 391.436 L1790.46 391.436 L1790.46 365.51 M1790.46 355.417 L1794.72 355.417 L1794.72 360.811 L1790.46 360.811 L1790.46 355.417 Z" fill="#000000" fill-rule="nonzero" fill-opacity="1" /></svg>
